999
FreeCAD v0.18 16093 (Git)
  0
SECTION
  2
HEADER
  9
$ACADVER
  1
AC1014
  9
$ACADMAINTVER
 70
     9
  9
$DWGCODEPAGE
  3
ANSI_1252
  9
$TEXTSTYLE
  7
STANDARD
  9
$DIMSTYLE
  2
STANDARD
  9
$DIMTXSTY
  7
STANDARD
  9
$CMLSTYLE
  2
STANDARD
  9
$HANDSEED
  5
FFF
  0
ENDSEC
  0
SECTION
  2
CLASSES
  0
CLASS
  1
ACDBDICTIONARYWDFLT
  2
AcDbDictionaryWithDefault
  3
ObjectDBX Classes
 90
        0
280
     0
281
     0
  0
CLASS
  1
XRECORD
  2
AcDbXrecord
  3
ObjectDBX Classes
 90
        0
280
     0
281
     0
  0
CLASS
  1
LWPOLYLINE
  2
AcDbPolyline
  3
ObjectDBX Classes
 90
        0
280
     0
281
     1
  0
ENDSEC
  0
SECTION
  2
TABLES
  0
TABLE
  2
VPORT
  5
20
330
0
100
AcDbSymbolTable
 70
     1
  0
VPORT
  5
21
330
20
100
AcDbSymbolTableRecord
100
AcDbViewportTableRecord
  2
*ACTIVE
 70
     0
  0
ENDTAB
  0
TABLE
  2
LTYPE
  5
22
330
0
100
AcDbSymbolTable
 70
     1
  0
LTYPE
  5
23
330
21
100
AcDbSymbolTableRecord
100
AcDbLinetypeTableRecord
  2
BYBLOCK
 70
     0
  3

 72
    65
 73
     0
 40
0.0
  0
LTYPE
  5
24
330
21
100
AcDbSymbolTableRecord
100
AcDbLinetypeTableRecord
  2
BYLAYER
 70
     0
  3

 72
    65
 73
     0
 40
0.0
  0
LTYPE
  5
25
330
21
100
AcDbSymbolTableRecord
100
AcDbLinetypeTableRecord
  2
CONTINUOUS
 70
     0
  3
Solid line
 72
    65
 73
     0
 40
0.0
  0
ENDTAB
  0
TABLE
  2
LAYER
  5
31
330
0
100
AcDbSymbolTable
 70
2
  0
LAYER
  5
32
330
31
100
AcDbSymbolTableRecord
100
AcDbLayerTableRecord
  2
0
 70
   0
 62
   7
  6
CONTINUOUS
  0
LAYER
  5
33
330
31
100
AcDbSymbolTableRecord
100
AcDbLayerTableRecord
  2
View005
 70
    0
 62
    7
  6
CONTINUOUS
  0
ENDTAB
  0
TABLE
  2
STYLE
  5
60
330
0
100
AcDbSymbolTable
 70
     2
  0
STYLE
  5
61
330
60
100
AcDbSymbolTableRecord
100
AcDbTextStyleTableRecord
  2
STANDARD
 70
     0
 40
0.0
 41
1.0
 50
0.0
 71
     0
 42
2.5
  3
arial.ttf
  4

  0
STYLE
  5
62
330
60
100
AcDbSymbolTableRecord
100
AcDbTextStyleTableRecord
  2
ANNOTATIVE
 70
     0
 40
0.0
 41
1.0
 50
0.0
 71
     0
 42
2.5
  3
arial.ttf
  4

  0
ENDTAB
  0
TABLE
  2
VIEW
  5
63
330
0
100
AcDbSymbolTable
 70
     0
  0
ENDTAB
  0
TABLE
  2
UCS
  5
64
330
0
100
AcDbSymbolTable
 70
     0
  0
ENDTAB
  0
TABLE
  2
APPID
  5
65
330
0
100
AcDbSymbolTable
 70
     2
  0
APPID
  5
66
330
65
100
AcDbSymbolTableRecord
100
AcDbRegAppTableRecord
  2
ACAD
 70
     0
  0
APPID
  5
67
330
65
100
AcDbSymbolTableRecord
100
AcDbRegAppTableRecord
  2
ACADANNOTATIVE
 70
     0
  0
ENDTAB
  0
TABLE
  2
DIMSTYLE
  5
68
330
0
100
AcDbSymbolTable
 70
     2
  0
DIMSTYLE
105
69
330
68
100
AcDbSymbolTableRecord
100
AcDbDimStyleTableRecord
  2
STANDARD
 70
     0
  3

  4

  5

  6

  7

 40
0.0
 41
2.5
 42
0.625
 43
3.75
 44
1.25
 45
0.0
 46
0.0
 47
0.0
 48
0.0
140
2.5
141
2.5
142
0.0
143
0.03937007874016
144
1.0
145
0.0
146
1.0
147
0.625
 71
     0
 72
     0
 73
     0
 74
     0
 75
     0
 76
     0
 77
     1
 78
     8
170
     0
171
     3
172
     1
173
     0
174
     0
175
     0
176
     0
177
     0
178
     0
270
     2
271
     2
272
     2
273
     2
274
     3
340
61
275
     0
280
     0
281
     0
282
     0
283
     0
284
     8
285
     0
286
     0
287
     3
288
     0
  0
ENDTAB
  0
TABLE
  2
BLOCK_RECORD
  5
111
330
0
100
AcDbSymbolTable
  70
5
  0
BLOCK_RECORD
  5
112
330
111
100
AcDbSymbolTableRecord
100
AcDbBlockTableRecord
  2
*MODEL_SPACE
  0
BLOCK_RECORD
  5
113
330
111
100
AcDbSymbolTableRecord
100
AcDbBlockTableRecord
  2
*PAPER_SPACE
  0
ENDTAB
  0
ENDSEC
  0
SECTION
  2
BLOCKS
  0
BLOCK
  5
211
330
112
100
AcDbEntity
  8
0
100
AcDbBlockBegin
  2
*MODEL_SPACE
 70
   0
 10
0
 20
0
 30
0
  3
*MODEL_SPACE
  1
 
  0
ENDBLK
  5
212
330
112
100
AcDbEntity
  8
0
100
AcDbBlockEnd
  0
BLOCK
  5
213
330
113
100
AcDbEntity
 67
1
  8
0
100
AcDbBlockBegin
  2
*PAPER_SPACE
 70
   0
 10
0
 20
0
 30
0
  3
*PAPER_SPACE
  1
 
  0
ENDBLK
  5
214
330
113
100
AcDbEntity
 67
    1
  8
0
100
AcDbBlockEnd
  0
ENDSEC
  0
SECTION
  2
ENTITIES
  0
LINE
  5
301
330
112
100
AcDbEntity
  8
View005
100
AcDbLine
 10
156.5
 20
95
 30
0
 11
140.5
 21
95
 31
0
  0
ARC
  5
302
330
112
100
AcDbEntity
  8
View005
100
AcDbCircle
 10
156.5
 20
97
 30
0
 40
2
100
AcDbArc
 50
-90
 51
0
  0
ARC
  5
303
330
112
100
AcDbEntity
  8
View005
100
AcDbCircle
 10
140.5
 20
97
 30
0
 40
2
100
AcDbArc
 50
180
 51
-90
  0
LINE
  5
304
330
112
100
AcDbEntity
  8
View005
100
AcDbLine
 10
158.5
 20
113
 30
0
 11
158.5
 21
97
 31
0
  0
LINE
  5
305
330
112
100
AcDbEntity
  8
View005
100
AcDbLine
 10
138.5
 20
97
 30
0
 11
138.5
 21
113
 31
0
  0
ARC
  5
306
330
112
100
AcDbEntity
  8
View005
100
AcDbCircle
 10
156.5
 20
113
 30
0
 40
2
100
AcDbArc
 50
0
 51
90
  0
ARC
  5
307
330
112
100
AcDbEntity
  8
View005
100
AcDbCircle
 10
140.5
 20
113
 30
0
 40
2
100
AcDbArc
 50
90
 51
180
  0
LINE
  5
308
330
112
100
AcDbEntity
  8
View005
100
AcDbLine
 10
140.5
 20
115
 30
0
 11
156.5
 21
115
 31
0
  0
LINE
  5
309
330
112
100
AcDbEntity
  8
View005
100
AcDbLine
 10
168.01
 20
110.726
 30
0
 11
160.554
 21
121.375
 31
0
  0
ARC
  5
30A
330
112
100
AcDbEntity
  8
View005
100
AcDbCircle
 10
165.469
 20
124.817
 30
0
 40
6
100
AcDbArc
 50
-171.414
 51
-145
  0
ARC
  5
30B
330
112
100
AcDbEntity
  8
View005
100
AcDbCircle
 10
151.626
 20
122.727
 30
0
 40
8
100
AcDbArc
 50
8.58616
 51
151.414
  0
ARC
  5
30C
330
112
100
AcDbEntity
  8
View005
100
AcDbCircle
 10
139.332
 20
129.425
 30
0
 40
6
100
AcDbArc
 50
-55
 51
-28.5862
  0
LINE
  5
30D
330
112
100
AcDbEntity
  8
View005
100
AcDbLine
 10
142.774
 20
124.51
 30
0
 11
132.125
 21
117.054
 31
0
  0
ARC
  5
30E
330
112
100
AcDbEntity
  8
View005
100
AcDbCircle
 10
128.683
 20
121.969
 30
0
 40
6
100
AcDbArc
 50
-81.4138
 51
-55
  0
ARC
  5
30F
330
112
100
AcDbEntity
  8
View005
100
AcDbCircle
 10
130.773
 20
108.126
 30
0
 40
8
100
AcDbArc
 50
98.5862
 51
-118.586
  0
ARC
  5
310
330
112
100
AcDbEntity
  8
View005
100
AcDbCircle
 10
124.075
 20
95.8323
 30
0
 40
6
100
AcDbArc
 50
35
 51
61.4138
  0
LINE
  5
311
330
112
100
AcDbEntity
  8
View005
100
AcDbLine
 10
128.99
 20
99.2737
 30
0
 11
136.446
 21
88.6248
 31
0
  0
ARC
  5
312
330
112
100
AcDbEntity
  8
View005
100
AcDbCircle
 10
131.531
 20
85.1833
 30
0
 40
6
100
AcDbArc
 50
8.58616
 51
35
  0
ARC
  5
313
330
112
100
AcDbEntity
  8
View005
100
AcDbCircle
 10
145.374
 20
87.2735
 30
0
 40
8
100
AcDbArc
 50
-171.414
 51
-28.5862
  0
ARC
  5
314
330
112
100
AcDbEntity
  8
View005
100
AcDbCircle
 10
157.668
 20
80.5747
 30
0
 40
6
100
AcDbArc
 50
125
 51
151.414
  0
LINE
  5
315
330
112
100
AcDbEntity
  8
View005
100
AcDbLine
 10
154.226
 20
85.4897
 30
0
 11
164.875
 21
92.9462
 31
0
  0
ARC
  5
316
330
112
100
AcDbEntity
  8
View005
100
AcDbCircle
 10
168.317
 20
88.0312
 30
0
 40
6
100
AcDbArc
 50
98.5862
 51
125
  0
ARC
  5
317
330
112
100
AcDbEntity
  8
View005
100
AcDbCircle
 10
166.227
 20
101.874
 30
0
 40
8
100
AcDbArc
 50
-81.4138
 51
61.4138
  0
ARC
  5
318
330
112
100
AcDbEntity
  8
View005
100
AcDbCircle
 10
172.925
 20
114.168
 30
0
 40
6
100
AcDbArc
 50
-145
 51
-118.586
  0
LINE
  5
319
330
112
100
AcDbEntity
  8
View005
100
AcDbLine
 10
161.088
 20
92.9649
 30
0
 11
154.535
 21
88.3763
 31
0
  0
LINE
  5
31A
330
112
100
AcDbEntity
  8
View005
100
AcDbLine
 10
154.535
 20
88.3763
 30
0
 11
153.961
 21
89.1954
 31
0
  0
LINE
  5
31B
330
112
100
AcDbEntity
  8
View005
100
AcDbLine
 10
153.961
 20
89.1954
 30
0
 11
160.514
 21
93.784
 31
0
  0
LINE
  5
31C
330
112
100
AcDbEntity
  8
View005
100
AcDbLine
 10
160.514
 20
93.784
 30
0
 11
161.088
 21
92.9649
 31
0
  0
LINE
  5
31D
330
112
100
AcDbEntity
  8
View005
100
AcDbLine
 10
164.305
 20
110.461
 30
0
 11
159.716
 21
117.014
 31
0
  0
LINE
  5
31E
330
112
100
AcDbEntity
  8
View005
100
AcDbLine
 10
159.716
 20
117.014
 30
0
 11
160.535
 21
117.588
 31
0
  0
LINE
  5
31F
330
112
100
AcDbEntity
  8
View005
100
AcDbLine
 10
160.535
 20
117.588
 30
0
 11
165.124
 21
111.035
 31
0
  0
LINE
  5
320
330
112
100
AcDbEntity
  8
View005
100
AcDbLine
 10
165.124
 20
111.035
 30
0
 11
164.305
 21
110.461
 31
0
  0
LINE
  5
321
330
112
100
AcDbEntity
  8
View005
100
AcDbLine
 10
143.039
 20
120.805
 30
0
 11
136.486
 21
116.216
 31
0
  0
LINE
  5
322
330
112
100
AcDbEntity
  8
View005
100
AcDbLine
 10
136.486
 20
116.216
 30
0
 11
135.912
 21
117.035
 31
0
  0
LINE
  5
323
330
112
100
AcDbEntity
  8
View005
100
AcDbLine
 10
135.912
 20
117.035
 30
0
 11
142.465
 21
121.624
 31
0
  0
LINE
  5
324
330
112
100
AcDbEntity
  8
View005
100
AcDbLine
 10
142.465
 20
121.624
 30
0
 11
143.039
 21
120.805
 31
0
  0
LINE
  5
325
330
112
100
AcDbEntity
  8
View005
100
AcDbLine
 10
132.695
 20
99.5389
 30
0
 11
137.284
 21
92.9857
 31
0
  0
LINE
  5
326
330
112
100
AcDbEntity
  8
View005
100
AcDbLine
 10
137.284
 20
92.9857
 30
0
 11
136.465
 21
92.4121
 31
0
  0
LINE
  5
327
330
112
100
AcDbEntity
  8
View005
100
AcDbLine
 10
136.465
 20
92.4121
 30
0
 11
131.876
 21
98.9653
 31
0
  0
LINE
  5
328
330
112
100
AcDbEntity
  8
View005
100
AcDbLine
 10
131.876
 20
98.9653
 30
0
 11
132.695
 21
99.5389
 31
0
  0
CIRCLE
  5
329
330
112
100
AcDbEntity
  8
View005
100
AcDbCircle
 10
149.756
 20
122.956
 40
1.65
  0
CIRCLE
  5
32A
330
112
100
AcDbEntity
  8
View005
100
AcDbCircle
 10
147.244
 20
87.0438
 40
1.65
  0
CIRCLE
  5
32B
330
112
100
AcDbEntity
  8
View005
100
AcDbCircle
 10
166.456
 20
103.744
 40
1.65
  0
CIRCLE
  5
32C
330
112
100
AcDbEntity
  8
View005
100
AcDbCircle
 10
130.544
 20
106.256
 40
1.65
  0
ENDSEC
  0
SECTION
  2
OBJECTS
  0
DICTIONARY
  5
500
330
0
100
AcDbDictionary
  3
ACAD_GROUP
350
501
  0
DICTIONARY
  5
501
330
500
100
AcDbDictionary
  0
ENDSEC
  0
EOF