<?xml version='1.0' encoding='UTF-8' standalone='no'?>
<svg viewBox="0 0 2970 2100" width="297mm" baseProfile="tiny" height="210mm" xmlns="http://www.w3.org/2000/svg" xmlns:xlink="http://www.w3.org/1999/xlink" version="1.2">
 <title>FreeCAD SVG Export</title>
 <desc>Drawing page: Page009 exported from FreeCAD document: magic_crystal</desc>
 <defs/>
 <g stroke-linecap="square" fill="none" stroke-linejoin="bevel" id="Page009" fill-rule="evenodd" stroke-width="1" stroke="black">
  <g stroke-linecap="square" transform="matrix(1,0,0,1,0,0)" fill="none" stroke-linejoin="bevel" font-family="Noto Sans" font-style="normal" stroke-opacity="1" font-weight="400" stroke-width="1" font-size="35.2778" stroke="#000000"/>
  <g stroke-linecap="square" transform="matrix(1,0,0,1,0,2100)" fill="none" stroke-linejoin="bevel" font-family="Noto Sans" font-style="normal" stroke-opacity="1" font-weight="400" stroke-width="1" font-size="35.2778" stroke="#000000"/>
  <g stroke-linecap="square" transform="matrix(1,0,0,1,0,2100)" fill="none" stroke-linejoin="bevel" font-family="Noto Sans" font-style="normal" stroke-opacity="1" font-weight="400" stroke-width="1" font-size="35.2778" stroke="#000000"/>
  <g stroke-linecap="square" transform="matrix(2.82319,0,0,2.82258,0,0)" fill="none" stroke-linejoin="bevel" font-family="Noto Sans" font-style="normal" stroke-opacity="1" font-weight="400" stroke-width="1" font-size="35.2778" stroke="#000000"/>
  <g stroke-linecap="square" transform="matrix(2.82319,0,0,2.82258,0,0)" fill="none" stroke-linejoin="bevel" font-family="Noto Sans" font-style="normal" stroke-opacity="1" font-weight="400" stroke-width="1" font-size="35.2778" stroke="#000000"/>
  <g stroke-linecap="square" transform="matrix(2.82319,0,0,2.82258,0,0)" fill="none" stroke-linejoin="bevel" font-family="Noto Sans" font-style="normal" stroke-opacity="1" font-weight="400" stroke-width="1" font-size="35.2778" stroke="#000000"/>
  <g stroke-linecap="square" transform="matrix(2.82319,0,0,2.82258,0,0)" fill="none" stroke-linejoin="bevel" font-family="Noto Sans" font-style="normal" stroke-opacity="1" font-weight="400" stroke-width="1" font-size="35.2778" stroke="#000000"/>
  <g stroke-linecap="square" transform="matrix(1,0,0,1,0,0)" fill="none" stroke-linejoin="bevel" font-family="Noto Sans" font-style="normal" stroke-opacity="1" font-weight="400" stroke-width="1" font-size="35.2778" stroke="#000000"/>
  <g stroke-linecap="square" transform="matrix(2.82319,0,0,2.82258,0,0)" fill="none" stroke-linejoin="bevel" font-family="Noto Sans" font-style="normal" stroke-opacity="1" font-weight="400" stroke-width="1" font-size="35.2778" stroke="#000000"/>
  <g stroke-linecap="square" transform="matrix(1,0,0,1,1485,1050)" fill="none" stroke-linejoin="bevel" font-family="Noto Sans" font-style="normal" stroke-opacity="1" font-weight="400" stroke-width="1" font-size="35.2778" stroke="#000000"/>
  <g stroke-linecap="square" transform="matrix(1,0,0,1,1485,1050)" fill="none" stroke-linejoin="bevel" font-family="Noto Sans" font-style="normal" stroke-opacity="1" font-weight="400" stroke-width="1" font-size="35.2778" stroke="#000000"/>
  <g stroke-linecap="square" transform="matrix(1,0,0,1,1481,1325)" fill="none" stroke-linejoin="bevel" font-family="Noto Sans" font-style="normal" stroke-opacity="1" font-weight="400" stroke-width="1" font-size="35.2778" stroke="#000000"/>
  <g stroke-linecap="square" transform="matrix(0.353,0,0,0.353,1473,1382.36)" fill="none" stroke-linejoin="bevel" font-family="Noto Sans" font-style="normal" stroke-opacity="1" font-weight="400" stroke-width="1" font-size="35.2778" stroke="#000000"/>
  <g stroke-linecap="square" transform="matrix(0.353,0,0,0.353,1473,1382.36)" fill="none" stroke-linejoin="bevel" font-family="Noto Sans" font-style="normal" stroke-opacity="1" font-weight="400" stroke-width="1" font-size="35.2778" stroke="#000000"/>
  <g stroke-linecap="square" transform="matrix(0.353,0,0,0.353,1473,1382.36)" fill="none" stroke-linejoin="bevel" font-family="Noto Sans" font-style="normal" stroke-opacity="1" font-weight="400" stroke-width="1" font-size="35.2778" stroke="#000000"/>
  <g stroke-linecap="square" transform="matrix(0.353,0,0,0.353,1473,1382.36)" fill="none" stroke-linejoin="bevel" font-family="Noto Sans" font-style="normal" stroke-opacity="1" font-weight="400" stroke-width="1" font-size="35.2778" stroke="#000000"/>
  <g stroke-linecap="square" transform="matrix(1,0,0,1,0,0)" fill="none" stroke-linejoin="bevel" font-family="Noto Sans" font-style="normal" stroke-opacity="1" font-weight="400" stroke-width="1" font-size="35.2778" stroke="#000000"/>
  <g stroke-linecap="square" transform="matrix(0.353,0,0,0.353,1473,1382.36)" fill="none" stroke-linejoin="bevel" font-family="Noto Sans" font-style="normal" stroke-opacity="1" font-weight="400" stroke-width="1" font-size="35.2778" stroke="#000000"/>
  <g stroke-linecap="square" transform="matrix(0.353,0,0,0.353,1473,1382.36)" fill="none" stroke-linejoin="bevel" font-family="Noto Sans" font-style="normal" stroke-opacity="1" font-weight="400" stroke-width="1" font-size="35.2778" stroke="#000000"/>
  <g stroke-linecap="square" transform="matrix(1,0,0,1,1481,1325)" fill="none" stroke-linejoin="bevel" font-family="Noto Sans" font-style="normal" stroke-opacity="1" font-weight="400" stroke-width="1" font-size="35.2778" stroke="#000000"/>
  <g stroke-linecap="square" transform="matrix(1,0,0,1,1485,1050)" fill="none" stroke-linejoin="bevel" font-family="Noto Sans" font-style="normal" stroke-opacity="1" font-weight="400" stroke-width="1" font-size="35.2778" stroke="#000000"/>
  <g transform="matrix(1,0,0,1,1485,1050)" fill="#ffffff" font-family="Noto Sans" font-style="normal" font-weight="400" font-size="35.2778" fill-opacity="1" stroke="none">
   <path fill-rule="evenodd" d="M260,0 C260,143.594 143.594,260 0,260 C-143.594,260 -260,143.594 -260,0 C-260,-143.594 -143.594,-260 0,-260 C143.594,-260 260,-143.594 260,0 " vector-effect="non-scaling-stroke"/>
  </g>
  <g stroke-linecap="square" transform="matrix(1,0,0,1,1485,1050)" fill="none" stroke-linejoin="bevel" font-family="Noto Sans" font-style="normal" stroke-opacity="1" font-weight="400" stroke-width="1" font-size="35.2778" stroke="#000000"/>
  <g stroke-linecap="square" transform="matrix(1,0,0,1,1485,1050)" fill="none" stroke-linejoin="bevel" font-family="Noto Sans" font-style="normal" stroke-opacity="1" font-weight="400" stroke-width="1" font-size="35.2778" stroke="#000000"/>
  <g stroke-linecap="square" transform="matrix(1,0,0,1,1485,1050)" fill="none" stroke-linejoin="bevel" font-family="Noto Sans" font-style="normal" stroke-opacity="1" font-weight="400" stroke-width="1" font-size="35.2778" stroke="#000000"/>
  <g stroke-linecap="square" transform="matrix(1,0,0,1,0,0)" fill="none" stroke-linejoin="bevel" font-family="Noto Sans" font-style="normal" stroke-opacity="1" font-weight="400" stroke-width="1" font-size="35.2778" stroke="#000000"/>
  <g stroke-linecap="square" transform="matrix(1,0,0,1,1485,1050)" fill="none" stroke-linejoin="bevel" font-family="Noto Sans" font-style="normal" stroke-opacity="1" font-weight="400" stroke-width="1" font-size="35.2778" stroke="#000000"/>
  <g stroke-linecap="square" transform="matrix(1,0,0,1,1485,1050)" fill="none" stroke-linejoin="bevel" font-family="Noto Sans" font-style="normal" stroke-opacity="1" font-weight="400" stroke-width="1" font-size="35.2778" stroke="#000000"/>
  <g transform="matrix(1,0,0,1,1485,1050)" fill="#ffffff" font-family="Noto Sans" font-style="normal" font-weight="400" font-size="35.2778" fill-opacity="1" stroke="none">
   <path fill-rule="evenodd" d="M123.123,-18.856 L74.657,-96.418 L-62.943,-96.418 L-110.128,-7.67667 L-62.7943,93.8298 L54.1878,95.8717 L123.123,-18.856" vector-effect="non-scaling-stroke"/>
  </g>
  <g stroke-linecap="square" transform="matrix(1,0,0,1,1485,1050)" fill="none" stroke-linejoin="bevel" font-family="Noto Sans" font-style="normal" stroke-opacity="1" font-weight="400" stroke-width="1" font-size="35.2778" stroke="#000000"/>
  <g stroke-linecap="square" transform="matrix(1,0,0,1,1485,1050)" fill="none" stroke-linejoin="bevel" font-family="Noto Sans" font-style="normal" stroke-opacity="1" font-weight="400" stroke-width="1" font-size="35.2778" stroke="#000000"/>
  <g stroke-linecap="square" transform="matrix(1,0,0,1,1485,1050)" fill="none" stroke-linejoin="bevel" font-family="Noto Sans" font-style="normal" stroke-opacity="1" font-weight="400" stroke-width="1" font-size="35.2778" stroke="#000000"/>
  <g stroke-linecap="square" transform="matrix(1,0,0,1,0,0)" fill="none" stroke-linejoin="bevel" font-family="Noto Sans" font-style="normal" stroke-opacity="1" font-weight="400" stroke-width="1" font-size="35.2778" stroke="#000000"/>
  <g stroke-linecap="square" transform="matrix(1,0,0,1,1485,1050)" fill="none" stroke-linejoin="bevel" font-family="Noto Sans" font-style="normal" stroke-opacity="1" font-weight="400" stroke-width="1" font-size="35.2778" stroke="#000000"/>
  <g stroke-linecap="square" transform="matrix(1,0,0,1,1485,1050)" fill="none" stroke-linejoin="bevel" font-family="Noto Sans" font-style="normal" stroke-opacity="1" font-weight="400" stroke-width="1" font-size="35.2778" stroke="#000000"/>
  <g transform="matrix(1,0,0,1,1485,1050)" fill="#ffffff" font-family="Noto Sans" font-style="normal" font-weight="400" font-size="35.2778" fill-opacity="1" stroke="none">
   <path fill-rule="evenodd" d="M209.562,12.5562 C209.562,29.1247 196.13,42.5562 179.562,42.5562 C162.993,42.5562 149.562,29.1247 149.562,12.5562 C149.562,-4.01238 162.993,-17.4438 179.562,-17.4438 C196.13,-17.4438 209.562,-4.01238 209.562,12.5562 " vector-effect="non-scaling-stroke"/>
  </g>
  <g stroke-linecap="square" transform="matrix(1,0,0,1,1485,1050)" fill="none" stroke-linejoin="bevel" font-family="Noto Sans" font-style="normal" stroke-opacity="1" font-weight="400" stroke-width="1" font-size="35.2778" stroke="#000000"/>
  <g stroke-linecap="square" transform="matrix(1,0,0,1,1485,1050)" fill="none" stroke-linejoin="bevel" font-family="Noto Sans" font-style="normal" stroke-opacity="1" font-weight="400" stroke-width="1" font-size="35.2778" stroke="#000000"/>
  <g stroke-linecap="square" transform="matrix(1,0,0,1,1485,1050)" fill="none" stroke-linejoin="bevel" font-family="Noto Sans" font-style="normal" stroke-opacity="1" font-weight="400" stroke-width="1" font-size="35.2778" stroke="#000000"/>
  <g stroke-linecap="square" transform="matrix(1,0,0,1,0,0)" fill="none" stroke-linejoin="bevel" font-family="Noto Sans" font-style="normal" stroke-opacity="1" font-weight="400" stroke-width="1" font-size="35.2778" stroke="#000000"/>
  <g stroke-linecap="square" transform="matrix(1,0,0,1,1485,1050)" fill="none" stroke-linejoin="bevel" font-family="Noto Sans" font-style="normal" stroke-opacity="1" font-weight="400" stroke-width="1" font-size="35.2778" stroke="#000000"/>
  <g stroke-linecap="square" transform="matrix(1,0,0,1,1485,1050)" fill="none" stroke-linejoin="bevel" font-family="Noto Sans" font-style="normal" stroke-opacity="1" font-weight="400" stroke-width="1" font-size="35.2778" stroke="#000000"/>
  <g transform="matrix(1,0,0,1,1485,1050)" fill="#ffffff" font-family="Noto Sans" font-style="normal" font-weight="400" font-size="35.2778" fill-opacity="1" stroke="none">
   <path fill-rule="evenodd" d="M17.4438,179.562 C17.4438,196.13 4.01238,209.562 -12.5562,209.562 C-29.1247,209.562 -42.5562,196.13 -42.5562,179.562 C-42.5562,162.993 -29.1247,149.562 -12.5562,149.562 C4.01238,149.562 17.4438,162.993 17.4438,179.562 " vector-effect="non-scaling-stroke"/>
  </g>
  <g stroke-linecap="square" transform="matrix(1,0,0,1,1485,1050)" fill="none" stroke-linejoin="bevel" font-family="Noto Sans" font-style="normal" stroke-opacity="1" font-weight="400" stroke-width="1" font-size="35.2778" stroke="#000000"/>
  <g stroke-linecap="square" transform="matrix(1,0,0,1,1485,1050)" fill="none" stroke-linejoin="bevel" font-family="Noto Sans" font-style="normal" stroke-opacity="1" font-weight="400" stroke-width="1" font-size="35.2778" stroke="#000000"/>
  <g stroke-linecap="square" transform="matrix(1,0,0,1,1485,1050)" fill="none" stroke-linejoin="bevel" font-family="Noto Sans" font-style="normal" stroke-opacity="1" font-weight="400" stroke-width="1" font-size="35.2778" stroke="#000000"/>
  <g stroke-linecap="square" transform="matrix(1,0,0,1,0,0)" fill="none" stroke-linejoin="bevel" font-family="Noto Sans" font-style="normal" stroke-opacity="1" font-weight="400" stroke-width="1" font-size="35.2778" stroke="#000000"/>
  <g stroke-linecap="square" transform="matrix(1,0,0,1,1485,1050)" fill="none" stroke-linejoin="bevel" font-family="Noto Sans" font-style="normal" stroke-opacity="1" font-weight="400" stroke-width="1" font-size="35.2778" stroke="#000000"/>
  <g stroke-linecap="square" transform="matrix(1,0,0,1,1485,1050)" fill="none" stroke-linejoin="bevel" font-family="Noto Sans" font-style="normal" stroke-opacity="1" font-weight="400" stroke-width="1" font-size="35.2778" stroke="#000000"/>
  <g transform="matrix(1,0,0,1,1485,1050)" fill="#ffffff" font-family="Noto Sans" font-style="normal" font-weight="400" font-size="35.2778" fill-opacity="1" stroke="none">
   <path fill-rule="evenodd" d="M42.5562,-179.562 C42.5562,-162.993 29.1247,-149.562 12.5562,-149.562 C-4.01238,-149.562 -17.4438,-162.993 -17.4438,-179.562 C-17.4438,-196.13 -4.01238,-209.562 12.5562,-209.562 C29.1247,-209.562 42.5562,-196.13 42.5562,-179.562 " vector-effect="non-scaling-stroke"/>
  </g>
  <g stroke-linecap="square" transform="matrix(1,0,0,1,1485,1050)" fill="none" stroke-linejoin="bevel" font-family="Noto Sans" font-style="normal" stroke-opacity="1" font-weight="400" stroke-width="1" font-size="35.2778" stroke="#000000"/>
  <g stroke-linecap="square" transform="matrix(1,0,0,1,1485,1050)" fill="none" stroke-linejoin="bevel" font-family="Noto Sans" font-style="normal" stroke-opacity="1" font-weight="400" stroke-width="1" font-size="35.2778" stroke="#000000"/>
  <g stroke-linecap="square" transform="matrix(1,0,0,1,1485,1050)" fill="none" stroke-linejoin="bevel" font-family="Noto Sans" font-style="normal" stroke-opacity="1" font-weight="400" stroke-width="1" font-size="35.2778" stroke="#000000"/>
  <g stroke-linecap="square" transform="matrix(1,0,0,1,0,0)" fill="none" stroke-linejoin="bevel" font-family="Noto Sans" font-style="normal" stroke-opacity="1" font-weight="400" stroke-width="1" font-size="35.2778" stroke="#000000"/>
  <g stroke-linecap="square" transform="matrix(1,0,0,1,1485,1050)" fill="none" stroke-linejoin="bevel" font-family="Noto Sans" font-style="normal" stroke-opacity="1" font-weight="400" stroke-width="1" font-size="35.2778" stroke="#000000"/>
  <g stroke-linecap="square" transform="matrix(1,0,0,1,1485,1050)" fill="none" stroke-linejoin="bevel" font-family="Noto Sans" font-style="normal" stroke-opacity="1" font-weight="400" stroke-width="1" font-size="35.2778" stroke="#000000"/>
  <g transform="matrix(1,0,0,1,1485,1050)" fill="#ffffff" font-family="Noto Sans" font-style="normal" font-weight="400" font-size="35.2778" fill-opacity="1" stroke="none">
   <path fill-rule="evenodd" d="M-149.562,-12.5562 C-149.562,4.01238 -162.993,17.4438 -179.562,17.4438 C-196.13,17.4438 -209.562,4.01238 -209.562,-12.5562 C-209.562,-29.1247 -196.13,-42.5562 -179.562,-42.5562 C-162.993,-42.5562 -149.562,-29.1247 -149.562,-12.5562 " vector-effect="non-scaling-stroke"/>
  </g>
  <g stroke-linecap="square" transform="matrix(1,0,0,1,1485,1050)" fill="none" stroke-linejoin="bevel" font-family="Noto Sans" font-style="normal" stroke-opacity="1" font-weight="400" stroke-width="1" font-size="35.2778" stroke="#000000"/>
  <g stroke-linecap="square" transform="matrix(1,0,0,1,1485,1050)" fill="none" stroke-linejoin="bevel" font-family="Noto Sans" font-style="normal" stroke-opacity="1" font-weight="400" stroke-width="1" font-size="35.2778" stroke="#000000"/>
  <g stroke-linecap="square" transform="matrix(1,0,0,1,1485,1050)" fill="none" stroke-linejoin="bevel" font-family="Noto Sans" font-style="normal" stroke-opacity="1" font-weight="400" stroke-width="1" font-size="35.2778" stroke="#000000"/>
  <g stroke-linecap="square" transform="matrix(1,0,0,1,0,0)" fill="none" stroke-linejoin="bevel" font-family="Noto Sans" font-style="normal" stroke-opacity="1" font-weight="400" stroke-width="1" font-size="35.2778" stroke="#000000"/>
  <g stroke-linecap="square" transform="matrix(1,0,0,1,1485,1050)" fill="none" stroke-linejoin="bevel" font-family="Noto Sans" font-style="normal" stroke-opacity="1" font-weight="400" stroke-width="1" font-size="35.2778" stroke="#000000"/>
  <g stroke-linecap="square" transform="matrix(1,0,0,1,1485,1050)" fill="none" stroke-linejoin="bevel" font-family="Noto Sans" font-style="normal" stroke-opacity="1" font-weight="400" stroke-width="1" font-size="35.2778" stroke="#000000"/>
  <g stroke-linecap="round" transform="matrix(1,0,0,1,1485,1050)" fill="none" stroke-linejoin="bevel" font-family="Noto Sans" font-style="normal" stroke-opacity="1" font-weight="400" stroke-width="2" font-size="35.2778" stroke="#000000">
   <path fill-rule="evenodd" d="M260,0 C260,143.594 143.594,260 0,260 C-143.594,260 -260,143.594 -260,0 C-260,-143.594 -143.594,-260 0,-260 C143.594,-260 260,-143.594 260,0 " vector-effect="none"/>
  </g>
  <g stroke-linecap="square" transform="matrix(1,0,0,1,1485,1050)" fill="none" stroke-linejoin="bevel" font-family="Noto Sans" font-style="normal" stroke-opacity="1" font-weight="400" stroke-width="1" font-size="35.2778" stroke="#000000"/>
  <g stroke-linecap="square" transform="matrix(1,0,0,1,1485,1050)" fill="none" stroke-linejoin="bevel" font-family="Noto Sans" font-style="normal" stroke-opacity="1" font-weight="400" stroke-width="1" font-size="35.2778" stroke="#000000"/>
  <g stroke-linecap="round" transform="matrix(1,0,0,1,1485,1050)" fill="none" stroke-linejoin="bevel" font-family="Noto Sans" font-style="normal" stroke-opacity="1" font-weight="400" stroke-width="2" font-size="35.2778" stroke="#000000">
   <path fill-rule="evenodd" d="M17.4438,179.562 C17.4438,196.13 4.01238,209.562 -12.5562,209.562 C-29.1247,209.562 -42.5562,196.13 -42.5562,179.562 C-42.5562,162.993 -29.1247,149.562 -12.5562,149.562 C4.01238,149.562 17.4438,162.993 17.4438,179.562 " vector-effect="none"/>
  </g>
  <g stroke-linecap="square" transform="matrix(1,0,0,1,1485,1050)" fill="none" stroke-linejoin="bevel" font-family="Noto Sans" font-style="normal" stroke-opacity="1" font-weight="400" stroke-width="1" font-size="35.2778" stroke="#000000"/>
  <g stroke-linecap="square" transform="matrix(1,0,0,1,1485,1050)" fill="none" stroke-linejoin="bevel" font-family="Noto Sans" font-style="normal" stroke-opacity="1" font-weight="400" stroke-width="1" font-size="35.2778" stroke="#000000"/>
  <g stroke-linecap="round" transform="matrix(1,0,0,1,1485,1050)" fill="none" stroke-linejoin="bevel" font-family="Noto Sans" font-style="normal" stroke-opacity="1" font-weight="400" stroke-width="2" font-size="35.2778" stroke="#000000">
   <path fill-rule="evenodd" d="M42.5562,-179.562 C42.5562,-162.993 29.1247,-149.562 12.5562,-149.562 C-4.01238,-149.562 -17.4438,-162.993 -17.4438,-179.562 C-17.4438,-196.13 -4.01238,-209.562 12.5562,-209.562 C29.1247,-209.562 42.5562,-196.13 42.5562,-179.562 " vector-effect="none"/>
  </g>
  <g stroke-linecap="square" transform="matrix(1,0,0,1,1485,1050)" fill="none" stroke-linejoin="bevel" font-family="Noto Sans" font-style="normal" stroke-opacity="1" font-weight="400" stroke-width="1" font-size="35.2778" stroke="#000000"/>
  <g stroke-linecap="square" transform="matrix(1,0,0,1,1485,1050)" fill="none" stroke-linejoin="bevel" font-family="Noto Sans" font-style="normal" stroke-opacity="1" font-weight="400" stroke-width="1" font-size="35.2778" stroke="#000000"/>
  <g stroke-linecap="round" transform="matrix(1,0,0,1,1485,1050)" fill="none" stroke-linejoin="bevel" font-family="Noto Sans" font-style="normal" stroke-opacity="1" font-weight="400" stroke-width="2" font-size="35.2778" stroke="#000000">
   <path fill-rule="evenodd" d="M74.657,-96.418 L-62.943,-96.418" vector-effect="none"/>
  </g>
  <g stroke-linecap="square" transform="matrix(1,0,0,1,1485,1050)" fill="none" stroke-linejoin="bevel" font-family="Noto Sans" font-style="normal" stroke-opacity="1" font-weight="400" stroke-width="1" font-size="35.2778" stroke="#000000"/>
  <g stroke-linecap="square" transform="matrix(1,0,0,1,1485,1050)" fill="none" stroke-linejoin="bevel" font-family="Noto Sans" font-style="normal" stroke-opacity="1" font-weight="400" stroke-width="1" font-size="35.2778" stroke="#000000"/>
  <g stroke-linecap="round" transform="matrix(1,0,0,1,1485,1050)" fill="none" stroke-linejoin="bevel" font-family="Noto Sans" font-style="normal" stroke-opacity="1" font-weight="400" stroke-width="2" font-size="35.2778" stroke="#000000">
   <path fill-rule="evenodd" d="M123.123,-18.856 L74.657,-96.418" vector-effect="none"/>
  </g>
  <g stroke-linecap="square" transform="matrix(1,0,0,1,1485,1050)" fill="none" stroke-linejoin="bevel" font-family="Noto Sans" font-style="normal" stroke-opacity="1" font-weight="400" stroke-width="1" font-size="35.2778" stroke="#000000"/>
  <g stroke-linecap="square" transform="matrix(1,0,0,1,1485,1050)" fill="none" stroke-linejoin="bevel" font-family="Noto Sans" font-style="normal" stroke-opacity="1" font-weight="400" stroke-width="1" font-size="35.2778" stroke="#000000"/>
  <g stroke-linecap="round" transform="matrix(1,0,0,1,1485,1050)" fill="none" stroke-linejoin="bevel" font-family="Noto Sans" font-style="normal" stroke-opacity="1" font-weight="400" stroke-width="2" font-size="35.2778" stroke="#000000">
   <path fill-rule="evenodd" d="M-62.943,-96.418 L-110.128,-7.67667" vector-effect="none"/>
  </g>
  <g stroke-linecap="square" transform="matrix(1,0,0,1,1485,1050)" fill="none" stroke-linejoin="bevel" font-family="Noto Sans" font-style="normal" stroke-opacity="1" font-weight="400" stroke-width="1" font-size="35.2778" stroke="#000000"/>
  <g stroke-linecap="square" transform="matrix(1,0,0,1,1485,1050)" fill="none" stroke-linejoin="bevel" font-family="Noto Sans" font-style="normal" stroke-opacity="1" font-weight="400" stroke-width="1" font-size="35.2778" stroke="#000000"/>
  <g stroke-linecap="round" transform="matrix(1,0,0,1,1485,1050)" fill="none" stroke-linejoin="bevel" font-family="Noto Sans" font-style="normal" stroke-opacity="1" font-weight="400" stroke-width="2" font-size="35.2778" stroke="#000000">
   <path fill-rule="evenodd" d="M54.1878,95.8717 L123.123,-18.856" vector-effect="none"/>
  </g>
  <g stroke-linecap="square" transform="matrix(1,0,0,1,1485,1050)" fill="none" stroke-linejoin="bevel" font-family="Noto Sans" font-style="normal" stroke-opacity="1" font-weight="400" stroke-width="1" font-size="35.2778" stroke="#000000"/>
  <g stroke-linecap="square" transform="matrix(1,0,0,1,1485,1050)" fill="none" stroke-linejoin="bevel" font-family="Noto Sans" font-style="normal" stroke-opacity="1" font-weight="400" stroke-width="1" font-size="35.2778" stroke="#000000"/>
  <g stroke-linecap="round" transform="matrix(1,0,0,1,1485,1050)" fill="none" stroke-linejoin="bevel" font-family="Noto Sans" font-style="normal" stroke-opacity="1" font-weight="400" stroke-width="2" font-size="35.2778" stroke="#000000">
   <path fill-rule="evenodd" d="M-110.128,-7.67667 L-62.7943,93.8298" vector-effect="none"/>
  </g>
  <g stroke-linecap="square" transform="matrix(1,0,0,1,1485,1050)" fill="none" stroke-linejoin="bevel" font-family="Noto Sans" font-style="normal" stroke-opacity="1" font-weight="400" stroke-width="1" font-size="35.2778" stroke="#000000"/>
  <g stroke-linecap="square" transform="matrix(1,0,0,1,1485,1050)" fill="none" stroke-linejoin="bevel" font-family="Noto Sans" font-style="normal" stroke-opacity="1" font-weight="400" stroke-width="1" font-size="35.2778" stroke="#000000"/>
  <g stroke-linecap="round" transform="matrix(1,0,0,1,1485,1050)" fill="none" stroke-linejoin="bevel" font-family="Noto Sans" font-style="normal" stroke-opacity="1" font-weight="400" stroke-width="2" font-size="35.2778" stroke="#000000">
   <path fill-rule="evenodd" d="M-62.7943,93.8298 L54.1878,95.8717" vector-effect="none"/>
  </g>
  <g stroke-linecap="square" transform="matrix(1,0,0,1,1485,1050)" fill="none" stroke-linejoin="bevel" font-family="Noto Sans" font-style="normal" stroke-opacity="1" font-weight="400" stroke-width="1" font-size="35.2778" stroke="#000000"/>
  <g stroke-linecap="square" transform="matrix(1,0,0,1,1485,1050)" fill="none" stroke-linejoin="bevel" font-family="Noto Sans" font-style="normal" stroke-opacity="1" font-weight="400" stroke-width="1" font-size="35.2778" stroke="#000000"/>
  <g stroke-linecap="round" transform="matrix(1,0,0,1,1485,1050)" fill="none" stroke-linejoin="bevel" font-family="Noto Sans" font-style="normal" stroke-opacity="1" font-weight="400" stroke-width="2" font-size="35.2778" stroke="#000000">
   <path fill-rule="evenodd" d="M209.562,12.5562 C209.562,29.1247 196.13,42.5562 179.562,42.5562 C162.993,42.5562 149.562,29.1247 149.562,12.5562 C149.562,-4.01238 162.993,-17.4438 179.562,-17.4438 C196.13,-17.4438 209.562,-4.01238 209.562,12.5562 " vector-effect="none"/>
  </g>
  <g stroke-linecap="square" transform="matrix(1,0,0,1,1485,1050)" fill="none" stroke-linejoin="bevel" font-family="Noto Sans" font-style="normal" stroke-opacity="1" font-weight="400" stroke-width="1" font-size="35.2778" stroke="#000000"/>
  <g stroke-linecap="square" transform="matrix(1,0,0,1,1485,1050)" fill="none" stroke-linejoin="bevel" font-family="Noto Sans" font-style="normal" stroke-opacity="1" font-weight="400" stroke-width="1" font-size="35.2778" stroke="#000000"/>
  <g stroke-linecap="round" transform="matrix(1,0,0,1,1485,1050)" fill="none" stroke-linejoin="bevel" font-family="Noto Sans" font-style="normal" stroke-opacity="1" font-weight="400" stroke-width="2" font-size="35.2778" stroke="#000000">
   <path fill-rule="evenodd" d="M-149.562,-12.5562 C-149.562,4.01238 -162.993,17.4438 -179.562,17.4438 C-196.13,17.4438 -209.562,4.01238 -209.562,-12.5562 C-209.562,-29.1247 -196.13,-42.5562 -179.562,-42.5562 C-162.993,-42.5562 -149.562,-29.1247 -149.562,-12.5562 " vector-effect="none"/>
  </g>
  <g stroke-linecap="square" transform="matrix(1,0,0,1,1485,1050)" fill="none" stroke-linejoin="bevel" font-family="Noto Sans" font-style="normal" stroke-opacity="1" font-weight="400" stroke-width="1" font-size="35.2778" stroke="#000000"/>
  <g stroke-linecap="square" transform="matrix(1,0,0,1,0,0)" fill="none" stroke-linejoin="bevel" font-family="Noto Sans" font-style="normal" stroke-opacity="1" font-weight="400" stroke-width="1" font-size="35.2778" stroke="#000000"/>
 </g>
</svg>
