<?xml version='1.0' encoding='UTF-8' standalone='no'?>
<svg viewBox="0 0 2970 2100" width="297mm" baseProfile="tiny" height="210mm" xmlns="http://www.w3.org/2000/svg" xmlns:xlink="http://www.w3.org/1999/xlink" version="1.2">
 <title>FreeCAD SVG Export</title>
 <desc>Drawing page: Page003 exported from FreeCAD document: magic_crystal</desc>
 <defs/>
 <g stroke-linecap="square" fill="none" stroke-linejoin="bevel" id="Page003" fill-rule="evenodd" stroke-width="1" stroke="black">
  <g stroke-linecap="square" transform="matrix(1,0,0,1,0,0)" fill="none" stroke-linejoin="bevel" font-family="Noto Sans" font-style="normal" stroke-opacity="1" font-weight="400" stroke-width="1" font-size="35.2778" stroke="#000000"/>
  <g stroke-linecap="square" transform="matrix(1,0,0,1,0,2100)" fill="none" stroke-linejoin="bevel" font-family="Noto Sans" font-style="normal" stroke-opacity="1" font-weight="400" stroke-width="1" font-size="35.2778" stroke="#000000"/>
  <g stroke-linecap="square" transform="matrix(1,0,0,1,0,2100)" fill="none" stroke-linejoin="bevel" font-family="Noto Sans" font-style="normal" stroke-opacity="1" font-weight="400" stroke-width="1" font-size="35.2778" stroke="#000000"/>
  <g stroke-linecap="square" transform="matrix(2.82319,0,0,2.82258,0,0)" fill="none" stroke-linejoin="bevel" font-family="Noto Sans" font-style="normal" stroke-opacity="1" font-weight="400" stroke-width="1" font-size="35.2778" stroke="#000000"/>
  <g stroke-linecap="square" transform="matrix(2.82319,0,0,2.82258,0,0)" fill="none" stroke-linejoin="bevel" font-family="Noto Sans" font-style="normal" stroke-opacity="1" font-weight="400" stroke-width="1" font-size="35.2778" stroke="#000000"/>
  <g stroke-linecap="square" transform="matrix(2.82319,0,0,2.82258,0,0)" fill="none" stroke-linejoin="bevel" font-family="Noto Sans" font-style="normal" stroke-opacity="1" font-weight="400" stroke-width="1" font-size="35.2778" stroke="#000000"/>
  <g stroke-linecap="square" transform="matrix(2.82319,0,0,2.82258,0,0)" fill="none" stroke-linejoin="bevel" font-family="Noto Sans" font-style="normal" stroke-opacity="1" font-weight="400" stroke-width="1" font-size="35.2778" stroke="#000000"/>
  <g stroke-linecap="square" transform="matrix(1,0,0,1,0,0)" fill="none" stroke-linejoin="bevel" font-family="Noto Sans" font-style="normal" stroke-opacity="1" font-weight="400" stroke-width="1" font-size="35.2778" stroke="#000000"/>
  <g stroke-linecap="square" transform="matrix(2.82319,0,0,2.82258,0,0)" fill="none" stroke-linejoin="bevel" font-family="Noto Sans" font-style="normal" stroke-opacity="1" font-weight="400" stroke-width="1" font-size="35.2778" stroke="#000000"/>
  <g stroke-linecap="square" transform="matrix(1,0,0,1,1485,1050)" fill="none" stroke-linejoin="bevel" font-family="Noto Sans" font-style="normal" stroke-opacity="1" font-weight="400" stroke-width="1" font-size="35.2778" stroke="#000000"/>
  <g stroke-linecap="square" transform="matrix(1,0,0,1,1485,1050)" fill="none" stroke-linejoin="bevel" font-family="Noto Sans" font-style="normal" stroke-opacity="1" font-weight="400" stroke-width="1" font-size="35.2778" stroke="#000000"/>
  <g stroke-linecap="square" transform="matrix(1,0,0,1,1475.76,1340.98)" fill="none" stroke-linejoin="bevel" font-family="Noto Sans" font-style="normal" stroke-opacity="1" font-weight="400" stroke-width="1" font-size="35.2778" stroke="#000000"/>
  <g stroke-linecap="square" transform="matrix(0.353,0,0,0.353,1467.76,1398.34)" fill="none" stroke-linejoin="bevel" font-family="Noto Sans" font-style="normal" stroke-opacity="1" font-weight="400" stroke-width="1" font-size="35.2778" stroke="#000000"/>
  <g stroke-linecap="square" transform="matrix(0.353,0,0,0.353,1467.76,1398.34)" fill="none" stroke-linejoin="bevel" font-family="Noto Sans" font-style="normal" stroke-opacity="1" font-weight="400" stroke-width="1" font-size="35.2778" stroke="#000000"/>
  <g stroke-linecap="square" transform="matrix(0.353,0,0,0.353,1467.76,1398.34)" fill="none" stroke-linejoin="bevel" font-family="Noto Sans" font-style="normal" stroke-opacity="1" font-weight="400" stroke-width="1" font-size="35.2778" stroke="#000000"/>
  <g stroke-linecap="square" transform="matrix(0.353,0,0,0.353,1467.76,1398.34)" fill="none" stroke-linejoin="bevel" font-family="Noto Sans" font-style="normal" stroke-opacity="1" font-weight="400" stroke-width="1" font-size="35.2778" stroke="#000000"/>
  <g stroke-linecap="square" transform="matrix(1,0,0,1,0,0)" fill="none" stroke-linejoin="bevel" font-family="Noto Sans" font-style="normal" stroke-opacity="1" font-weight="400" stroke-width="1" font-size="35.2778" stroke="#000000"/>
  <g stroke-linecap="square" transform="matrix(0.353,0,0,0.353,1467.76,1398.34)" fill="none" stroke-linejoin="bevel" font-family="Noto Sans" font-style="normal" stroke-opacity="1" font-weight="400" stroke-width="1" font-size="35.2778" stroke="#000000"/>
  <g stroke-linecap="square" transform="matrix(0.353,0,0,0.353,1467.76,1398.34)" fill="none" stroke-linejoin="bevel" font-family="Noto Sans" font-style="normal" stroke-opacity="1" font-weight="400" stroke-width="1" font-size="35.2778" stroke="#000000"/>
  <g stroke-linecap="square" transform="matrix(1,0,0,1,1475.76,1340.98)" fill="none" stroke-linejoin="bevel" font-family="Noto Sans" font-style="normal" stroke-opacity="1" font-weight="400" stroke-width="1" font-size="35.2778" stroke="#000000"/>
  <g stroke-linecap="square" transform="matrix(1,0,0,1,1485,1050)" fill="none" stroke-linejoin="bevel" font-family="Noto Sans" font-style="normal" stroke-opacity="1" font-weight="400" stroke-width="1" font-size="35.2778" stroke="#000000"/>
  <g transform="matrix(1,0,0,1,1485,1050)" fill="#ffffff" font-family="Noto Sans" font-style="normal" font-weight="400" font-size="35.2778" fill-opacity="1" stroke="none">
   <path fill-rule="evenodd" d="M256.05,45.1485 C258.678,30.2427 260,15.1358 260,6.13398e-14 C260,-126.176 169.408,-234.14 45.1485,-256.05 C-96.264,-280.985 -231.115,-186.561 -256.05,-45.1485 C-280.985,96.264 -186.561,231.115 -45.1485,256.05 C96.264,280.985 231.115,186.561 256.05,45.1485 " vector-effect="non-scaling-stroke"/>
  </g>
  <g stroke-linecap="square" transform="matrix(1,0,0,1,1485,1050)" fill="none" stroke-linejoin="bevel" font-family="Noto Sans" font-style="normal" stroke-opacity="1" font-weight="400" stroke-width="1" font-size="35.2778" stroke="#000000"/>
  <g stroke-linecap="square" transform="matrix(1,0,0,1,1485,1050)" fill="none" stroke-linejoin="bevel" font-family="Noto Sans" font-style="normal" stroke-opacity="1" font-weight="400" stroke-width="1" font-size="35.2778" stroke="#000000"/>
  <g stroke-linecap="square" transform="matrix(1,0,0,1,1485,1050)" fill="none" stroke-linejoin="bevel" font-family="Noto Sans" font-style="normal" stroke-opacity="1" font-weight="400" stroke-width="1" font-size="35.2778" stroke="#000000"/>
  <g stroke-linecap="square" transform="matrix(1,0,0,1,0,0)" fill="none" stroke-linejoin="bevel" font-family="Noto Sans" font-style="normal" stroke-opacity="1" font-weight="400" stroke-width="1" font-size="35.2778" stroke="#000000"/>
  <g stroke-linecap="square" transform="matrix(1,0,0,1,1485,1050)" fill="none" stroke-linejoin="bevel" font-family="Noto Sans" font-style="normal" stroke-opacity="1" font-weight="400" stroke-width="1" font-size="35.2778" stroke="#000000"/>
  <g stroke-linecap="square" transform="matrix(1,0,0,1,1485,1050)" fill="none" stroke-linejoin="bevel" font-family="Noto Sans" font-style="normal" stroke-opacity="1" font-weight="400" stroke-width="1" font-size="35.2778" stroke="#000000"/>
  <g transform="matrix(1,0,0,1,1485,1050)" fill="#ffffff" font-family="Noto Sans" font-style="normal" font-weight="400" font-size="35.2778" fill-opacity="1" stroke="none">
   <path fill-rule="evenodd" d="M124.371,-19.3063 L75.6656,-97.2506 L-63.0344,-97.2506 L-110.876,-7.27451 L-63.2253,94.9117 L54.5068,96.9667 L124.371,-19.3063" vector-effect="non-scaling-stroke"/>
  </g>
  <g stroke-linecap="square" transform="matrix(1,0,0,1,1485,1050)" fill="none" stroke-linejoin="bevel" font-family="Noto Sans" font-style="normal" stroke-opacity="1" font-weight="400" stroke-width="1" font-size="35.2778" stroke="#000000"/>
  <g stroke-linecap="square" transform="matrix(1,0,0,1,1485,1050)" fill="none" stroke-linejoin="bevel" font-family="Noto Sans" font-style="normal" stroke-opacity="1" font-weight="400" stroke-width="1" font-size="35.2778" stroke="#000000"/>
  <g stroke-linecap="square" transform="matrix(1,0,0,1,1485,1050)" fill="none" stroke-linejoin="bevel" font-family="Noto Sans" font-style="normal" stroke-opacity="1" font-weight="400" stroke-width="1" font-size="35.2778" stroke="#000000"/>
  <g stroke-linecap="square" transform="matrix(1,0,0,1,0,0)" fill="none" stroke-linejoin="bevel" font-family="Noto Sans" font-style="normal" stroke-opacity="1" font-weight="400" stroke-width="1" font-size="35.2778" stroke="#000000"/>
  <g stroke-linecap="square" transform="matrix(1,0,0,1,1485,1050)" fill="none" stroke-linejoin="bevel" font-family="Noto Sans" font-style="normal" stroke-opacity="1" font-weight="400" stroke-width="1" font-size="35.2778" stroke="#000000"/>
  <g stroke-linecap="square" transform="matrix(1,0,0,1,1485,1050)" fill="none" stroke-linejoin="bevel" font-family="Noto Sans" font-style="normal" stroke-opacity="1" font-weight="400" stroke-width="1" font-size="35.2778" stroke="#000000"/>
  <g transform="matrix(1,0,0,1,1485,1050)" fill="#ffffff" font-family="Noto Sans" font-style="normal" font-weight="400" font-size="35.2778" fill-opacity="1" stroke="none">
   <path fill-rule="evenodd" d="M209.562,12.5562 C209.562,29.1247 196.13,42.5562 179.562,42.5562 C162.993,42.5562 149.562,29.1247 149.562,12.5562 C149.562,-4.01238 162.993,-17.4438 179.562,-17.4438 C196.13,-17.4438 209.562,-4.01238 209.562,12.5562 " vector-effect="non-scaling-stroke"/>
  </g>
  <g stroke-linecap="square" transform="matrix(1,0,0,1,1485,1050)" fill="none" stroke-linejoin="bevel" font-family="Noto Sans" font-style="normal" stroke-opacity="1" font-weight="400" stroke-width="1" font-size="35.2778" stroke="#000000"/>
  <g stroke-linecap="square" transform="matrix(1,0,0,1,1485,1050)" fill="none" stroke-linejoin="bevel" font-family="Noto Sans" font-style="normal" stroke-opacity="1" font-weight="400" stroke-width="1" font-size="35.2778" stroke="#000000"/>
  <g stroke-linecap="square" transform="matrix(1,0,0,1,1485,1050)" fill="none" stroke-linejoin="bevel" font-family="Noto Sans" font-style="normal" stroke-opacity="1" font-weight="400" stroke-width="1" font-size="35.2778" stroke="#000000"/>
  <g stroke-linecap="square" transform="matrix(1,0,0,1,0,0)" fill="none" stroke-linejoin="bevel" font-family="Noto Sans" font-style="normal" stroke-opacity="1" font-weight="400" stroke-width="1" font-size="35.2778" stroke="#000000"/>
  <g stroke-linecap="square" transform="matrix(1,0,0,1,1485,1050)" fill="none" stroke-linejoin="bevel" font-family="Noto Sans" font-style="normal" stroke-opacity="1" font-weight="400" stroke-width="1" font-size="35.2778" stroke="#000000"/>
  <g stroke-linecap="square" transform="matrix(1,0,0,1,1485,1050)" fill="none" stroke-linejoin="bevel" font-family="Noto Sans" font-style="normal" stroke-opacity="1" font-weight="400" stroke-width="1" font-size="35.2778" stroke="#000000"/>
  <g transform="matrix(1,0,0,1,1485,1050)" fill="#ffffff" font-family="Noto Sans" font-style="normal" font-weight="400" font-size="35.2778" fill-opacity="1" stroke="none">
   <path fill-rule="evenodd" d="M17.4438,179.562 C17.4438,196.13 4.01238,209.562 -12.5562,209.562 C-29.1247,209.562 -42.5562,196.13 -42.5562,179.562 C-42.5562,162.993 -29.1247,149.562 -12.5562,149.562 C4.01238,149.562 17.4438,162.993 17.4438,179.562 " vector-effect="non-scaling-stroke"/>
  </g>
  <g stroke-linecap="square" transform="matrix(1,0,0,1,1485,1050)" fill="none" stroke-linejoin="bevel" font-family="Noto Sans" font-style="normal" stroke-opacity="1" font-weight="400" stroke-width="1" font-size="35.2778" stroke="#000000"/>
  <g stroke-linecap="square" transform="matrix(1,0,0,1,1485,1050)" fill="none" stroke-linejoin="bevel" font-family="Noto Sans" font-style="normal" stroke-opacity="1" font-weight="400" stroke-width="1" font-size="35.2778" stroke="#000000"/>
  <g stroke-linecap="square" transform="matrix(1,0,0,1,1485,1050)" fill="none" stroke-linejoin="bevel" font-family="Noto Sans" font-style="normal" stroke-opacity="1" font-weight="400" stroke-width="1" font-size="35.2778" stroke="#000000"/>
  <g stroke-linecap="square" transform="matrix(1,0,0,1,0,0)" fill="none" stroke-linejoin="bevel" font-family="Noto Sans" font-style="normal" stroke-opacity="1" font-weight="400" stroke-width="1" font-size="35.2778" stroke="#000000"/>
  <g stroke-linecap="square" transform="matrix(1,0,0,1,1485,1050)" fill="none" stroke-linejoin="bevel" font-family="Noto Sans" font-style="normal" stroke-opacity="1" font-weight="400" stroke-width="1" font-size="35.2778" stroke="#000000"/>
  <g stroke-linecap="square" transform="matrix(1,0,0,1,1485,1050)" fill="none" stroke-linejoin="bevel" font-family="Noto Sans" font-style="normal" stroke-opacity="1" font-weight="400" stroke-width="1" font-size="35.2778" stroke="#000000"/>
  <g transform="matrix(1,0,0,1,1485,1050)" fill="#ffffff" font-family="Noto Sans" font-style="normal" font-weight="400" font-size="35.2778" fill-opacity="1" stroke="none">
   <path fill-rule="evenodd" d="M42.5562,-179.562 C42.5562,-162.993 29.1247,-149.562 12.5562,-149.562 C-4.01238,-149.562 -17.4438,-162.993 -17.4438,-179.562 C-17.4438,-196.13 -4.01238,-209.562 12.5562,-209.562 C29.1247,-209.562 42.5562,-196.13 42.5562,-179.562 " vector-effect="non-scaling-stroke"/>
  </g>
  <g stroke-linecap="square" transform="matrix(1,0,0,1,1485,1050)" fill="none" stroke-linejoin="bevel" font-family="Noto Sans" font-style="normal" stroke-opacity="1" font-weight="400" stroke-width="1" font-size="35.2778" stroke="#000000"/>
  <g stroke-linecap="square" transform="matrix(1,0,0,1,1485,1050)" fill="none" stroke-linejoin="bevel" font-family="Noto Sans" font-style="normal" stroke-opacity="1" font-weight="400" stroke-width="1" font-size="35.2778" stroke="#000000"/>
  <g stroke-linecap="square" transform="matrix(1,0,0,1,1485,1050)" fill="none" stroke-linejoin="bevel" font-family="Noto Sans" font-style="normal" stroke-opacity="1" font-weight="400" stroke-width="1" font-size="35.2778" stroke="#000000"/>
  <g stroke-linecap="square" transform="matrix(1,0,0,1,0,0)" fill="none" stroke-linejoin="bevel" font-family="Noto Sans" font-style="normal" stroke-opacity="1" font-weight="400" stroke-width="1" font-size="35.2778" stroke="#000000"/>
  <g stroke-linecap="square" transform="matrix(1,0,0,1,1485,1050)" fill="none" stroke-linejoin="bevel" font-family="Noto Sans" font-style="normal" stroke-opacity="1" font-weight="400" stroke-width="1" font-size="35.2778" stroke="#000000"/>
  <g stroke-linecap="square" transform="matrix(1,0,0,1,1485,1050)" fill="none" stroke-linejoin="bevel" font-family="Noto Sans" font-style="normal" stroke-opacity="1" font-weight="400" stroke-width="1" font-size="35.2778" stroke="#000000"/>
  <g transform="matrix(1,0,0,1,1485,1050)" fill="#ffffff" font-family="Noto Sans" font-style="normal" font-weight="400" font-size="35.2778" fill-opacity="1" stroke="none">
   <path fill-rule="evenodd" d="M-149.562,-12.5562 C-149.562,4.01238 -162.993,17.4438 -179.562,17.4438 C-196.13,17.4438 -209.562,4.01238 -209.562,-12.5562 C-209.562,-29.1247 -196.13,-42.5562 -179.562,-42.5562 C-162.993,-42.5562 -149.562,-29.1247 -149.562,-12.5562 " vector-effect="non-scaling-stroke"/>
  </g>
  <g stroke-linecap="square" transform="matrix(1,0,0,1,1485,1050)" fill="none" stroke-linejoin="bevel" font-family="Noto Sans" font-style="normal" stroke-opacity="1" font-weight="400" stroke-width="1" font-size="35.2778" stroke="#000000"/>
  <g stroke-linecap="square" transform="matrix(1,0,0,1,1485,1050)" fill="none" stroke-linejoin="bevel" font-family="Noto Sans" font-style="normal" stroke-opacity="1" font-weight="400" stroke-width="1" font-size="35.2778" stroke="#000000"/>
  <g stroke-linecap="square" transform="matrix(1,0,0,1,1485,1050)" fill="none" stroke-linejoin="bevel" font-family="Noto Sans" font-style="normal" stroke-opacity="1" font-weight="400" stroke-width="1" font-size="35.2778" stroke="#000000"/>
  <g stroke-linecap="square" transform="matrix(1,0,0,1,0,0)" fill="none" stroke-linejoin="bevel" font-family="Noto Sans" font-style="normal" stroke-opacity="1" font-weight="400" stroke-width="1" font-size="35.2778" stroke="#000000"/>
  <g stroke-linecap="square" transform="matrix(1,0,0,1,1485,1050)" fill="none" stroke-linejoin="bevel" font-family="Noto Sans" font-style="normal" stroke-opacity="1" font-weight="400" stroke-width="1" font-size="35.2778" stroke="#000000"/>
  <g stroke-linecap="square" transform="matrix(1,0,0,1,1485,1050)" fill="none" stroke-linejoin="bevel" font-family="Noto Sans" font-style="normal" stroke-opacity="1" font-weight="400" stroke-width="1" font-size="35.2778" stroke="#000000"/>
  <g stroke-linecap="round" transform="matrix(1,0,0,1,1485,1050)" fill="none" stroke-linejoin="bevel" font-family="Noto Sans" font-style="normal" stroke-opacity="1" font-weight="400" stroke-width="7" font-size="35.2778" stroke="#000000">
   <path fill-rule="evenodd" d="M-45.1485,256.05 C96.264,280.985 231.115,186.561 256.05,45.1485 " vector-effect="none"/>
  </g>
  <g stroke-linecap="square" transform="matrix(1,0,0,1,1485,1050)" fill="none" stroke-linejoin="bevel" font-family="Noto Sans" font-style="normal" stroke-opacity="1" font-weight="400" stroke-width="1" font-size="35.2778" stroke="#000000"/>
  <g stroke-linecap="square" transform="matrix(1,0,0,1,1485,1050)" fill="none" stroke-linejoin="bevel" font-family="Noto Sans" font-style="normal" stroke-opacity="1" font-weight="400" stroke-width="1" font-size="35.2778" stroke="#000000"/>
  <g stroke-linecap="round" transform="matrix(1,0,0,1,1485,1050)" fill="none" stroke-linejoin="bevel" font-family="Noto Sans" font-style="normal" stroke-opacity="1" font-weight="400" stroke-width="7" font-size="35.2778" stroke="#000000">
   <path fill-rule="evenodd" d="M-256.05,-45.1485 C-280.985,96.264 -186.561,231.115 -45.1485,256.05 " vector-effect="none"/>
  </g>
  <g stroke-linecap="square" transform="matrix(1,0,0,1,1485,1050)" fill="none" stroke-linejoin="bevel" font-family="Noto Sans" font-style="normal" stroke-opacity="1" font-weight="400" stroke-width="1" font-size="35.2778" stroke="#000000"/>
  <g stroke-linecap="square" transform="matrix(1,0,0,1,1485,1050)" fill="none" stroke-linejoin="bevel" font-family="Noto Sans" font-style="normal" stroke-opacity="1" font-weight="400" stroke-width="1" font-size="35.2778" stroke="#000000"/>
  <g stroke-linecap="round" transform="matrix(1,0,0,1,1485,1050)" fill="none" stroke-linejoin="bevel" font-family="Noto Sans" font-style="normal" stroke-opacity="1" font-weight="400" stroke-width="7" font-size="35.2778" stroke="#000000">
   <path fill-rule="evenodd" d="M256.05,45.1485 C258.678,30.2427 260,15.1358 260,6.13398e-14 " vector-effect="none"/>
  </g>
  <g stroke-linecap="square" transform="matrix(1,0,0,1,1485,1050)" fill="none" stroke-linejoin="bevel" font-family="Noto Sans" font-style="normal" stroke-opacity="1" font-weight="400" stroke-width="1" font-size="35.2778" stroke="#000000"/>
  <g stroke-linecap="square" transform="matrix(1,0,0,1,1485,1050)" fill="none" stroke-linejoin="bevel" font-family="Noto Sans" font-style="normal" stroke-opacity="1" font-weight="400" stroke-width="1" font-size="35.2778" stroke="#000000"/>
  <g stroke-linecap="round" transform="matrix(1,0,0,1,1485,1050)" fill="none" stroke-linejoin="bevel" font-family="Noto Sans" font-style="normal" stroke-opacity="1" font-weight="400" stroke-width="7" font-size="35.2778" stroke="#000000">
   <path fill-rule="evenodd" d="M45.1485,-256.05 C-96.264,-280.985 -231.115,-186.561 -256.05,-45.1485 " vector-effect="none"/>
  </g>
  <g stroke-linecap="square" transform="matrix(1,0,0,1,1485,1050)" fill="none" stroke-linejoin="bevel" font-family="Noto Sans" font-style="normal" stroke-opacity="1" font-weight="400" stroke-width="1" font-size="35.2778" stroke="#000000"/>
  <g stroke-linecap="square" transform="matrix(1,0,0,1,1485,1050)" fill="none" stroke-linejoin="bevel" font-family="Noto Sans" font-style="normal" stroke-opacity="1" font-weight="400" stroke-width="1" font-size="35.2778" stroke="#000000"/>
  <g stroke-linecap="round" transform="matrix(1,0,0,1,1485,1050)" fill="none" stroke-linejoin="bevel" font-family="Noto Sans" font-style="normal" stroke-opacity="1" font-weight="400" stroke-width="7" font-size="35.2778" stroke="#000000">
   <path fill-rule="evenodd" d="M260,0 C260,-126.176 169.408,-234.14 45.1485,-256.05 " vector-effect="none"/>
  </g>
  <g stroke-linecap="square" transform="matrix(1,0,0,1,1485,1050)" fill="none" stroke-linejoin="bevel" font-family="Noto Sans" font-style="normal" stroke-opacity="1" font-weight="400" stroke-width="1" font-size="35.2778" stroke="#000000"/>
  <g stroke-linecap="square" transform="matrix(1,0,0,1,1485,1050)" fill="none" stroke-linejoin="bevel" font-family="Noto Sans" font-style="normal" stroke-opacity="1" font-weight="400" stroke-width="1" font-size="35.2778" stroke="#000000"/>
  <g stroke-linecap="round" transform="matrix(1,0,0,1,1485,1050)" fill="none" stroke-linejoin="bevel" font-family="Noto Sans" font-style="normal" stroke-opacity="1" font-weight="400" stroke-width="7" font-size="35.2778" stroke="#000000">
   <path fill-rule="evenodd" d="M17.4438,179.562 C17.4438,196.13 4.01238,209.562 -12.5562,209.562 C-29.1247,209.562 -42.5562,196.13 -42.5562,179.562 C-42.5562,162.993 -29.1247,149.562 -12.5562,149.562 C4.01238,149.562 17.4438,162.993 17.4438,179.562 " vector-effect="none"/>
  </g>
  <g stroke-linecap="square" transform="matrix(1,0,0,1,1485,1050)" fill="none" stroke-linejoin="bevel" font-family="Noto Sans" font-style="normal" stroke-opacity="1" font-weight="400" stroke-width="1" font-size="35.2778" stroke="#000000"/>
  <g stroke-linecap="square" transform="matrix(1,0,0,1,1485,1050)" fill="none" stroke-linejoin="bevel" font-family="Noto Sans" font-style="normal" stroke-opacity="1" font-weight="400" stroke-width="1" font-size="35.2778" stroke="#000000"/>
  <g stroke-linecap="round" transform="matrix(1,0,0,1,1485,1050)" fill="none" stroke-linejoin="bevel" font-family="Noto Sans" font-style="normal" stroke-opacity="1" font-weight="400" stroke-width="7" font-size="35.2778" stroke="#000000">
   <path fill-rule="evenodd" d="M42.5562,-179.562 C42.5562,-162.993 29.1247,-149.562 12.5562,-149.562 C-4.01238,-149.562 -17.4438,-162.993 -17.4438,-179.562 C-17.4438,-196.13 -4.01238,-209.562 12.5562,-209.562 C29.1247,-209.562 42.5562,-196.13 42.5562,-179.562 " vector-effect="none"/>
  </g>
  <g stroke-linecap="square" transform="matrix(1,0,0,1,1485,1050)" fill="none" stroke-linejoin="bevel" font-family="Noto Sans" font-style="normal" stroke-opacity="1" font-weight="400" stroke-width="1" font-size="35.2778" stroke="#000000"/>
  <g stroke-linecap="square" transform="matrix(1,0,0,1,1485,1050)" fill="none" stroke-linejoin="bevel" font-family="Noto Sans" font-style="normal" stroke-opacity="1" font-weight="400" stroke-width="1" font-size="35.2778" stroke="#000000"/>
  <g stroke-linecap="round" transform="matrix(1,0,0,1,1485,1050)" fill="none" stroke-linejoin="bevel" font-family="Noto Sans" font-style="normal" stroke-opacity="1" font-weight="400" stroke-width="7" font-size="35.2778" stroke="#000000">
   <path fill-rule="evenodd" d="M75.6656,-97.2506 L-63.0344,-97.2506" vector-effect="none"/>
  </g>
  <g stroke-linecap="square" transform="matrix(1,0,0,1,1485,1050)" fill="none" stroke-linejoin="bevel" font-family="Noto Sans" font-style="normal" stroke-opacity="1" font-weight="400" stroke-width="1" font-size="35.2778" stroke="#000000"/>
  <g stroke-linecap="square" transform="matrix(1,0,0,1,1485,1050)" fill="none" stroke-linejoin="bevel" font-family="Noto Sans" font-style="normal" stroke-opacity="1" font-weight="400" stroke-width="1" font-size="35.2778" stroke="#000000"/>
  <g stroke-linecap="round" transform="matrix(1,0,0,1,1485,1050)" fill="none" stroke-linejoin="bevel" font-family="Noto Sans" font-style="normal" stroke-opacity="1" font-weight="400" stroke-width="7" font-size="35.2778" stroke="#000000">
   <path fill-rule="evenodd" d="M124.371,-19.3063 L75.6656,-97.2506" vector-effect="none"/>
  </g>
  <g stroke-linecap="square" transform="matrix(1,0,0,1,1485,1050)" fill="none" stroke-linejoin="bevel" font-family="Noto Sans" font-style="normal" stroke-opacity="1" font-weight="400" stroke-width="1" font-size="35.2778" stroke="#000000"/>
  <g stroke-linecap="square" transform="matrix(1,0,0,1,1485,1050)" fill="none" stroke-linejoin="bevel" font-family="Noto Sans" font-style="normal" stroke-opacity="1" font-weight="400" stroke-width="1" font-size="35.2778" stroke="#000000"/>
  <g stroke-linecap="round" transform="matrix(1,0,0,1,1485,1050)" fill="none" stroke-linejoin="bevel" font-family="Noto Sans" font-style="normal" stroke-opacity="1" font-weight="400" stroke-width="7" font-size="35.2778" stroke="#000000">
   <path fill-rule="evenodd" d="M-63.0344,-97.2506 L-110.876,-7.27451" vector-effect="none"/>
  </g>
  <g stroke-linecap="square" transform="matrix(1,0,0,1,1485,1050)" fill="none" stroke-linejoin="bevel" font-family="Noto Sans" font-style="normal" stroke-opacity="1" font-weight="400" stroke-width="1" font-size="35.2778" stroke="#000000"/>
  <g stroke-linecap="square" transform="matrix(1,0,0,1,1485,1050)" fill="none" stroke-linejoin="bevel" font-family="Noto Sans" font-style="normal" stroke-opacity="1" font-weight="400" stroke-width="1" font-size="35.2778" stroke="#000000"/>
  <g stroke-linecap="round" transform="matrix(1,0,0,1,1485,1050)" fill="none" stroke-linejoin="bevel" font-family="Noto Sans" font-style="normal" stroke-opacity="1" font-weight="400" stroke-width="7" font-size="35.2778" stroke="#000000">
   <path fill-rule="evenodd" d="M54.5068,96.9667 L124.371,-19.3063" vector-effect="none"/>
  </g>
  <g stroke-linecap="square" transform="matrix(1,0,0,1,1485,1050)" fill="none" stroke-linejoin="bevel" font-family="Noto Sans" font-style="normal" stroke-opacity="1" font-weight="400" stroke-width="1" font-size="35.2778" stroke="#000000"/>
  <g stroke-linecap="square" transform="matrix(1,0,0,1,1485,1050)" fill="none" stroke-linejoin="bevel" font-family="Noto Sans" font-style="normal" stroke-opacity="1" font-weight="400" stroke-width="1" font-size="35.2778" stroke="#000000"/>
  <g stroke-linecap="round" transform="matrix(1,0,0,1,1485,1050)" fill="none" stroke-linejoin="bevel" font-family="Noto Sans" font-style="normal" stroke-opacity="1" font-weight="400" stroke-width="7" font-size="35.2778" stroke="#000000">
   <path fill-rule="evenodd" d="M-110.876,-7.27451 L-63.2253,94.9117" vector-effect="none"/>
  </g>
  <g stroke-linecap="square" transform="matrix(1,0,0,1,1485,1050)" fill="none" stroke-linejoin="bevel" font-family="Noto Sans" font-style="normal" stroke-opacity="1" font-weight="400" stroke-width="1" font-size="35.2778" stroke="#000000"/>
  <g stroke-linecap="square" transform="matrix(1,0,0,1,1485,1050)" fill="none" stroke-linejoin="bevel" font-family="Noto Sans" font-style="normal" stroke-opacity="1" font-weight="400" stroke-width="1" font-size="35.2778" stroke="#000000"/>
  <g stroke-linecap="round" transform="matrix(1,0,0,1,1485,1050)" fill="none" stroke-linejoin="bevel" font-family="Noto Sans" font-style="normal" stroke-opacity="1" font-weight="400" stroke-width="7" font-size="35.2778" stroke="#000000">
   <path fill-rule="evenodd" d="M-63.2253,94.9117 L54.5068,96.9667" vector-effect="none"/>
  </g>
  <g stroke-linecap="square" transform="matrix(1,0,0,1,1485,1050)" fill="none" stroke-linejoin="bevel" font-family="Noto Sans" font-style="normal" stroke-opacity="1" font-weight="400" stroke-width="1" font-size="35.2778" stroke="#000000"/>
  <g stroke-linecap="square" transform="matrix(1,0,0,1,1485,1050)" fill="none" stroke-linejoin="bevel" font-family="Noto Sans" font-style="normal" stroke-opacity="1" font-weight="400" stroke-width="1" font-size="35.2778" stroke="#000000"/>
  <g stroke-linecap="round" transform="matrix(1,0,0,1,1485,1050)" fill="none" stroke-linejoin="bevel" font-family="Noto Sans" font-style="normal" stroke-opacity="1" font-weight="400" stroke-width="7" font-size="35.2778" stroke="#000000">
   <path fill-rule="evenodd" d="M209.562,12.5562 C209.562,29.1247 196.13,42.5562 179.562,42.5562 C162.993,42.5562 149.562,29.1247 149.562,12.5562 C149.562,-4.01238 162.993,-17.4438 179.562,-17.4438 C196.13,-17.4438 209.562,-4.01238 209.562,12.5562 " vector-effect="none"/>
  </g>
  <g stroke-linecap="square" transform="matrix(1,0,0,1,1485,1050)" fill="none" stroke-linejoin="bevel" font-family="Noto Sans" font-style="normal" stroke-opacity="1" font-weight="400" stroke-width="1" font-size="35.2778" stroke="#000000"/>
  <g stroke-linecap="square" transform="matrix(1,0,0,1,1485,1050)" fill="none" stroke-linejoin="bevel" font-family="Noto Sans" font-style="normal" stroke-opacity="1" font-weight="400" stroke-width="1" font-size="35.2778" stroke="#000000"/>
  <g stroke-linecap="round" transform="matrix(1,0,0,1,1485,1050)" fill="none" stroke-linejoin="bevel" font-family="Noto Sans" font-style="normal" stroke-opacity="1" font-weight="400" stroke-width="7" font-size="35.2778" stroke="#000000">
   <path fill-rule="evenodd" d="M-149.562,-12.5562 C-149.562,4.01238 -162.993,17.4438 -179.562,17.4438 C-196.13,17.4438 -209.562,4.01238 -209.562,-12.5562 C-209.562,-29.1247 -196.13,-42.5562 -179.562,-42.5562 C-162.993,-42.5562 -149.562,-29.1247 -149.562,-12.5562 " vector-effect="none"/>
  </g>
  <g stroke-linecap="square" transform="matrix(1,0,0,1,1485,1050)" fill="none" stroke-linejoin="bevel" font-family="Noto Sans" font-style="normal" stroke-opacity="1" font-weight="400" stroke-width="1" font-size="35.2778" stroke="#000000"/>
  <g stroke-linecap="square" transform="matrix(1,0,0,1,0,0)" fill="none" stroke-linejoin="bevel" font-family="Noto Sans" font-style="normal" stroke-opacity="1" font-weight="400" stroke-width="1" font-size="35.2778" stroke="#000000"/>
 </g>
</svg>
