<?xml version='1.0' encoding='UTF-8' standalone='no'?>
<svg viewBox="0 0 2970 2100" width="297mm" baseProfile="tiny" height="210mm" xmlns="http://www.w3.org/2000/svg" xmlns:xlink="http://www.w3.org/1999/xlink" version="1.2">
 <title>FreeCAD SVG Export</title>
 <desc>Drawing page: Page002 exported from FreeCAD document: magic_crystal</desc>
 <defs/>
 <g stroke-linecap="square" fill="none" stroke-linejoin="bevel" id="Page002" fill-rule="evenodd" stroke-width="1" stroke="black">
  <g stroke-linecap="square" transform="matrix(1,0,0,1,0,0)" fill="none" stroke-linejoin="bevel" font-family="Noto Sans" font-style="normal" stroke-opacity="1" font-weight="400" stroke-width="1" font-size="35.2778" stroke="#000000"/>
  <g stroke-linecap="square" transform="matrix(1,0,0,1,0,2100)" fill="none" stroke-linejoin="bevel" font-family="Noto Sans" font-style="normal" stroke-opacity="1" font-weight="400" stroke-width="1" font-size="35.2778" stroke="#000000"/>
  <g stroke-linecap="square" transform="matrix(1,0,0,1,0,2100)" fill="none" stroke-linejoin="bevel" font-family="Noto Sans" font-style="normal" stroke-opacity="1" font-weight="400" stroke-width="1" font-size="35.2778" stroke="#000000"/>
  <g stroke-linecap="square" transform="matrix(2.82319,0,0,2.82258,0,0)" fill="none" stroke-linejoin="bevel" font-family="Noto Sans" font-style="normal" stroke-opacity="1" font-weight="400" stroke-width="1" font-size="35.2778" stroke="#000000"/>
  <g stroke-linecap="square" transform="matrix(2.82319,0,0,2.82258,0,0)" fill="none" stroke-linejoin="bevel" font-family="Noto Sans" font-style="normal" stroke-opacity="1" font-weight="400" stroke-width="1" font-size="35.2778" stroke="#000000"/>
  <g stroke-linecap="square" transform="matrix(2.82319,0,0,2.82258,0,0)" fill="none" stroke-linejoin="bevel" font-family="Noto Sans" font-style="normal" stroke-opacity="1" font-weight="400" stroke-width="1" font-size="35.2778" stroke="#000000"/>
  <g stroke-linecap="square" transform="matrix(2.82319,0,0,2.82258,0,0)" fill="none" stroke-linejoin="bevel" font-family="Noto Sans" font-style="normal" stroke-opacity="1" font-weight="400" stroke-width="1" font-size="35.2778" stroke="#000000"/>
  <g stroke-linecap="square" transform="matrix(1,0,0,1,0,0)" fill="none" stroke-linejoin="bevel" font-family="Noto Sans" font-style="normal" stroke-opacity="1" font-weight="400" stroke-width="1" font-size="35.2778" stroke="#000000"/>
  <g stroke-linecap="square" transform="matrix(2.82319,0,0,2.82258,0,0)" fill="none" stroke-linejoin="bevel" font-family="Noto Sans" font-style="normal" stroke-opacity="1" font-weight="400" stroke-width="1" font-size="35.2778" stroke="#000000"/>
  <g stroke-linecap="square" transform="matrix(1,0,0,1,1485,1050)" fill="none" stroke-linejoin="bevel" font-family="Noto Sans" font-style="normal" stroke-opacity="1" font-weight="400" stroke-width="1" font-size="35.2778" stroke="#000000"/>
  <g stroke-linecap="square" transform="matrix(1,0,0,1,1485,1050)" fill="none" stroke-linejoin="bevel" font-family="Noto Sans" font-style="normal" stroke-opacity="1" font-weight="400" stroke-width="1" font-size="35.2778" stroke="#000000"/>
  <g stroke-linecap="square" transform="matrix(1,0,0,1,1481,1327.22)" fill="none" stroke-linejoin="bevel" font-family="Noto Sans" font-style="normal" stroke-opacity="1" font-weight="400" stroke-width="1" font-size="35.2778" stroke="#000000"/>
  <g stroke-linecap="square" transform="matrix(0.353,0,0,0.353,1473,1384.58)" fill="none" stroke-linejoin="bevel" font-family="Noto Sans" font-style="normal" stroke-opacity="1" font-weight="400" stroke-width="1" font-size="35.2778" stroke="#000000"/>
  <g stroke-linecap="square" transform="matrix(0.353,0,0,0.353,1473,1384.58)" fill="none" stroke-linejoin="bevel" font-family="Noto Sans" font-style="normal" stroke-opacity="1" font-weight="400" stroke-width="1" font-size="35.2778" stroke="#000000"/>
  <g stroke-linecap="square" transform="matrix(0.353,0,0,0.353,1473,1384.58)" fill="none" stroke-linejoin="bevel" font-family="Noto Sans" font-style="normal" stroke-opacity="1" font-weight="400" stroke-width="1" font-size="35.2778" stroke="#000000"/>
  <g stroke-linecap="square" transform="matrix(0.353,0,0,0.353,1473,1384.58)" fill="none" stroke-linejoin="bevel" font-family="Noto Sans" font-style="normal" stroke-opacity="1" font-weight="400" stroke-width="1" font-size="35.2778" stroke="#000000"/>
  <g stroke-linecap="square" transform="matrix(1,0,0,1,0,0)" fill="none" stroke-linejoin="bevel" font-family="Noto Sans" font-style="normal" stroke-opacity="1" font-weight="400" stroke-width="1" font-size="35.2778" stroke="#000000"/>
  <g stroke-linecap="square" transform="matrix(0.353,0,0,0.353,1473,1384.58)" fill="none" stroke-linejoin="bevel" font-family="Noto Sans" font-style="normal" stroke-opacity="1" font-weight="400" stroke-width="1" font-size="35.2778" stroke="#000000"/>
  <g stroke-linecap="square" transform="matrix(0.353,0,0,0.353,1473,1384.58)" fill="none" stroke-linejoin="bevel" font-family="Noto Sans" font-style="normal" stroke-opacity="1" font-weight="400" stroke-width="1" font-size="35.2778" stroke="#000000"/>
  <g stroke-linecap="square" transform="matrix(1,0,0,1,1481,1327.22)" fill="none" stroke-linejoin="bevel" font-family="Noto Sans" font-style="normal" stroke-opacity="1" font-weight="400" stroke-width="1" font-size="35.2778" stroke="#000000"/>
  <g stroke-linecap="square" transform="matrix(1,0,0,1,1485,1050)" fill="none" stroke-linejoin="bevel" font-family="Noto Sans" font-style="normal" stroke-opacity="1" font-weight="400" stroke-width="1" font-size="35.2778" stroke="#000000"/>
  <g transform="matrix(1,0,0,1,1485,1050)" fill="#ffffff" font-family="Noto Sans" font-style="normal" font-weight="400" font-size="35.2778" fill-opacity="1" stroke="none">
   <path fill-rule="evenodd" d="M195.103,-57.2625 C200.415,-49.6762 207.412,-43.4225 215.544,-38.9912 C245.712,-22.5522 262.016,11.3137 256.05,45.1485 C250.084,78.9833 223.181,105.231 189.209,110.36 C180.052,111.743 171.339,115.226 163.752,120.538 L57.2625,195.103 C49.6762,200.415 43.4225,207.412 38.9912,215.544 C22.5522,245.712 -11.3137,262.016 -45.1485,256.05 C-78.9833,250.084 -105.231,223.181 -110.36,189.209 C-111.743,180.052 -115.226,171.339 -120.538,163.752 L-195.103,57.2625 C-200.415,49.6762 -207.412,43.4225 -215.544,38.9912 C-245.712,22.5522 -262.016,-11.3137 -256.05,-45.1485 C-250.084,-78.9833 -223.181,-105.231 -189.209,-110.36 C-180.052,-111.743 -171.339,-115.226 -163.752,-120.538 L-57.2625,-195.103 C-49.6762,-200.415 -43.4225,-207.412 -38.9912,-215.544 C-22.5522,-245.712 11.3137,-262.016 45.1485,-256.05 C78.9833,-250.084 105.231,-223.181 110.36,-189.209 C111.743,-180.052 115.226,-171.339 120.538,-163.752 L195.103,-57.2625" vector-effect="non-scaling-stroke"/>
  </g>
  <g stroke-linecap="square" transform="matrix(1,0,0,1,1485,1050)" fill="none" stroke-linejoin="bevel" font-family="Noto Sans" font-style="normal" stroke-opacity="1" font-weight="400" stroke-width="1" font-size="35.2778" stroke="#000000"/>
  <g stroke-linecap="square" transform="matrix(1,0,0,1,1485,1050)" fill="none" stroke-linejoin="bevel" font-family="Noto Sans" font-style="normal" stroke-opacity="1" font-weight="400" stroke-width="1" font-size="35.2778" stroke="#000000"/>
  <g stroke-linecap="square" transform="matrix(1,0,0,1,1485,1050)" fill="none" stroke-linejoin="bevel" font-family="Noto Sans" font-style="normal" stroke-opacity="1" font-weight="400" stroke-width="1" font-size="35.2778" stroke="#000000"/>
  <g stroke-linecap="square" transform="matrix(1,0,0,1,0,0)" fill="none" stroke-linejoin="bevel" font-family="Noto Sans" font-style="normal" stroke-opacity="1" font-weight="400" stroke-width="1" font-size="35.2778" stroke="#000000"/>
  <g stroke-linecap="square" transform="matrix(1,0,0,1,1485,1050)" fill="none" stroke-linejoin="bevel" font-family="Noto Sans" font-style="normal" stroke-opacity="1" font-weight="400" stroke-width="1" font-size="35.2778" stroke="#000000"/>
  <g stroke-linecap="square" transform="matrix(1,0,0,1,1485,1050)" fill="none" stroke-linejoin="bevel" font-family="Noto Sans" font-style="normal" stroke-opacity="1" font-weight="400" stroke-width="1" font-size="35.2778" stroke="#000000"/>
  <g transform="matrix(1,0,0,1,1485,1050)" fill="#ffffff" font-family="Noto Sans" font-style="normal" font-weight="400" font-size="35.2778" fill-opacity="1" stroke="none">
   <path fill-rule="evenodd" d="M126.034,-19.9068 L77.0104,-98.3607 L-63.1563,-98.3607 L-65.6236,-93.7203 L-111.873,-6.73829 L-81.9673,57.3941 L-63.7999,96.3542 L54.932,98.4267 L61.3915,87.6762 L126.034,-19.9068" vector-effect="non-scaling-stroke"/>
  </g>
  <g stroke-linecap="square" transform="matrix(1,0,0,1,1485,1050)" fill="none" stroke-linejoin="bevel" font-family="Noto Sans" font-style="normal" stroke-opacity="1" font-weight="400" stroke-width="1" font-size="35.2778" stroke="#000000"/>
  <g stroke-linecap="square" transform="matrix(1,0,0,1,1485,1050)" fill="none" stroke-linejoin="bevel" font-family="Noto Sans" font-style="normal" stroke-opacity="1" font-weight="400" stroke-width="1" font-size="35.2778" stroke="#000000"/>
  <g stroke-linecap="square" transform="matrix(1,0,0,1,1485,1050)" fill="none" stroke-linejoin="bevel" font-family="Noto Sans" font-style="normal" stroke-opacity="1" font-weight="400" stroke-width="1" font-size="35.2778" stroke="#000000"/>
  <g stroke-linecap="square" transform="matrix(1,0,0,1,0,0)" fill="none" stroke-linejoin="bevel" font-family="Noto Sans" font-style="normal" stroke-opacity="1" font-weight="400" stroke-width="1" font-size="35.2778" stroke="#000000"/>
  <g stroke-linecap="square" transform="matrix(1,0,0,1,1485,1050)" fill="none" stroke-linejoin="bevel" font-family="Noto Sans" font-style="normal" stroke-opacity="1" font-weight="400" stroke-width="1" font-size="35.2778" stroke="#000000"/>
  <g stroke-linecap="square" transform="matrix(1,0,0,1,1485,1050)" fill="none" stroke-linejoin="bevel" font-family="Noto Sans" font-style="normal" stroke-opacity="1" font-weight="400" stroke-width="1" font-size="35.2778" stroke="#000000"/>
  <g transform="matrix(1,0,0,1,1485,1050)" fill="#ffffff" font-family="Noto Sans" font-style="normal" font-weight="400" font-size="35.2778" fill-opacity="1" stroke="none">
   <path fill-rule="evenodd" d="M-163.062,-12.5562 C-163.062,-3.44347 -170.449,3.94383 -179.562,3.94383 C-188.674,3.94383 -196.062,-3.44347 -196.062,-12.5562 C-196.062,-21.6689 -188.674,-29.0562 -179.562,-29.0562 C-170.449,-29.0562 -163.062,-21.6689 -163.062,-12.5562 " vector-effect="non-scaling-stroke"/>
  </g>
  <g stroke-linecap="square" transform="matrix(1,0,0,1,1485,1050)" fill="none" stroke-linejoin="bevel" font-family="Noto Sans" font-style="normal" stroke-opacity="1" font-weight="400" stroke-width="1" font-size="35.2778" stroke="#000000"/>
  <g stroke-linecap="square" transform="matrix(1,0,0,1,1485,1050)" fill="none" stroke-linejoin="bevel" font-family="Noto Sans" font-style="normal" stroke-opacity="1" font-weight="400" stroke-width="1" font-size="35.2778" stroke="#000000"/>
  <g stroke-linecap="square" transform="matrix(1,0,0,1,1485,1050)" fill="none" stroke-linejoin="bevel" font-family="Noto Sans" font-style="normal" stroke-opacity="1" font-weight="400" stroke-width="1" font-size="35.2778" stroke="#000000"/>
  <g stroke-linecap="square" transform="matrix(1,0,0,1,0,0)" fill="none" stroke-linejoin="bevel" font-family="Noto Sans" font-style="normal" stroke-opacity="1" font-weight="400" stroke-width="1" font-size="35.2778" stroke="#000000"/>
  <g stroke-linecap="square" transform="matrix(1,0,0,1,1485,1050)" fill="none" stroke-linejoin="bevel" font-family="Noto Sans" font-style="normal" stroke-opacity="1" font-weight="400" stroke-width="1" font-size="35.2778" stroke="#000000"/>
  <g stroke-linecap="square" transform="matrix(1,0,0,1,1485,1050)" fill="none" stroke-linejoin="bevel" font-family="Noto Sans" font-style="normal" stroke-opacity="1" font-weight="400" stroke-width="1" font-size="35.2778" stroke="#000000"/>
  <g transform="matrix(1,0,0,1,1485,1050)" fill="#ffffff" font-family="Noto Sans" font-style="normal" font-weight="400" font-size="35.2778" fill-opacity="1" stroke="none">
   <path fill-rule="evenodd" d="M196.062,12.5562 C196.062,21.6689 188.674,29.0562 179.562,29.0562 C170.449,29.0562 163.062,21.6689 163.062,12.5562 C163.062,3.44347 170.449,-3.94383 179.562,-3.94383 C188.674,-3.94383 196.062,3.44347 196.062,12.5562 " vector-effect="non-scaling-stroke"/>
  </g>
  <g stroke-linecap="square" transform="matrix(1,0,0,1,1485,1050)" fill="none" stroke-linejoin="bevel" font-family="Noto Sans" font-style="normal" stroke-opacity="1" font-weight="400" stroke-width="1" font-size="35.2778" stroke="#000000"/>
  <g stroke-linecap="square" transform="matrix(1,0,0,1,1485,1050)" fill="none" stroke-linejoin="bevel" font-family="Noto Sans" font-style="normal" stroke-opacity="1" font-weight="400" stroke-width="1" font-size="35.2778" stroke="#000000"/>
  <g stroke-linecap="square" transform="matrix(1,0,0,1,1485,1050)" fill="none" stroke-linejoin="bevel" font-family="Noto Sans" font-style="normal" stroke-opacity="1" font-weight="400" stroke-width="1" font-size="35.2778" stroke="#000000"/>
  <g stroke-linecap="square" transform="matrix(1,0,0,1,0,0)" fill="none" stroke-linejoin="bevel" font-family="Noto Sans" font-style="normal" stroke-opacity="1" font-weight="400" stroke-width="1" font-size="35.2778" stroke="#000000"/>
  <g stroke-linecap="square" transform="matrix(1,0,0,1,1485,1050)" fill="none" stroke-linejoin="bevel" font-family="Noto Sans" font-style="normal" stroke-opacity="1" font-weight="400" stroke-width="1" font-size="35.2778" stroke="#000000"/>
  <g stroke-linecap="square" transform="matrix(1,0,0,1,1485,1050)" fill="none" stroke-linejoin="bevel" font-family="Noto Sans" font-style="normal" stroke-opacity="1" font-weight="400" stroke-width="1" font-size="35.2778" stroke="#000000"/>
  <g transform="matrix(1,0,0,1,1485,1050)" fill="#ffffff" font-family="Noto Sans" font-style="normal" font-weight="400" font-size="35.2778" fill-opacity="1" stroke="none">
   <path fill-rule="evenodd" d="M3.94383,179.562 C3.94383,188.674 -3.44347,196.062 -12.5562,196.062 C-21.6689,196.062 -29.0562,188.674 -29.0562,179.562 C-29.0562,170.449 -21.6689,163.062 -12.5562,163.062 C-3.44347,163.062 3.94383,170.449 3.94383,179.562 " vector-effect="non-scaling-stroke"/>
  </g>
  <g stroke-linecap="square" transform="matrix(1,0,0,1,1485,1050)" fill="none" stroke-linejoin="bevel" font-family="Noto Sans" font-style="normal" stroke-opacity="1" font-weight="400" stroke-width="1" font-size="35.2778" stroke="#000000"/>
  <g stroke-linecap="square" transform="matrix(1,0,0,1,1485,1050)" fill="none" stroke-linejoin="bevel" font-family="Noto Sans" font-style="normal" stroke-opacity="1" font-weight="400" stroke-width="1" font-size="35.2778" stroke="#000000"/>
  <g stroke-linecap="square" transform="matrix(1,0,0,1,1485,1050)" fill="none" stroke-linejoin="bevel" font-family="Noto Sans" font-style="normal" stroke-opacity="1" font-weight="400" stroke-width="1" font-size="35.2778" stroke="#000000"/>
  <g stroke-linecap="square" transform="matrix(1,0,0,1,0,0)" fill="none" stroke-linejoin="bevel" font-family="Noto Sans" font-style="normal" stroke-opacity="1" font-weight="400" stroke-width="1" font-size="35.2778" stroke="#000000"/>
  <g stroke-linecap="square" transform="matrix(1,0,0,1,1485,1050)" fill="none" stroke-linejoin="bevel" font-family="Noto Sans" font-style="normal" stroke-opacity="1" font-weight="400" stroke-width="1" font-size="35.2778" stroke="#000000"/>
  <g stroke-linecap="square" transform="matrix(1,0,0,1,1485,1050)" fill="none" stroke-linejoin="bevel" font-family="Noto Sans" font-style="normal" stroke-opacity="1" font-weight="400" stroke-width="1" font-size="35.2778" stroke="#000000"/>
  <g transform="matrix(1,0,0,1,1485,1050)" fill="#ffffff" font-family="Noto Sans" font-style="normal" font-weight="400" font-size="35.2778" fill-opacity="1" stroke="none">
   <path fill-rule="evenodd" d="M29.0562,-179.562 C29.0562,-170.449 21.6689,-163.062 12.5562,-163.062 C3.44347,-163.062 -3.94383,-170.449 -3.94383,-179.562 C-3.94383,-188.674 3.44347,-196.062 12.5562,-196.062 C21.6689,-196.062 29.0562,-188.674 29.0562,-179.562 " vector-effect="non-scaling-stroke"/>
  </g>
  <g stroke-linecap="square" transform="matrix(1,0,0,1,1485,1050)" fill="none" stroke-linejoin="bevel" font-family="Noto Sans" font-style="normal" stroke-opacity="1" font-weight="400" stroke-width="1" font-size="35.2778" stroke="#000000"/>
  <g stroke-linecap="square" transform="matrix(1,0,0,1,1485,1050)" fill="none" stroke-linejoin="bevel" font-family="Noto Sans" font-style="normal" stroke-opacity="1" font-weight="400" stroke-width="1" font-size="35.2778" stroke="#000000"/>
  <g stroke-linecap="square" transform="matrix(1,0,0,1,1485,1050)" fill="none" stroke-linejoin="bevel" font-family="Noto Sans" font-style="normal" stroke-opacity="1" font-weight="400" stroke-width="1" font-size="35.2778" stroke="#000000"/>
  <g stroke-linecap="square" transform="matrix(1,0,0,1,0,0)" fill="none" stroke-linejoin="bevel" font-family="Noto Sans" font-style="normal" stroke-opacity="1" font-weight="400" stroke-width="1" font-size="35.2778" stroke="#000000"/>
  <g stroke-linecap="square" transform="matrix(1,0,0,1,1485,1050)" fill="none" stroke-linejoin="bevel" font-family="Noto Sans" font-style="normal" stroke-opacity="1" font-weight="400" stroke-width="1" font-size="35.2778" stroke="#000000"/>
  <g stroke-linecap="square" transform="matrix(1,0,0,1,1485,1050)" fill="none" stroke-linejoin="bevel" font-family="Noto Sans" font-style="normal" stroke-opacity="1" font-weight="400" stroke-width="1" font-size="35.2778" stroke="#000000"/>
  <g stroke-linecap="round" transform="matrix(1,0,0,1,1485,1050)" fill="none" stroke-linejoin="bevel" font-family="Noto Sans" font-style="normal" stroke-opacity="1" font-weight="400" stroke-width="7" font-size="35.2778" stroke="#000000">
   <path fill-rule="evenodd" d="M189.209,110.36 C180.052,111.743 171.339,115.226 163.752,120.538 " vector-effect="none"/>
  </g>
  <g stroke-linecap="square" transform="matrix(1,0,0,1,1485,1050)" fill="none" stroke-linejoin="bevel" font-family="Noto Sans" font-style="normal" stroke-opacity="1" font-weight="400" stroke-width="1" font-size="35.2778" stroke="#000000"/>
  <g stroke-linecap="square" transform="matrix(1,0,0,1,1485,1050)" fill="none" stroke-linejoin="bevel" font-family="Noto Sans" font-style="normal" stroke-opacity="1" font-weight="400" stroke-width="1" font-size="35.2778" stroke="#000000"/>
  <g stroke-linecap="round" transform="matrix(1,0,0,1,1485,1050)" fill="none" stroke-linejoin="bevel" font-family="Noto Sans" font-style="normal" stroke-opacity="1" font-weight="400" stroke-width="7" font-size="35.2778" stroke="#000000">
   <path fill-rule="evenodd" d="M189.209,110.36 C223.181,105.231 250.084,78.9833 256.05,45.1485 C262.016,11.3137 245.712,-22.5522 215.544,-38.9912 " vector-effect="none"/>
  </g>
  <g stroke-linecap="square" transform="matrix(1,0,0,1,1485,1050)" fill="none" stroke-linejoin="bevel" font-family="Noto Sans" font-style="normal" stroke-opacity="1" font-weight="400" stroke-width="1" font-size="35.2778" stroke="#000000"/>
  <g stroke-linecap="square" transform="matrix(1,0,0,1,1485,1050)" fill="none" stroke-linejoin="bevel" font-family="Noto Sans" font-style="normal" stroke-opacity="1" font-weight="400" stroke-width="1" font-size="35.2778" stroke="#000000"/>
  <g stroke-linecap="round" transform="matrix(1,0,0,1,1485,1050)" fill="none" stroke-linejoin="bevel" font-family="Noto Sans" font-style="normal" stroke-opacity="1" font-weight="400" stroke-width="7" font-size="35.2778" stroke="#000000">
   <path fill-rule="evenodd" d="M195.103,-57.2625 C200.415,-49.6762 207.412,-43.4225 215.544,-38.9912 " vector-effect="none"/>
  </g>
  <g stroke-linecap="square" transform="matrix(1,0,0,1,1485,1050)" fill="none" stroke-linejoin="bevel" font-family="Noto Sans" font-style="normal" stroke-opacity="1" font-weight="400" stroke-width="1" font-size="35.2778" stroke="#000000"/>
  <g stroke-linecap="square" transform="matrix(1,0,0,1,1485,1050)" fill="none" stroke-linejoin="bevel" font-family="Noto Sans" font-style="normal" stroke-opacity="1" font-weight="400" stroke-width="1" font-size="35.2778" stroke="#000000"/>
  <g stroke-linecap="round" transform="matrix(1,0,0,1,1485,1050)" fill="none" stroke-linejoin="bevel" font-family="Noto Sans" font-style="normal" stroke-opacity="1" font-weight="400" stroke-width="7" font-size="35.2778" stroke="#000000">
   <path fill-rule="evenodd" d="M57.2625,195.103 L163.752,120.538" vector-effect="none"/>
  </g>
  <g stroke-linecap="square" transform="matrix(1,0,0,1,1485,1050)" fill="none" stroke-linejoin="bevel" font-family="Noto Sans" font-style="normal" stroke-opacity="1" font-weight="400" stroke-width="1" font-size="35.2778" stroke="#000000"/>
  <g stroke-linecap="square" transform="matrix(1,0,0,1,1485,1050)" fill="none" stroke-linejoin="bevel" font-family="Noto Sans" font-style="normal" stroke-opacity="1" font-weight="400" stroke-width="1" font-size="35.2778" stroke="#000000"/>
  <g stroke-linecap="round" transform="matrix(1,0,0,1,1485,1050)" fill="none" stroke-linejoin="bevel" font-family="Noto Sans" font-style="normal" stroke-opacity="1" font-weight="400" stroke-width="7" font-size="35.2778" stroke="#000000">
   <path fill-rule="evenodd" d="M57.2625,195.103 C49.6762,200.415 43.4225,207.412 38.9912,215.544 " vector-effect="none"/>
  </g>
  <g stroke-linecap="square" transform="matrix(1,0,0,1,1485,1050)" fill="none" stroke-linejoin="bevel" font-family="Noto Sans" font-style="normal" stroke-opacity="1" font-weight="400" stroke-width="1" font-size="35.2778" stroke="#000000"/>
  <g stroke-linecap="square" transform="matrix(1,0,0,1,1485,1050)" fill="none" stroke-linejoin="bevel" font-family="Noto Sans" font-style="normal" stroke-opacity="1" font-weight="400" stroke-width="1" font-size="35.2778" stroke="#000000"/>
  <g stroke-linecap="round" transform="matrix(1,0,0,1,1485,1050)" fill="none" stroke-linejoin="bevel" font-family="Noto Sans" font-style="normal" stroke-opacity="1" font-weight="400" stroke-width="7" font-size="35.2778" stroke="#000000">
   <path fill-rule="evenodd" d="M-110.36,189.209 C-105.231,223.181 -78.9833,250.084 -45.1485,256.05 C-11.3137,262.016 22.5522,245.712 38.9912,215.544 " vector-effect="none"/>
  </g>
  <g stroke-linecap="square" transform="matrix(1,0,0,1,1485,1050)" fill="none" stroke-linejoin="bevel" font-family="Noto Sans" font-style="normal" stroke-opacity="1" font-weight="400" stroke-width="1" font-size="35.2778" stroke="#000000"/>
  <g stroke-linecap="square" transform="matrix(1,0,0,1,1485,1050)" fill="none" stroke-linejoin="bevel" font-family="Noto Sans" font-style="normal" stroke-opacity="1" font-weight="400" stroke-width="1" font-size="35.2778" stroke="#000000"/>
  <g stroke-linecap="round" transform="matrix(1,0,0,1,1485,1050)" fill="none" stroke-linejoin="bevel" font-family="Noto Sans" font-style="normal" stroke-opacity="1" font-weight="400" stroke-width="7" font-size="35.2778" stroke="#000000">
   <path fill-rule="evenodd" d="M-110.36,189.209 C-111.743,180.052 -115.226,171.339 -120.538,163.752 " vector-effect="none"/>
  </g>
  <g stroke-linecap="square" transform="matrix(1,0,0,1,1485,1050)" fill="none" stroke-linejoin="bevel" font-family="Noto Sans" font-style="normal" stroke-opacity="1" font-weight="400" stroke-width="1" font-size="35.2778" stroke="#000000"/>
  <g stroke-linecap="square" transform="matrix(1,0,0,1,1485,1050)" fill="none" stroke-linejoin="bevel" font-family="Noto Sans" font-style="normal" stroke-opacity="1" font-weight="400" stroke-width="1" font-size="35.2778" stroke="#000000"/>
  <g stroke-linecap="round" transform="matrix(1,0,0,1,1485,1050)" fill="none" stroke-linejoin="bevel" font-family="Noto Sans" font-style="normal" stroke-opacity="1" font-weight="400" stroke-width="7" font-size="35.2778" stroke="#000000">
   <path fill-rule="evenodd" d="M-195.103,57.2625 C-200.415,49.6762 -207.412,43.4225 -215.544,38.9912 " vector-effect="none"/>
  </g>
  <g stroke-linecap="square" transform="matrix(1,0,0,1,1485,1050)" fill="none" stroke-linejoin="bevel" font-family="Noto Sans" font-style="normal" stroke-opacity="1" font-weight="400" stroke-width="1" font-size="35.2778" stroke="#000000"/>
  <g stroke-linecap="square" transform="matrix(1,0,0,1,1485,1050)" fill="none" stroke-linejoin="bevel" font-family="Noto Sans" font-style="normal" stroke-opacity="1" font-weight="400" stroke-width="1" font-size="35.2778" stroke="#000000"/>
  <g stroke-linecap="round" transform="matrix(1,0,0,1,1485,1050)" fill="none" stroke-linejoin="bevel" font-family="Noto Sans" font-style="normal" stroke-opacity="1" font-weight="400" stroke-width="7" font-size="35.2778" stroke="#000000">
   <path fill-rule="evenodd" d="M-189.209,-110.36 C-223.181,-105.231 -250.084,-78.9833 -256.05,-45.1485 C-262.016,-11.3137 -245.712,22.5522 -215.544,38.9912 " vector-effect="none"/>
  </g>
  <g stroke-linecap="square" transform="matrix(1,0,0,1,1485,1050)" fill="none" stroke-linejoin="bevel" font-family="Noto Sans" font-style="normal" stroke-opacity="1" font-weight="400" stroke-width="1" font-size="35.2778" stroke="#000000"/>
  <g stroke-linecap="square" transform="matrix(1,0,0,1,1485,1050)" fill="none" stroke-linejoin="bevel" font-family="Noto Sans" font-style="normal" stroke-opacity="1" font-weight="400" stroke-width="1" font-size="35.2778" stroke="#000000"/>
  <g stroke-linecap="round" transform="matrix(1,0,0,1,1485,1050)" fill="none" stroke-linejoin="bevel" font-family="Noto Sans" font-style="normal" stroke-opacity="1" font-weight="400" stroke-width="7" font-size="35.2778" stroke="#000000">
   <path fill-rule="evenodd" d="M-189.209,-110.36 C-180.052,-111.743 -171.339,-115.226 -163.752,-120.538 " vector-effect="none"/>
  </g>
  <g stroke-linecap="square" transform="matrix(1,0,0,1,1485,1050)" fill="none" stroke-linejoin="bevel" font-family="Noto Sans" font-style="normal" stroke-opacity="1" font-weight="400" stroke-width="1" font-size="35.2778" stroke="#000000"/>
  <g stroke-linecap="square" transform="matrix(1,0,0,1,1485,1050)" fill="none" stroke-linejoin="bevel" font-family="Noto Sans" font-style="normal" stroke-opacity="1" font-weight="400" stroke-width="1" font-size="35.2778" stroke="#000000"/>
  <g stroke-linecap="round" transform="matrix(1,0,0,1,1485,1050)" fill="none" stroke-linejoin="bevel" font-family="Noto Sans" font-style="normal" stroke-opacity="1" font-weight="400" stroke-width="7" font-size="35.2778" stroke="#000000">
   <path fill-rule="evenodd" d="M-57.2625,-195.103 C-49.6762,-200.415 -43.4225,-207.412 -38.9912,-215.544 " vector-effect="none"/>
  </g>
  <g stroke-linecap="square" transform="matrix(1,0,0,1,1485,1050)" fill="none" stroke-linejoin="bevel" font-family="Noto Sans" font-style="normal" stroke-opacity="1" font-weight="400" stroke-width="1" font-size="35.2778" stroke="#000000"/>
  <g stroke-linecap="square" transform="matrix(1,0,0,1,1485,1050)" fill="none" stroke-linejoin="bevel" font-family="Noto Sans" font-style="normal" stroke-opacity="1" font-weight="400" stroke-width="1" font-size="35.2778" stroke="#000000"/>
  <g stroke-linecap="round" transform="matrix(1,0,0,1,1485,1050)" fill="none" stroke-linejoin="bevel" font-family="Noto Sans" font-style="normal" stroke-opacity="1" font-weight="400" stroke-width="7" font-size="35.2778" stroke="#000000">
   <path fill-rule="evenodd" d="M110.36,-189.209 C105.231,-223.181 78.9833,-250.084 45.1485,-256.05 C11.3137,-262.016 -22.5522,-245.712 -38.9912,-215.544 " vector-effect="none"/>
  </g>
  <g stroke-linecap="square" transform="matrix(1,0,0,1,1485,1050)" fill="none" stroke-linejoin="bevel" font-family="Noto Sans" font-style="normal" stroke-opacity="1" font-weight="400" stroke-width="1" font-size="35.2778" stroke="#000000"/>
  <g stroke-linecap="square" transform="matrix(1,0,0,1,1485,1050)" fill="none" stroke-linejoin="bevel" font-family="Noto Sans" font-style="normal" stroke-opacity="1" font-weight="400" stroke-width="1" font-size="35.2778" stroke="#000000"/>
  <g stroke-linecap="round" transform="matrix(1,0,0,1,1485,1050)" fill="none" stroke-linejoin="bevel" font-family="Noto Sans" font-style="normal" stroke-opacity="1" font-weight="400" stroke-width="7" font-size="35.2778" stroke="#000000">
   <path fill-rule="evenodd" d="M110.36,-189.209 C111.743,-180.052 115.226,-171.339 120.538,-163.752 " vector-effect="none"/>
  </g>
  <g stroke-linecap="square" transform="matrix(1,0,0,1,1485,1050)" fill="none" stroke-linejoin="bevel" font-family="Noto Sans" font-style="normal" stroke-opacity="1" font-weight="400" stroke-width="1" font-size="35.2778" stroke="#000000"/>
  <g stroke-linecap="square" transform="matrix(1,0,0,1,1485,1050)" fill="none" stroke-linejoin="bevel" font-family="Noto Sans" font-style="normal" stroke-opacity="1" font-weight="400" stroke-width="1" font-size="35.2778" stroke="#000000"/>
  <g stroke-linecap="round" transform="matrix(1,0,0,1,1485,1050)" fill="none" stroke-linejoin="bevel" font-family="Noto Sans" font-style="normal" stroke-opacity="1" font-weight="400" stroke-width="7" font-size="35.2778" stroke="#000000">
   <path fill-rule="evenodd" d="M61.3915,87.6762 L126.034,-19.9068" vector-effect="none"/>
  </g>
  <g stroke-linecap="square" transform="matrix(1,0,0,1,1485,1050)" fill="none" stroke-linejoin="bevel" font-family="Noto Sans" font-style="normal" stroke-opacity="1" font-weight="400" stroke-width="1" font-size="35.2778" stroke="#000000"/>
  <g stroke-linecap="square" transform="matrix(1,0,0,1,1485,1050)" fill="none" stroke-linejoin="bevel" font-family="Noto Sans" font-style="normal" stroke-opacity="1" font-weight="400" stroke-width="1" font-size="35.2778" stroke="#000000"/>
  <g stroke-linecap="round" transform="matrix(1,0,0,1,1485,1050)" fill="none" stroke-linejoin="bevel" font-family="Noto Sans" font-style="normal" stroke-opacity="1" font-weight="400" stroke-width="7" font-size="35.2778" stroke="#000000">
   <path fill-rule="evenodd" d="M54.932,98.4267 L61.3915,87.6762" vector-effect="none"/>
  </g>
  <g stroke-linecap="square" transform="matrix(1,0,0,1,1485,1050)" fill="none" stroke-linejoin="bevel" font-family="Noto Sans" font-style="normal" stroke-opacity="1" font-weight="400" stroke-width="1" font-size="35.2778" stroke="#000000"/>
  <g stroke-linecap="square" transform="matrix(1,0,0,1,1485,1050)" fill="none" stroke-linejoin="bevel" font-family="Noto Sans" font-style="normal" stroke-opacity="1" font-weight="400" stroke-width="1" font-size="35.2778" stroke="#000000"/>
  <g stroke-linecap="round" transform="matrix(1,0,0,1,1485,1050)" fill="none" stroke-linejoin="bevel" font-family="Noto Sans" font-style="normal" stroke-opacity="1" font-weight="400" stroke-width="7" font-size="35.2778" stroke="#000000">
   <path fill-rule="evenodd" d="M126.034,-19.9068 L77.0104,-98.3607" vector-effect="none"/>
  </g>
  <g stroke-linecap="square" transform="matrix(1,0,0,1,1485,1050)" fill="none" stroke-linejoin="bevel" font-family="Noto Sans" font-style="normal" stroke-opacity="1" font-weight="400" stroke-width="1" font-size="35.2778" stroke="#000000"/>
  <g stroke-linecap="square" transform="matrix(1,0,0,1,1485,1050)" fill="none" stroke-linejoin="bevel" font-family="Noto Sans" font-style="normal" stroke-opacity="1" font-weight="400" stroke-width="1" font-size="35.2778" stroke="#000000"/>
  <g stroke-linecap="round" transform="matrix(1,0,0,1,1485,1050)" fill="none" stroke-linejoin="bevel" font-family="Noto Sans" font-style="normal" stroke-opacity="1" font-weight="400" stroke-width="7" font-size="35.2778" stroke="#000000">
   <path fill-rule="evenodd" d="M-63.7999,96.3542 L54.932,98.4267" vector-effect="none"/>
  </g>
  <g stroke-linecap="square" transform="matrix(1,0,0,1,1485,1050)" fill="none" stroke-linejoin="bevel" font-family="Noto Sans" font-style="normal" stroke-opacity="1" font-weight="400" stroke-width="1" font-size="35.2778" stroke="#000000"/>
  <g stroke-linecap="square" transform="matrix(1,0,0,1,1485,1050)" fill="none" stroke-linejoin="bevel" font-family="Noto Sans" font-style="normal" stroke-opacity="1" font-weight="400" stroke-width="1" font-size="35.2778" stroke="#000000"/>
  <g stroke-linecap="round" transform="matrix(1,0,0,1,1485,1050)" fill="none" stroke-linejoin="bevel" font-family="Noto Sans" font-style="normal" stroke-opacity="1" font-weight="400" stroke-width="7" font-size="35.2778" stroke="#000000">
   <path fill-rule="evenodd" d="M-81.9673,57.3941 L-63.7999,96.3542" vector-effect="none"/>
  </g>
  <g stroke-linecap="square" transform="matrix(1,0,0,1,1485,1050)" fill="none" stroke-linejoin="bevel" font-family="Noto Sans" font-style="normal" stroke-opacity="1" font-weight="400" stroke-width="1" font-size="35.2778" stroke="#000000"/>
  <g stroke-linecap="square" transform="matrix(1,0,0,1,1485,1050)" fill="none" stroke-linejoin="bevel" font-family="Noto Sans" font-style="normal" stroke-opacity="1" font-weight="400" stroke-width="1" font-size="35.2778" stroke="#000000"/>
  <g stroke-linecap="round" transform="matrix(1,0,0,1,1485,1050)" fill="none" stroke-linejoin="bevel" font-family="Noto Sans" font-style="normal" stroke-opacity="1" font-weight="400" stroke-width="7" font-size="35.2778" stroke="#000000">
   <path fill-rule="evenodd" d="M-111.873,-6.73829 L-81.9673,57.3941" vector-effect="none"/>
  </g>
  <g stroke-linecap="square" transform="matrix(1,0,0,1,1485,1050)" fill="none" stroke-linejoin="bevel" font-family="Noto Sans" font-style="normal" stroke-opacity="1" font-weight="400" stroke-width="1" font-size="35.2778" stroke="#000000"/>
  <g stroke-linecap="square" transform="matrix(1,0,0,1,1485,1050)" fill="none" stroke-linejoin="bevel" font-family="Noto Sans" font-style="normal" stroke-opacity="1" font-weight="400" stroke-width="1" font-size="35.2778" stroke="#000000"/>
  <g stroke-linecap="round" transform="matrix(1,0,0,1,1485,1050)" fill="none" stroke-linejoin="bevel" font-family="Noto Sans" font-style="normal" stroke-opacity="1" font-weight="400" stroke-width="7" font-size="35.2778" stroke="#000000">
   <path fill-rule="evenodd" d="M77.0104,-98.3607 L-63.1563,-98.3607" vector-effect="none"/>
  </g>
  <g stroke-linecap="square" transform="matrix(1,0,0,1,1485,1050)" fill="none" stroke-linejoin="bevel" font-family="Noto Sans" font-style="normal" stroke-opacity="1" font-weight="400" stroke-width="1" font-size="35.2778" stroke="#000000"/>
  <g stroke-linecap="square" transform="matrix(1,0,0,1,1485,1050)" fill="none" stroke-linejoin="bevel" font-family="Noto Sans" font-style="normal" stroke-opacity="1" font-weight="400" stroke-width="1" font-size="35.2778" stroke="#000000"/>
  <g stroke-linecap="round" transform="matrix(1,0,0,1,1485,1050)" fill="none" stroke-linejoin="bevel" font-family="Noto Sans" font-style="normal" stroke-opacity="1" font-weight="400" stroke-width="7" font-size="35.2778" stroke="#000000">
   <path fill-rule="evenodd" d="M-65.6236,-93.7203 L-111.873,-6.73829" vector-effect="none"/>
  </g>
  <g stroke-linecap="square" transform="matrix(1,0,0,1,1485,1050)" fill="none" stroke-linejoin="bevel" font-family="Noto Sans" font-style="normal" stroke-opacity="1" font-weight="400" stroke-width="1" font-size="35.2778" stroke="#000000"/>
  <g stroke-linecap="square" transform="matrix(1,0,0,1,1485,1050)" fill="none" stroke-linejoin="bevel" font-family="Noto Sans" font-style="normal" stroke-opacity="1" font-weight="400" stroke-width="1" font-size="35.2778" stroke="#000000"/>
  <g stroke-linecap="round" transform="matrix(1,0,0,1,1485,1050)" fill="none" stroke-linejoin="bevel" font-family="Noto Sans" font-style="normal" stroke-opacity="1" font-weight="400" stroke-width="7" font-size="35.2778" stroke="#000000">
   <path fill-rule="evenodd" d="M-63.1563,-98.3607 L-65.6236,-93.7203" vector-effect="none"/>
  </g>
  <g stroke-linecap="square" transform="matrix(1,0,0,1,1485,1050)" fill="none" stroke-linejoin="bevel" font-family="Noto Sans" font-style="normal" stroke-opacity="1" font-weight="400" stroke-width="1" font-size="35.2778" stroke="#000000"/>
  <g stroke-linecap="square" transform="matrix(1,0,0,1,1485,1050)" fill="none" stroke-linejoin="bevel" font-family="Noto Sans" font-style="normal" stroke-opacity="1" font-weight="400" stroke-width="1" font-size="35.2778" stroke="#000000"/>
  <g stroke-linecap="round" transform="matrix(1,0,0,1,1485,1050)" fill="none" stroke-linejoin="bevel" font-family="Noto Sans" font-style="normal" stroke-opacity="1" font-weight="400" stroke-width="7" font-size="35.2778" stroke="#000000">
   <path fill-rule="evenodd" d="M196.062,12.5562 C196.062,21.6689 188.674,29.0562 179.562,29.0562 C170.449,29.0562 163.062,21.6689 163.062,12.5562 C163.062,3.44347 170.449,-3.94383 179.562,-3.94383 C188.674,-3.94383 196.062,3.44347 196.062,12.5562 " vector-effect="none"/>
  </g>
  <g stroke-linecap="square" transform="matrix(1,0,0,1,1485,1050)" fill="none" stroke-linejoin="bevel" font-family="Noto Sans" font-style="normal" stroke-opacity="1" font-weight="400" stroke-width="1" font-size="35.2778" stroke="#000000"/>
  <g stroke-linecap="square" transform="matrix(1,0,0,1,1485,1050)" fill="none" stroke-linejoin="bevel" font-family="Noto Sans" font-style="normal" stroke-opacity="1" font-weight="400" stroke-width="1" font-size="35.2778" stroke="#000000"/>
  <g stroke-linecap="round" transform="matrix(1,0,0,1,1485,1050)" fill="none" stroke-linejoin="bevel" font-family="Noto Sans" font-style="normal" stroke-opacity="1" font-weight="400" stroke-width="7" font-size="35.2778" stroke="#000000">
   <path fill-rule="evenodd" d="M29.0562,-179.562 C29.0562,-170.449 21.6689,-163.062 12.5562,-163.062 C3.44347,-163.062 -3.94383,-170.449 -3.94383,-179.562 C-3.94383,-188.674 3.44347,-196.062 12.5562,-196.062 C21.6689,-196.062 29.0562,-188.674 29.0562,-179.562 " vector-effect="none"/>
  </g>
  <g stroke-linecap="square" transform="matrix(1,0,0,1,1485,1050)" fill="none" stroke-linejoin="bevel" font-family="Noto Sans" font-style="normal" stroke-opacity="1" font-weight="400" stroke-width="1" font-size="35.2778" stroke="#000000"/>
  <g stroke-linecap="square" transform="matrix(1,0,0,1,1485,1050)" fill="none" stroke-linejoin="bevel" font-family="Noto Sans" font-style="normal" stroke-opacity="1" font-weight="400" stroke-width="1" font-size="35.2778" stroke="#000000"/>
  <g stroke-linecap="round" transform="matrix(1,0,0,1,1485,1050)" fill="none" stroke-linejoin="bevel" font-family="Noto Sans" font-style="normal" stroke-opacity="1" font-weight="400" stroke-width="7" font-size="35.2778" stroke="#000000">
   <path fill-rule="evenodd" d="M-163.062,-12.5562 C-163.062,-3.44347 -170.449,3.94383 -179.562,3.94383 C-188.674,3.94383 -196.062,-3.44347 -196.062,-12.5562 C-196.062,-21.6689 -188.674,-29.0562 -179.562,-29.0562 C-170.449,-29.0562 -163.062,-21.6689 -163.062,-12.5562 " vector-effect="none"/>
  </g>
  <g stroke-linecap="square" transform="matrix(1,0,0,1,1485,1050)" fill="none" stroke-linejoin="bevel" font-family="Noto Sans" font-style="normal" stroke-opacity="1" font-weight="400" stroke-width="1" font-size="35.2778" stroke="#000000"/>
  <g stroke-linecap="square" transform="matrix(1,0,0,1,1485,1050)" fill="none" stroke-linejoin="bevel" font-family="Noto Sans" font-style="normal" stroke-opacity="1" font-weight="400" stroke-width="1" font-size="35.2778" stroke="#000000"/>
  <g stroke-linecap="round" transform="matrix(1,0,0,1,1485,1050)" fill="none" stroke-linejoin="bevel" font-family="Noto Sans" font-style="normal" stroke-opacity="1" font-weight="400" stroke-width="7" font-size="35.2778" stroke="#000000">
   <path fill-rule="evenodd" d="M3.94383,179.562 C3.94383,188.674 -3.44347,196.062 -12.5562,196.062 C-21.6689,196.062 -29.0562,188.674 -29.0562,179.562 C-29.0562,170.449 -21.6689,163.062 -12.5562,163.062 C-3.44347,163.062 3.94383,170.449 3.94383,179.562 " vector-effect="none"/>
  </g>
  <g stroke-linecap="square" transform="matrix(1,0,0,1,1485,1050)" fill="none" stroke-linejoin="bevel" font-family="Noto Sans" font-style="normal" stroke-opacity="1" font-weight="400" stroke-width="1" font-size="35.2778" stroke="#000000"/>
  <g stroke-linecap="square" transform="matrix(1,0,0,1,1485,1050)" fill="none" stroke-linejoin="bevel" font-family="Noto Sans" font-style="normal" stroke-opacity="1" font-weight="400" stroke-width="1" font-size="35.2778" stroke="#000000"/>
  <g stroke-linecap="round" transform="matrix(1,0,0,1,1485,1050)" fill="none" stroke-linejoin="bevel" font-family="Noto Sans" font-style="normal" stroke-opacity="1" font-weight="400" stroke-width="7" font-size="35.2778" stroke="#000000">
   <path fill-rule="evenodd" d="M195.103,-57.2625 L120.538,-163.752" vector-effect="none"/>
  </g>
  <g stroke-linecap="square" transform="matrix(1,0,0,1,1485,1050)" fill="none" stroke-linejoin="bevel" font-family="Noto Sans" font-style="normal" stroke-opacity="1" font-weight="400" stroke-width="1" font-size="35.2778" stroke="#000000"/>
  <g stroke-linecap="square" transform="matrix(1,0,0,1,1485,1050)" fill="none" stroke-linejoin="bevel" font-family="Noto Sans" font-style="normal" stroke-opacity="1" font-weight="400" stroke-width="1" font-size="35.2778" stroke="#000000"/>
  <g stroke-linecap="round" transform="matrix(1,0,0,1,1485,1050)" fill="none" stroke-linejoin="bevel" font-family="Noto Sans" font-style="normal" stroke-opacity="1" font-weight="400" stroke-width="7" font-size="35.2778" stroke="#000000">
   <path fill-rule="evenodd" d="M-57.2625,-195.103 L-163.752,-120.538" vector-effect="none"/>
  </g>
  <g stroke-linecap="square" transform="matrix(1,0,0,1,1485,1050)" fill="none" stroke-linejoin="bevel" font-family="Noto Sans" font-style="normal" stroke-opacity="1" font-weight="400" stroke-width="1" font-size="35.2778" stroke="#000000"/>
  <g stroke-linecap="square" transform="matrix(1,0,0,1,1485,1050)" fill="none" stroke-linejoin="bevel" font-family="Noto Sans" font-style="normal" stroke-opacity="1" font-weight="400" stroke-width="1" font-size="35.2778" stroke="#000000"/>
  <g stroke-linecap="round" transform="matrix(1,0,0,1,1485,1050)" fill="none" stroke-linejoin="bevel" font-family="Noto Sans" font-style="normal" stroke-opacity="1" font-weight="400" stroke-width="7" font-size="35.2778" stroke="#000000">
   <path fill-rule="evenodd" d="M-195.103,57.2625 L-120.538,163.752" vector-effect="none"/>
  </g>
  <g stroke-linecap="square" transform="matrix(1,0,0,1,1485,1050)" fill="none" stroke-linejoin="bevel" font-family="Noto Sans" font-style="normal" stroke-opacity="1" font-weight="400" stroke-width="1" font-size="35.2778" stroke="#000000"/>
  <g stroke-linecap="square" transform="matrix(1,0,0,1,0,0)" fill="none" stroke-linejoin="bevel" font-family="Noto Sans" font-style="normal" stroke-opacity="1" font-weight="400" stroke-width="1" font-size="35.2778" stroke="#000000"/>
 </g>
</svg>
