<?xml version="1.0" encoding="UTF-8" standalone="no"?>
<svg
   xmlns:dc="http://purl.org/dc/elements/1.1/"
   xmlns:cc="http://creativecommons.org/ns#"
   xmlns:rdf="http://www.w3.org/1999/02/22-rdf-syntax-ns#"
   xmlns:svg="http://www.w3.org/2000/svg"
   xmlns="http://www.w3.org/2000/svg"
   xmlns:sodipodi="http://sodipodi.sourceforge.net/DTD/sodipodi-0.dtd"
   xmlns:inkscape="http://www.inkscape.org/namespaces/inkscape"
   viewBox="0 0 2970 2100"
   width="297mm"
   height="210mm"
   version="1.2"
   id="svg235"
   sodipodi:docname="crystal_mounting_layer3.svg"
   inkscape:version="0.92.3 (2405546, 2018-03-11)">
  <metadata
     id="metadata239">
    <rdf:RDF>
      <cc:Work
         rdf:about="">
        <dc:format>image/svg+xml</dc:format>
        <dc:type
           rdf:resource="http://purl.org/dc/dcmitype/StillImage" />
      </cc:Work>
    </rdf:RDF>
  </metadata>
  <sodipodi:namedview
     pagecolor="#ffffff"
     bordercolor="#666666"
     borderopacity="1"
     objecttolerance="10"
     gridtolerance="10"
     guidetolerance="10"
     inkscape:pageopacity="0"
     inkscape:pageshadow="2"
     inkscape:window-width="1920"
     inkscape:window-height="1025"
     id="namedview237"
     showgrid="false"
     inkscape:zoom="1.6820162"
     inkscape:cx="704.03258"
     inkscape:cy="241.79722"
     inkscape:window-x="0"
     inkscape:window-y="0"
     inkscape:window-maximized="1"
     inkscape:current-layer="svg235" />
  <title
     id="title2">FreeCAD SVG Export</title>
  <desc
     id="desc4">Drawing page: Page009 exported from FreeCAD document: magic_crystal</desc>
  <defs
     id="defs6" />
  <g
     id="g1182">
    <path
       style="font-style:normal;font-weight:400;font-size:medium;font-family:'Noto Sans';vector-effect:non-scaling-stroke;fill:none;fill-opacity:1;fill-rule:evenodd;stroke:#000000;stroke-width:1;stroke-linecap:square;stroke-linejoin:bevel;stroke-opacity:1"
       inkscape:connector-curvature="0"
       id="path50"
       d="m 1745,1050 c 0,143.594 -116.406,260 -260,260 -143.594,0 -260,-116.406 -260,-260 0,-143.594 116.406,-260 260,-260 143.594,0 260,116.406 260,260" />
    <path
       style="font-style:normal;font-weight:400;font-size:medium;font-family:'Noto Sans';vector-effect:non-scaling-stroke;fill:none;fill-opacity:1;fill-rule:evenodd;stroke:#000000;stroke-width:1;stroke-linecap:square;stroke-linejoin:bevel;stroke-opacity:1"
       inkscape:connector-curvature="0"
       id="path66"
       d="m 1608.123,1031.144 -48.466,-77.562 h -137.6 l -47.185,88.7413 47.3337,101.5065 116.9821,2.0419 68.9352,-114.7277" />
    <path
       style="font-style:normal;font-weight:400;font-size:medium;font-family:'Noto Sans';vector-effect:non-scaling-stroke;fill:none;fill-opacity:1;fill-rule:evenodd;stroke:#000000;stroke-width:1;stroke-linecap:square;stroke-linejoin:bevel;stroke-opacity:1"
       inkscape:connector-curvature="0"
       id="path82"
       d="m 1694.562,1062.5562 c 0,16.5685 -13.432,30 -30,30 -16.569,0 -30,-13.4315 -30,-30 0,-16.5686 13.431,-30 30,-30 16.568,0 30,13.4314 30,30" />
    <path
       style="font-style:normal;font-weight:400;font-size:medium;font-family:'Noto Sans';vector-effect:non-scaling-stroke;fill:none;fill-opacity:1;fill-rule:evenodd;stroke:#000000;stroke-width:1;stroke-linecap:square;stroke-linejoin:bevel;stroke-opacity:1"
       inkscape:connector-curvature="0"
       id="path98"
       d="m 1502.4438,1229.562 c 0,16.568 -13.4314,30 -30,30 -16.5685,0 -30,-13.432 -30,-30 0,-16.569 13.4315,-30 30,-30 16.5686,0 30,13.431 30,30" />
    <path
       style="font-style:normal;font-weight:400;font-size:medium;font-family:'Noto Sans';vector-effect:non-scaling-stroke;fill:none;fill-opacity:1;fill-rule:evenodd;stroke:#000000;stroke-width:1;stroke-linecap:square;stroke-linejoin:bevel;stroke-opacity:1"
       inkscape:connector-curvature="0"
       id="path114"
       d="m 1527.5562,870.438 c 0,16.569 -13.4315,30 -30,30 -16.5686,0 -30,-13.431 -30,-30 0,-16.568 13.4314,-30 30,-30 16.5685,0 30,13.432 30,30" />
    <path
       style="font-style:normal;font-weight:400;font-size:medium;font-family:'Noto Sans';vector-effect:non-scaling-stroke;fill:none;fill-opacity:1;fill-rule:evenodd;stroke:#000000;stroke-width:1;stroke-linecap:square;stroke-linejoin:bevel;stroke-opacity:1"
       inkscape:connector-curvature="0"
       id="path130"
       d="m 1335.438,1037.4438 c 0,16.5686 -13.431,30 -30,30 -16.568,0 -30,-13.4314 -30,-30 0,-16.5685 13.432,-30 30,-30 16.569,0 30,13.4315 30,30" />
  </g>
</svg>
