999
FreeCAD v0.18 16093 (Git)
  0
SECTION
  2
HEADER
  9
$ACADVER
  1
AC1014
  9
$ACADMAINTVER
 70
     9
  9
$DWGCODEPAGE
  3
ANSI_1252
  9
$TEXTSTYLE
  7
STANDARD
  9
$DIMSTYLE
  2
STANDARD
  9
$DIMTXSTY
  7
STANDARD
  9
$CMLSTYLE
  2
STANDARD
  9
$HANDSEED
  5
FFF
  0
ENDSEC
  0
SECTION
  2
CLASSES
  0
CLASS
  1
ACDBDICTIONARYWDFLT
  2
AcDbDictionaryWithDefault
  3
ObjectDBX Classes
 90
        0
280
     0
281
     0
  0
CLASS
  1
XRECORD
  2
AcDbXrecord
  3
ObjectDBX Classes
 90
        0
280
     0
281
     0
  0
CLASS
  1
LWPOLYLINE
  2
AcDbPolyline
  3
ObjectDBX Classes
 90
        0
280
     0
281
     1
  0
ENDSEC
  0
SECTION
  2
TABLES
  0
TABLE
  2
VPORT
  5
20
330
0
100
AcDbSymbolTable
 70
     1
  0
VPORT
  5
21
330
20
100
AcDbSymbolTableRecord
100
AcDbViewportTableRecord
  2
*ACTIVE
 70
     0
  0
ENDTAB
  0
TABLE
  2
LTYPE
  5
22
330
0
100
AcDbSymbolTable
 70
     1
  0
LTYPE
  5
23
330
21
100
AcDbSymbolTableRecord
100
AcDbLinetypeTableRecord
  2
BYBLOCK
 70
     0
  3

 72
    65
 73
     0
 40
0.0
  0
LTYPE
  5
24
330
21
100
AcDbSymbolTableRecord
100
AcDbLinetypeTableRecord
  2
BYLAYER
 70
     0
  3

 72
    65
 73
     0
 40
0.0
  0
LTYPE
  5
25
330
21
100
AcDbSymbolTableRecord
100
AcDbLinetypeTableRecord
  2
CONTINUOUS
 70
     0
  3
Solid line
 72
    65
 73
     0
 40
0.0
  0
ENDTAB
  0
TABLE
  2
LAYER
  5
31
330
0
100
AcDbSymbolTable
 70
12
  0
LAYER
  5
32
330
31
100
AcDbSymbolTableRecord
100
AcDbLayerTableRecord
  2
0
 70
   0
 62
   7
  6
CONTINUOUS
  0
LAYER
  5
33
330
31
100
AcDbSymbolTableRecord
100
AcDbLayerTableRecord
  2
View008
 70
    0
 62
    7
  6
CONTINUOUS
  0
LAYER
  5
34
330
31
100
AcDbSymbolTableRecord
100
AcDbLayerTableRecord
  2
View009
 70
    0
 62
    7
  6
CONTINUOUS
  0
LAYER
  5
35
330
31
100
AcDbSymbolTableRecord
100
AcDbLayerTableRecord
  2
View010
 70
    0
 62
    7
  6
CONTINUOUS
  0
LAYER
  5
36
330
31
100
AcDbSymbolTableRecord
100
AcDbLayerTableRecord
  2
View011
 70
    0
 62
    7
  6
CONTINUOUS
  0
LAYER
  5
37
330
31
100
AcDbSymbolTableRecord
100
AcDbLayerTableRecord
  2
Dimension
 70
    0
 62
    7
  6
CONTINUOUS
  0
LAYER
  5
38
330
31
100
AcDbSymbolTableRecord
100
AcDbLayerTableRecord
  2
Dimension001
 70
    0
 62
    7
  6
CONTINUOUS
  0
LAYER
  5
39
330
31
100
AcDbSymbolTableRecord
100
AcDbLayerTableRecord
  2
View013
 70
    0
 62
    7
  6
CONTINUOUS
  0
LAYER
  5
3A
330
31
100
AcDbSymbolTableRecord
100
AcDbLayerTableRecord
  2
View014
 70
    0
 62
    7
  6
CONTINUOUS
  0
LAYER
  5
3B
330
31
100
AcDbSymbolTableRecord
100
AcDbLayerTableRecord
  2
View015
 70
    0
 62
    7
  6
CONTINUOUS
  0
LAYER
  5
3C
330
31
100
AcDbSymbolTableRecord
100
AcDbLayerTableRecord
  2
View016
 70
    0
 62
    7
  6
CONTINUOUS
  0
LAYER
  5
3D
330
31
100
AcDbSymbolTableRecord
100
AcDbLayerTableRecord
  2
View018
 70
    0
 62
    7
  6
CONTINUOUS
  0
ENDTAB
  0
TABLE
  2
STYLE
  5
60
330
0
100
AcDbSymbolTable
 70
     2
  0
STYLE
  5
61
330
60
100
AcDbSymbolTableRecord
100
AcDbTextStyleTableRecord
  2
STANDARD
 70
     0
 40
0.0
 41
1.0
 50
0.0
 71
     0
 42
2.5
  3
arial.ttf
  4

  0
STYLE
  5
62
330
60
100
AcDbSymbolTableRecord
100
AcDbTextStyleTableRecord
  2
ANNOTATIVE
 70
     0
 40
0.0
 41
1.0
 50
0.0
 71
     0
 42
2.5
  3
arial.ttf
  4

  0
ENDTAB
  0
TABLE
  2
VIEW
  5
63
330
0
100
AcDbSymbolTable
 70
     0
  0
ENDTAB
  0
TABLE
  2
UCS
  5
64
330
0
100
AcDbSymbolTable
 70
     0
  0
ENDTAB
  0
TABLE
  2
APPID
  5
65
330
0
100
AcDbSymbolTable
 70
     2
  0
APPID
  5
66
330
65
100
AcDbSymbolTableRecord
100
AcDbRegAppTableRecord
  2
ACAD
 70
     0
  0
APPID
  5
67
330
65
100
AcDbSymbolTableRecord
100
AcDbRegAppTableRecord
  2
ACADANNOTATIVE
 70
     0
  0
ENDTAB
  0
TABLE
  2
DIMSTYLE
  5
68
330
0
100
AcDbSymbolTable
 70
     2
  0
DIMSTYLE
105
69
330
68
100
AcDbSymbolTableRecord
100
AcDbDimStyleTableRecord
  2
STANDARD
 70
     0
  3

  4

  5

  6

  7

 40
0.0
 41
2.5
 42
0.625
 43
3.75
 44
1.25
 45
0.0
 46
0.0
 47
0.0
 48
0.0
140
2.5
141
2.5
142
0.0
143
0.03937007874016
144
1.0
145
0.0
146
1.0
147
0.625
 71
     0
 72
     0
 73
     0
 74
     0
 75
     0
 76
     0
 77
     1
 78
     8
170
     0
171
     3
172
     1
173
     0
174
     0
175
     0
176
     0
177
     0
178
     0
270
     2
271
     2
272
     2
273
     2
274
     3
340
61
275
     0
280
     0
281
     0
282
     0
283
     0
284
     8
285
     0
286
     0
287
     3
288
     0
  0
ENDTAB
  0
TABLE
  2
BLOCK_RECORD
  5
111
330
0
100
AcDbSymbolTable
  70
5
  0
BLOCK_RECORD
  5
112
330
111
100
AcDbSymbolTableRecord
100
AcDbBlockTableRecord
  2
*MODEL_SPACE
  0
BLOCK_RECORD
  5
113
330
111
100
AcDbSymbolTableRecord
100
AcDbBlockTableRecord
  2
*PAPER_SPACE
  0
BLOCK_RECORD
  5
114
330
111
100
AcDbSymbolTableRecord
100
AcDbBlockTableRecord
  2
*Dimension
  0
BLOCK_RECORD
  5
115
330
111
100
AcDbSymbolTableRecord
100
AcDbBlockTableRecord
  2
*Dimension001
  0
ENDTAB
  0
ENDSEC
  0
SECTION
  2
BLOCKS
  0
BLOCK
  5
211
330
112
100
AcDbEntity
  8
0
100
AcDbBlockBegin
  2
*MODEL_SPACE
 70
   0
 10
0
 20
0
 30
0
  3
*MODEL_SPACE
  1
 
  0
ENDBLK
  5
212
330
112
100
AcDbEntity
  8
0
100
AcDbBlockEnd
  0
BLOCK
  5
213
330
113
100
AcDbEntity
 67
1
  8
0
100
AcDbBlockBegin
  2
*PAPER_SPACE
 70
   0
 10
0
 20
0
 30
0
  3
*PAPER_SPACE
  1
 
  0
ENDBLK
  5
214
330
113
100
AcDbEntity
 67
    1
  8
0
100
AcDbBlockEnd
  0
BLOCK
  5
215
330
114
100
AcDbEntity
  8
Dimension
100
AcDbBlockBegin
  2
*Dimension
 70
   1
 10
0
 20
0
 30
0
  3
*Dimension
  1
 
  0
LINE
  5
216
330
114
100
AcDbEntity
  8
Dimension
100
AcDbLine
 10
29.0001
 20
69
 30
0
 11
29.4513
 21
69
 31
0
  0
LINE
  5
217
330
114
100
AcDbEntity
  8
Dimension
100
AcDbLine
 10
29.0001
 20
23
 30
0
 11
29.4513
 21
23
 31
0
  0
LINE
  5
218
330
114
100
AcDbEntity
  8
Dimension
100
AcDbLine
 10
29.4513
 20
23
 30
0
 11
29.4513
 21
69
 31
0
  0
TEXT
  5
219
330
114
100
AcDbEntity
  8
Dimension
100
AcDbText
 10
34.4513
 20
47.5637
 30
0
 40
3.5
  1
46,000
  7
STANDARD
 72
1
 11
29.4513
 21
47.5637
 31
0
100
AcDbText
  0
SOLID
  5
21A
330
114
100
AcDbEntity
  8
0
 62
     0
100
AcDbTrace
 10
29.0347
 20
28
 30
0
 11
29.868
 21
28
 31
0
 12
29.4513
 22
23
 32
0
 13
29.4513
 23
23
 33
0
  0
SOLID
  5
21B
330
114
100
AcDbEntity
  8
0
 62
     0
100
AcDbTrace
 10
29.0347
 20
64
 30
0
 11
29.868
 21
64
 31
0
 12
29.4513
 22
69
 32
0
 13
29.4513
 23
69
 33
0
  0
ENDBLK
  5
21C
330
114
100
AcDbEntity
  8
Dimension
100
AcDbBlockEnd
  0
BLOCK
  5
21D
330
115
100
AcDbEntity
  8
Dimension001
100
AcDbBlockBegin
  2
*Dimension001
 70
   1
 10
0
 20
0
 30
0
  3
*Dimension001
  1
 
  0
LINE
  5
21E
330
115
100
AcDbEntity
  8
Dimension001
100
AcDbLine
 10
32.0001
 20
27
 30
0
 11
32.0001
 21
12.6417
 31
0
  0
LINE
  5
21F
330
115
100
AcDbEntity
  8
Dimension001
100
AcDbLine
 10
17.9999
 20
27
 30
0
 11
17.9999
 21
12.6417
 31
0
  0
LINE
  5
220
330
115
100
AcDbEntity
  8
Dimension001
100
AcDbLine
 10
17.9999
 20
12.6417
 30
0
 11
32.0001
 21
12.6417
 31
0
  0
TEXT
  5
221
330
115
100
AcDbEntity
  8
Dimension001
100
AcDbText
 10
25.3806
 20
17.6417
 30
0
 40
3.5
  1
14,000
  7
STANDARD
 72
1
 11
25.3806
 21
12.6417
 31
0
100
AcDbText
  0
SOLID
  5
222
330
115
100
AcDbEntity
  8
0
 62
     0
100
AcDbTrace
 10
22.9999
 20
13.0584
 30
0
 11
22.9999
 21
12.2251
 31
0
 12
17.9999
 22
12.6417
 32
0
 13
17.9999
 23
12.6417
 33
0
  0
SOLID
  5
223
330
115
100
AcDbEntity
  8
0
 62
     0
100
AcDbTrace
 10
27.0001
 20
13.0584
 30
0
 11
27.0001
 21
12.2251
 31
0
 12
32.0001
 22
12.6417
 32
0
 13
32.0001
 23
12.6417
 33
0
  0
ENDBLK
  5
224
330
115
100
AcDbEntity
  8
Dimension001
100
AcDbBlockEnd
  0
ENDSEC
  0
SECTION
  2
ENTITIES
  0
ARC
  5
301
330
112
100
AcDbEntity
  8
View008
100
AcDbCircle
 10
169.817
 20
148.031
 30
0
 40
6
100
AcDbArc
 50
98.5862
 51
125
  0
ARC
  5
302
330
112
100
AcDbEntity
  8
View008
100
AcDbCircle
 10
167.727
 20
161.874
 30
0
 40
8
100
AcDbArc
 50
-81.4138
 51
61.4138
  0
ARC
  5
303
330
112
100
AcDbEntity
  8
View008
100
AcDbCircle
 10
174.425
 20
174.168
 30
0
 40
6
100
AcDbArc
 50
-145
 51
-118.586
  0
LINE
  5
304
330
112
100
AcDbEntity
  8
View008
100
AcDbLine
 10
155.726
 20
145.49
 30
0
 11
166.375
 21
152.946
 31
0
  0
ARC
  5
305
330
112
100
AcDbEntity
  8
View008
100
AcDbCircle
 10
159.168
 20
140.575
 30
0
 40
6
100
AcDbArc
 50
125
 51
151.414
  0
ARC
  5
306
330
112
100
AcDbEntity
  8
View008
100
AcDbCircle
 10
146.874
 20
147.273
 30
0
 40
8
100
AcDbArc
 50
-171.414
 51
-28.5862
  0
ARC
  5
307
330
112
100
AcDbEntity
  8
View008
100
AcDbCircle
 10
133.031
 20
145.183
 30
0
 40
6
100
AcDbArc
 50
8.58616
 51
35
  0
ARC
  5
308
330
112
100
AcDbEntity
  8
View008
100
AcDbCircle
 10
125.575
 20
155.832
 30
0
 40
6
100
AcDbArc
 50
35
 51
61.4138
  0
ARC
  5
309
330
112
100
AcDbEntity
  8
View008
100
AcDbCircle
 10
132.273
 20
168.126
 30
0
 40
8
100
AcDbArc
 50
98.5862
 51
-118.586
  0
ARC
  5
30A
330
112
100
AcDbEntity
  8
View008
100
AcDbCircle
 10
130.183
 20
181.969
 30
0
 40
6
100
AcDbArc
 50
-81.4138
 51
-55
  0
ARC
  5
30B
330
112
100
AcDbEntity
  8
View008
100
AcDbCircle
 10
140.832
 20
189.425
 30
0
 40
6
100
AcDbArc
 50
-55
 51
-28.5862
  0
ARC
  5
30C
330
112
100
AcDbEntity
  8
View008
100
AcDbCircle
 10
153.126
 20
182.727
 30
0
 40
8
100
AcDbArc
 50
8.58616
 51
151.414
  0
ARC
  5
30D
330
112
100
AcDbEntity
  8
View008
100
AcDbCircle
 10
166.969
 20
184.817
 30
0
 40
6
100
AcDbArc
 50
-171.414
 51
-145
  0
SPLINE
  5
30E
330
112
100
AcDbEntity
  8
View008
100
AcDbSpline
210
0
220
0
230
1
 70
8
 71
1
 72
4
 73
2
 74
0
 40
0.0891043
 40
0.0891043
 40
1
 40
1
 10
156.087
 20
156.307
 30
0
 10
162.479
 20
166.946
 30
0
  0
SPLINE
  5
30F
330
112
100
AcDbEntity
  8
View008
100
AcDbSpline
210
0
220
0
230
1
 70
8
 71
1
 72
4
 73
2
 74
0
 40
0
 40
0
 40
0.111867
 40
0.111867
 10
155.461
 20
155.267
 30
0
 10
156.087
 20
156.307
 30
0
  0
SPLINE
  5
310
330
112
100
AcDbEntity
  8
View008
100
AcDbSpline
210
0
220
0
230
1
 70
8
 71
1
 72
4
 73
2
 74
0
 40
0
 40
0
 40
1
 40
1
 10
162.479
 20
166.946
 30
0
 10
157.6
 20
174.753
 30
0
  0
SPLINE
  5
311
330
112
100
AcDbEntity
  8
View008
100
AcDbSpline
210
0
220
0
230
1
 70
8
 71
1
 72
4
 73
2
 74
0
 40
0
 40
0
 40
1
 40
1
 10
143.663
 20
155.473
 30
0
 10
155.461
 20
155.267
 30
0
  0
SPLINE
  5
312
330
112
100
AcDbEntity
  8
View008
100
AcDbSpline
210
0
220
0
230
1
 70
8
 71
1
 72
4
 73
2
 74
0
 40
0.597239
 40
0.597239
 40
1
 40
1
 10
141.874
 20
159.31
 30
0
 10
143.663
 20
155.473
 30
0
  0
SPLINE
  5
313
330
112
100
AcDbEntity
  8
View008
100
AcDbSpline
210
0
220
0
230
1
 70
8
 71
1
 72
4
 73
2
 74
0
 40
0
 40
0
 40
0.62532
 40
0.62532
 10
138.888
 20
165.714
 30
0
 10
141.874
 20
159.31
 30
0
  0
SPLINE
  5
314
330
112
100
AcDbEntity
  8
View008
100
AcDbSpline
210
0
220
0
230
1
 70
8
 71
1
 72
4
 73
2
 74
0
 40
0
 40
0
 40
1
 40
1
 10
157.6
 20
174.753
 30
0
 10
143.694
 20
174.753
 30
0
  0
SPLINE
  5
315
330
112
100
AcDbEntity
  8
View008
100
AcDbSpline
210
0
220
0
230
1
 70
8
 71
1
 72
4
 73
2
 74
0
 40
0.0469248
 40
0.0469248
 40
1
 40
1
 10
143.468
 20
174.329
 30
0
 10
138.888
 20
165.714
 30
0
  0
SPLINE
  5
316
330
112
100
AcDbEntity
  8
View008
100
AcDbSpline
210
0
220
0
230
1
 70
8
 71
1
 72
4
 73
2
 74
0
 40
0
 40
0
 40
0.0475355
 40
0.0475355
 10
143.694
 20
174.753
 30
0
 10
143.468
 20
174.329
 30
0
  0
CIRCLE
  5
317
330
112
100
AcDbEntity
  8
View008
100
AcDbCircle
 10
167.956
 20
163.744
 40
1.65
  0
CIRCLE
  5
318
330
112
100
AcDbEntity
  8
View008
100
AcDbCircle
 10
151.256
 20
182.956
 40
1.65
  0
CIRCLE
  5
319
330
112
100
AcDbEntity
  8
View008
100
AcDbCircle
 10
132.044
 20
166.256
 40
1.65
  0
CIRCLE
  5
31A
330
112
100
AcDbEntity
  8
View008
100
AcDbCircle
 10
148.744
 20
147.044
 40
1.65
  0
LINE
  5
31B
330
112
100
AcDbEntity
  8
View008
100
AcDbLine
 10
169.51
 20
170.726
 30
0
 11
162.054
 21
181.375
 31
0
  0
LINE
  5
31C
330
112
100
AcDbEntity
  8
View008
100
AcDbLine
 10
144.274
 20
184.51
 30
0
 11
133.625
 21
177.054
 31
0
  0
LINE
  5
31D
330
112
100
AcDbEntity
  8
View008
100
AcDbLine
 10
130.49
 20
159.274
 30
0
 11
137.946
 21
148.625
 31
0
  0
ARC
  5
31E
330
112
100
AcDbEntity
  8
View009
100
AcDbCircle
 10
96
 20
165
 30
0
 40
26
100
AcDbArc
 50
-100
 51
-10
  0
ARC
  5
31F
330
112
100
AcDbEntity
  8
View009
100
AcDbCircle
 10
96
 20
165
 30
0
 40
26
100
AcDbArc
 50
170
 51
-100
  0
ARC
  5
320
330
112
100
AcDbEntity
  8
View009
100
AcDbCircle
 10
96
 20
165
 30
0
 40
26
100
AcDbArc
 50
-10
 51
0
  0
ARC
  5
321
330
112
100
AcDbEntity
  8
View009
100
AcDbCircle
 10
96
 20
165
 30
0
 40
26
100
AcDbArc
 50
80
 51
170
  0
ARC
  5
322
330
112
100
AcDbEntity
  8
View009
100
AcDbCircle
 10
96
 20
165
 30
0
 40
26
100
AcDbArc
 50
0
 51
80
  0
CIRCLE
  5
323
330
112
100
AcDbEntity
  8
View009
100
AcDbCircle
 10
94.7444
 20
147.044
 40
3
  0
CIRCLE
  5
324
330
112
100
AcDbEntity
  8
View009
100
AcDbCircle
 10
97.2556
 20
182.956
 40
3
  0
SPLINE
  5
325
330
112
100
AcDbEntity
  8
View009
100
AcDbSpline
210
0
220
0
230
1
 70
8
 71
1
 72
4
 73
2
 74
0
 40
0
 40
0
 40
1
 40
1
 10
103.466
 20
174.642
 30
0
 10
89.7057
 20
174.642
 30
0
  0
SPLINE
  5
326
330
112
100
AcDbEntity
  8
View009
100
AcDbSpline
210
0
220
0
230
1
 70
8
 71
1
 72
4
 73
2
 74
0
 40
0
 40
0
 40
1
 40
1
 10
108.312
 20
166.886
 30
0
 10
103.466
 20
174.642
 30
0
  0
SPLINE
  5
327
330
112
100
AcDbEntity
  8
View009
100
AcDbSpline
210
0
220
0
230
1
 70
8
 71
1
 72
4
 73
2
 74
0
 40
0
 40
0
 40
1
 40
1
 10
89.7057
 20
174.642
 30
0
 10
84.9872
 20
165.768
 30
0
  0
SPLINE
  5
328
330
112
100
AcDbEntity
  8
View009
100
AcDbSpline
210
0
220
0
230
1
 70
8
 71
1
 72
4
 73
2
 74
0
 40
0
 40
0
 40
1
 40
1
 10
101.419
 20
155.413
 30
0
 10
108.312
 20
166.886
 30
0
  0
SPLINE
  5
329
330
112
100
AcDbEntity
  8
View009
100
AcDbSpline
210
0
220
0
230
1
 70
8
 71
1
 72
4
 73
2
 74
0
 40
0
 40
0
 40
1
 40
1
 10
84.9872
 20
165.768
 30
0
 10
89.7206
 20
155.617
 30
0
  0
SPLINE
  5
32A
330
112
100
AcDbEntity
  8
View009
100
AcDbSpline
210
0
220
0
230
1
 70
8
 71
1
 72
4
 73
2
 74
0
 40
0
 40
0
 40
1
 40
1
 10
89.7206
 20
155.617
 30
0
 10
101.419
 20
155.413
 30
0
  0
CIRCLE
  5
32B
330
112
100
AcDbEntity
  8
View009
100
AcDbCircle
 10
113.956
 20
163.744
 40
3
  0
CIRCLE
  5
32C
330
112
100
AcDbEntity
  8
View009
100
AcDbCircle
 10
78.0438
 20
166.256
 40
3
  0
ARC
  5
32D
330
112
100
AcDbEntity
  8
View010
100
AcDbCircle
 10
194.832
 20
189.425
 30
0
 40
6
100
AcDbArc
 50
-55
 51
-28.5862
  0
ARC
  5
32E
330
112
100
AcDbEntity
  8
View010
100
AcDbCircle
 10
207.126
 20
182.727
 30
0
 40
8
100
AcDbArc
 50
8.58616
 51
151.414
  0
ARC
  5
32F
330
112
100
AcDbEntity
  8
View010
100
AcDbCircle
 10
220.969
 20
184.817
 30
0
 40
6
100
AcDbArc
 50
-171.414
 51
-145
  0
LINE
  5
330
330
112
100
AcDbEntity
  8
View010
100
AcDbLine
 10
223.51
 20
170.726
 30
0
 11
216.054
 21
181.375
 31
0
  0
LINE
  5
331
330
112
100
AcDbEntity
  8
View010
100
AcDbLine
 10
198.274
 20
184.51
 30
0
 11
187.625
 21
177.054
 31
0
  0
ARC
  5
332
330
112
100
AcDbEntity
  8
View010
100
AcDbCircle
 10
184.183
 20
181.969
 30
0
 40
6
100
AcDbArc
 50
-81.4138
 51
-55
  0
ARC
  5
333
330
112
100
AcDbEntity
  8
View010
100
AcDbCircle
 10
186.273
 20
168.126
 30
0
 40
8
100
AcDbArc
 50
98.5862
 51
-118.586
  0
ARC
  5
334
330
112
100
AcDbEntity
  8
View010
100
AcDbCircle
 10
179.575
 20
155.832
 30
0
 40
6
100
AcDbArc
 50
35
 51
61.4138
  0
LINE
  5
335
330
112
100
AcDbEntity
  8
View010
100
AcDbLine
 10
184.49
 20
159.274
 30
0
 11
191.946
 21
148.625
 31
0
  0
ARC
  5
336
330
112
100
AcDbEntity
  8
View010
100
AcDbCircle
 10
187.031
 20
145.183
 30
0
 40
6
100
AcDbArc
 50
8.58616
 51
35
  0
ARC
  5
337
330
112
100
AcDbEntity
  8
View010
100
AcDbCircle
 10
200.874
 20
147.273
 30
0
 40
8
100
AcDbArc
 50
-171.414
 51
-28.5862
  0
ARC
  5
338
330
112
100
AcDbEntity
  8
View010
100
AcDbCircle
 10
213.168
 20
140.575
 30
0
 40
6
100
AcDbArc
 50
125
 51
151.414
  0
LINE
  5
339
330
112
100
AcDbEntity
  8
View010
100
AcDbLine
 10
209.726
 20
145.49
 30
0
 11
220.375
 21
152.946
 31
0
  0
ARC
  5
33A
330
112
100
AcDbEntity
  8
View010
100
AcDbCircle
 10
223.817
 20
148.031
 30
0
 40
6
100
AcDbArc
 50
98.5862
 51
125
  0
ARC
  5
33B
330
112
100
AcDbEntity
  8
View010
100
AcDbCircle
 10
221.727
 20
161.874
 30
0
 40
8
100
AcDbArc
 50
-81.4138
 51
61.4138
  0
ARC
  5
33C
330
112
100
AcDbEntity
  8
View010
100
AcDbCircle
 10
228.425
 20
174.168
 30
0
 40
6
100
AcDbArc
 50
-145
 51
-118.586
  0
LINE
  5
33D
330
112
100
AcDbEntity
  8
View010
100
AcDbLine
 10
212
 20
157
 30
0
 11
196
 21
157
 31
0
  0
LINE
  5
33E
330
112
100
AcDbEntity
  8
View010
100
AcDbLine
 10
196
 20
157
 30
0
 11
196
 21
173
 31
0
  0
LINE
  5
33F
330
112
100
AcDbEntity
  8
View010
100
AcDbLine
 10
196
 20
173
 30
0
 11
212
 21
173
 31
0
  0
LINE
  5
340
330
112
100
AcDbEntity
  8
View010
100
AcDbLine
 10
212
 20
173
 30
0
 11
212
 21
157
 31
0
  0
LINE
  5
341
330
112
100
AcDbEntity
  8
View010
100
AcDbLine
 10
216.699
 20
152.455
 30
0
 11
209.182
 21
149.719
 31
0
  0
LINE
  5
342
330
112
100
AcDbEntity
  8
View010
100
AcDbLine
 10
209.182
 20
149.719
 30
0
 11
208.84
 21
150.658
 31
0
  0
LINE
  5
343
330
112
100
AcDbEntity
  8
View010
100
AcDbLine
 10
208.84
 20
150.658
 30
0
 11
216.357
 21
153.395
 31
0
  0
LINE
  5
344
330
112
100
AcDbEntity
  8
View010
100
AcDbLine
 10
216.357
 20
153.395
 30
0
 11
216.699
 21
152.455
 31
0
  0
LINE
  5
345
330
112
100
AcDbEntity
  8
View010
100
AcDbLine
 10
199.16
 20
179.342
 30
0
 11
191.643
 21
176.605
 31
0
  0
LINE
  5
346
330
112
100
AcDbEntity
  8
View010
100
AcDbLine
 10
191.643
 20
176.605
 30
0
 11
191.301
 21
177.545
 31
0
  0
LINE
  5
347
330
112
100
AcDbEntity
  8
View010
100
AcDbLine
 10
191.301
 20
177.545
 30
0
 11
198.818
 21
180.281
 31
0
  0
LINE
  5
348
330
112
100
AcDbEntity
  8
View010
100
AcDbLine
 10
198.818
 20
180.281
 30
0
 11
199.16
 21
179.342
 31
0
  0
LINE
  5
349
330
112
100
AcDbEntity
  8
View010
100
AcDbLine
 10
189.658
 20
160.16
 30
0
 11
192.395
 21
152.643
 31
0
  0
LINE
  5
34A
330
112
100
AcDbEntity
  8
View010
100
AcDbLine
 10
192.395
 20
152.643
 30
0
 11
191.455
 21
152.301
 31
0
  0
LINE
  5
34B
330
112
100
AcDbEntity
  8
View010
100
AcDbLine
 10
191.455
 20
152.301
 30
0
 11
188.719
 21
159.818
 31
0
  0
LINE
  5
34C
330
112
100
AcDbEntity
  8
View010
100
AcDbLine
 10
188.719
 20
159.818
 30
0
 11
189.658
 21
160.16
 31
0
  0
LINE
  5
34D
330
112
100
AcDbEntity
  8
View010
100
AcDbLine
 10
218.342
 20
169.84
 30
0
 11
215.605
 21
177.357
 31
0
  0
LINE
  5
34E
330
112
100
AcDbEntity
  8
View010
100
AcDbLine
 10
215.605
 20
177.357
 30
0
 11
216.545
 21
177.699
 31
0
  0
LINE
  5
34F
330
112
100
AcDbEntity
  8
View010
100
AcDbLine
 10
216.545
 20
177.699
 30
0
 11
219.281
 21
170.182
 31
0
  0
LINE
  5
350
330
112
100
AcDbEntity
  8
View010
100
AcDbLine
 10
219.281
 20
170.182
 30
0
 11
218.342
 21
169.84
 31
0
  0
CIRCLE
  5
351
330
112
100
AcDbEntity
  8
View010
100
AcDbCircle
 10
221.956
 20
163.744
 40
1.65
  0
CIRCLE
  5
352
330
112
100
AcDbEntity
  8
View010
100
AcDbCircle
 10
205.256
 20
182.956
 40
1.65
  0
CIRCLE
  5
353
330
112
100
AcDbEntity
  8
View010
100
AcDbCircle
 10
186.044
 20
166.256
 40
1.65
  0
CIRCLE
  5
354
330
112
100
AcDbEntity
  8
View010
100
AcDbCircle
 10
202.744
 20
147.044
 40
1.65
  0
LINE
  5
355
330
112
100
AcDbEntity
  8
View011
100
AcDbLine
 10
32.0001
 20
65
 30
0
 11
29.0001
 21
65
 31
0
  0
LINE
  5
356
330
112
100
AcDbEntity
  8
View011
100
AcDbLine
 10
29.0001
 20
69
 30
0
 11
29.0001
 21
65
 31
0
  0
LINE
  5
357
330
112
100
AcDbEntity
  8
View011
100
AcDbLine
 10
21.0001
 20
69
 30
0
 11
20.9999
 21
69
 31
0
  0
LINE
  5
358
330
112
100
AcDbEntity
  8
View011
100
AcDbLine
 10
29.0001
 20
69
 30
0
 11
21.0001
 21
69
 31
0
  0
LINE
  5
359
330
112
100
AcDbEntity
  8
View011
100
AcDbLine
 10
21.0001
 20
69
 30
0
 11
21.0001
 21
65
 31
0
  0
LINE
  5
35A
330
112
100
AcDbEntity
  8
View011
100
AcDbLine
 10
20.9999
 20
69
 30
0
 11
20.9999
 21
65
 31
0
  0
LINE
  5
35B
330
112
100
AcDbEntity
  8
View011
100
AcDbLine
 10
18.0001
 20
65
 30
0
 11
17.9999
 21
65
 31
0
  0
LINE
  5
35C
330
112
100
AcDbEntity
  8
View011
100
AcDbLine
 10
18.0001
 20
65
 30
0
 11
21.0001
 21
65
 31
0
  0
LINE
  5
35D
330
112
100
AcDbEntity
  8
View011
100
AcDbLine
 10
32.0001
 20
65
 30
0
 11
32.0001
 21
27
 31
0
  0
LINE
  5
35E
330
112
100
AcDbEntity
  8
View011
100
AcDbLine
 10
32.0001
 20
27
 30
0
 11
29.0001
 21
27
 31
0
  0
LINE
  5
35F
330
112
100
AcDbEntity
  8
View011
100
AcDbLine
 10
29.0001
 20
23
 30
0
 11
29.0001
 21
27
 31
0
  0
LINE
  5
360
330
112
100
AcDbEntity
  8
View011
100
AcDbLine
 10
21.0001
 20
23
 30
0
 11
20.9999
 21
23
 31
0
  0
LINE
  5
361
330
112
100
AcDbEntity
  8
View011
100
AcDbLine
 10
29.0001
 20
23
 30
0
 11
21.0001
 21
23
 31
0
  0
LINE
  5
362
330
112
100
AcDbEntity
  8
View011
100
AcDbLine
 10
21.0001
 20
23
 30
0
 11
21.0001
 21
27
 31
0
  0
LINE
  5
363
330
112
100
AcDbEntity
  8
View011
100
AcDbLine
 10
20.9999
 20
23
 30
0
 11
20.9999
 21
27
 31
0
  0
LINE
  5
364
330
112
100
AcDbEntity
  8
View011
100
AcDbLine
 10
18.0001
 20
27
 30
0
 11
17.9999
 21
27
 31
0
  0
LINE
  5
365
330
112
100
AcDbEntity
  8
View011
100
AcDbLine
 10
18.0001
 20
27
 30
0
 11
21.0001
 21
27
 31
0
  0
LINE
  5
366
330
112
100
AcDbEntity
  8
View011
100
AcDbLine
 10
18.0001
 20
65
 30
0
 11
18.0001
 21
27
 31
0
  0
LINE
  5
367
330
112
100
AcDbEntity
  8
View011
100
AcDbLine
 10
17.9999
 20
27
 30
0
 11
17.9999
 21
65
 31
0
  0
DIMENSION
  5
368
330
112
100
AcDbEntity
  8
Dimension
100
AcDbDimension
  2
*Dimension
 10
29.4513
 20
47.5637
 30
0
 11
34.4513
 21
47.5637
 31
0
 70
1
  1
46,000
  3
STANDARD
100
AcDbAlignedDimension
 13
29.0001
 23
23
 33
0
 14
29.0001
 24
69
 34
0
  0
DIMENSION
  5
369
330
112
100
AcDbEntity
  8
Dimension001
100
AcDbDimension
  2
*Dimension001
 10
25.3806
 20
12.6417
 30
0
 11
25.3806
 21
17.6417
 31
0
 70
1
  1
14,000
  3
STANDARD
100
AcDbAlignedDimension
 13
17.9999
 23
27
 33
0
 14
32.0001
 24
27
 34
0
  0
LINE
  5
36A
330
112
100
AcDbEntity
  8
View013
100
AcDbLine
 10
57.0001
 20
65
 30
0
 11
54.0001
 21
65
 31
0
  0
LINE
  5
36B
330
112
100
AcDbEntity
  8
View013
100
AcDbLine
 10
54.0001
 20
69
 30
0
 11
54.0001
 21
65
 31
0
  0
LINE
  5
36C
330
112
100
AcDbEntity
  8
View013
100
AcDbLine
 10
46.0001
 20
69
 30
0
 11
45.9999
 21
69
 31
0
  0
LINE
  5
36D
330
112
100
AcDbEntity
  8
View013
100
AcDbLine
 10
54.0001
 20
69
 30
0
 11
46.0001
 21
69
 31
0
  0
LINE
  5
36E
330
112
100
AcDbEntity
  8
View013
100
AcDbLine
 10
46.0001
 20
69
 30
0
 11
46.0001
 21
65
 31
0
  0
LINE
  5
36F
330
112
100
AcDbEntity
  8
View013
100
AcDbLine
 10
45.9999
 20
69
 30
0
 11
45.9999
 21
65
 31
0
  0
LINE
  5
370
330
112
100
AcDbEntity
  8
View013
100
AcDbLine
 10
43.0001
 20
65
 30
0
 11
42.9999
 21
65
 31
0
  0
LINE
  5
371
330
112
100
AcDbEntity
  8
View013
100
AcDbLine
 10
43.0001
 20
65
 30
0
 11
46.0001
 21
65
 31
0
  0
LINE
  5
372
330
112
100
AcDbEntity
  8
View013
100
AcDbLine
 10
57.0001
 20
65
 30
0
 11
57.0001
 21
27
 31
0
  0
LINE
  5
373
330
112
100
AcDbEntity
  8
View013
100
AcDbLine
 10
57.0001
 20
27
 30
0
 11
54.0001
 21
27
 31
0
  0
LINE
  5
374
330
112
100
AcDbEntity
  8
View013
100
AcDbLine
 10
54.0001
 20
23
 30
0
 11
54.0001
 21
27
 31
0
  0
LINE
  5
375
330
112
100
AcDbEntity
  8
View013
100
AcDbLine
 10
46.0001
 20
23
 30
0
 11
45.9999
 21
23
 31
0
  0
LINE
  5
376
330
112
100
AcDbEntity
  8
View013
100
AcDbLine
 10
54.0001
 20
23
 30
0
 11
46.0001
 21
23
 31
0
  0
LINE
  5
377
330
112
100
AcDbEntity
  8
View013
100
AcDbLine
 10
46.0001
 20
23
 30
0
 11
46.0001
 21
27
 31
0
  0
LINE
  5
378
330
112
100
AcDbEntity
  8
View013
100
AcDbLine
 10
45.9999
 20
23
 30
0
 11
45.9999
 21
27
 31
0
  0
LINE
  5
379
330
112
100
AcDbEntity
  8
View013
100
AcDbLine
 10
43.0001
 20
27
 30
0
 11
42.9999
 21
27
 31
0
  0
LINE
  5
37A
330
112
100
AcDbEntity
  8
View013
100
AcDbLine
 10
43.0001
 20
27
 30
0
 11
46.0001
 21
27
 31
0
  0
LINE
  5
37B
330
112
100
AcDbEntity
  8
View013
100
AcDbLine
 10
43.0001
 20
65
 30
0
 11
43.0001
 21
27
 31
0
  0
LINE
  5
37C
330
112
100
AcDbEntity
  8
View013
100
AcDbLine
 10
42.9999
 20
27
 30
0
 11
42.9999
 21
65
 31
0
  0
LINE
  5
37D
330
112
100
AcDbEntity
  8
View014
100
AcDbLine
 10
84.0001
 20
65
 30
0
 11
81.0001
 21
65
 31
0
  0
LINE
  5
37E
330
112
100
AcDbEntity
  8
View014
100
AcDbLine
 10
81.0001
 20
69
 30
0
 11
81.0001
 21
65
 31
0
  0
LINE
  5
37F
330
112
100
AcDbEntity
  8
View014
100
AcDbLine
 10
73.0001
 20
69
 30
0
 11
72.9999
 21
69
 31
0
  0
LINE
  5
380
330
112
100
AcDbEntity
  8
View014
100
AcDbLine
 10
81.0001
 20
69
 30
0
 11
73.0001
 21
69
 31
0
  0
LINE
  5
381
330
112
100
AcDbEntity
  8
View014
100
AcDbLine
 10
73.0001
 20
69
 30
0
 11
73.0001
 21
65
 31
0
  0
LINE
  5
382
330
112
100
AcDbEntity
  8
View014
100
AcDbLine
 10
72.9999
 20
69
 30
0
 11
72.9999
 21
65
 31
0
  0
LINE
  5
383
330
112
100
AcDbEntity
  8
View014
100
AcDbLine
 10
70.0001
 20
65
 30
0
 11
69.9999
 21
65
 31
0
  0
LINE
  5
384
330
112
100
AcDbEntity
  8
View014
100
AcDbLine
 10
70.0001
 20
65
 30
0
 11
73.0001
 21
65
 31
0
  0
LINE
  5
385
330
112
100
AcDbEntity
  8
View014
100
AcDbLine
 10
84.0001
 20
65
 30
0
 11
84.0001
 21
27
 31
0
  0
LINE
  5
386
330
112
100
AcDbEntity
  8
View014
100
AcDbLine
 10
84.0001
 20
27
 30
0
 11
81.0001
 21
27
 31
0
  0
LINE
  5
387
330
112
100
AcDbEntity
  8
View014
100
AcDbLine
 10
81.0001
 20
23
 30
0
 11
81.0001
 21
27
 31
0
  0
LINE
  5
388
330
112
100
AcDbEntity
  8
View014
100
AcDbLine
 10
73.0001
 20
23
 30
0
 11
72.9999
 21
23
 31
0
  0
LINE
  5
389
330
112
100
AcDbEntity
  8
View014
100
AcDbLine
 10
81.0001
 20
23
 30
0
 11
73.0001
 21
23
 31
0
  0
LINE
  5
38A
330
112
100
AcDbEntity
  8
View014
100
AcDbLine
 10
73.0001
 20
23
 30
0
 11
73.0001
 21
27
 31
0
  0
LINE
  5
38B
330
112
100
AcDbEntity
  8
View014
100
AcDbLine
 10
72.9999
 20
23
 30
0
 11
72.9999
 21
27
 31
0
  0
LINE
  5
38C
330
112
100
AcDbEntity
  8
View014
100
AcDbLine
 10
70.0001
 20
27
 30
0
 11
69.9999
 21
27
 31
0
  0
LINE
  5
38D
330
112
100
AcDbEntity
  8
View014
100
AcDbLine
 10
70.0001
 20
27
 30
0
 11
73.0001
 21
27
 31
0
  0
LINE
  5
38E
330
112
100
AcDbEntity
  8
View014
100
AcDbLine
 10
70.0001
 20
65
 30
0
 11
70.0001
 21
27
 31
0
  0
LINE
  5
38F
330
112
100
AcDbEntity
  8
View014
100
AcDbLine
 10
69.9999
 20
27
 30
0
 11
69.9999
 21
65
 31
0
  0
LINE
  5
390
330
112
100
AcDbEntity
  8
View015
100
AcDbLine
 10
107
 20
65
 30
0
 11
104
 21
65
 31
0
  0
LINE
  5
391
330
112
100
AcDbEntity
  8
View015
100
AcDbLine
 10
104
 20
69
 30
0
 11
104
 21
65
 31
0
  0
LINE
  5
392
330
112
100
AcDbEntity
  8
View015
100
AcDbLine
 10
96.0001
 20
69
 30
0
 11
95.9999
 21
69
 31
0
  0
LINE
  5
393
330
112
100
AcDbEntity
  8
View015
100
AcDbLine
 10
104
 20
69
 30
0
 11
96.0001
 21
69
 31
0
  0
LINE
  5
394
330
112
100
AcDbEntity
  8
View015
100
AcDbLine
 10
96.0001
 20
69
 30
0
 11
96.0001
 21
65
 31
0
  0
LINE
  5
395
330
112
100
AcDbEntity
  8
View015
100
AcDbLine
 10
95.9999
 20
69
 30
0
 11
95.9999
 21
65
 31
0
  0
LINE
  5
396
330
112
100
AcDbEntity
  8
View015
100
AcDbLine
 10
93.0001
 20
65
 30
0
 11
92.9999
 21
65
 31
0
  0
LINE
  5
397
330
112
100
AcDbEntity
  8
View015
100
AcDbLine
 10
93.0001
 20
65
 30
0
 11
96.0001
 21
65
 31
0
  0
LINE
  5
398
330
112
100
AcDbEntity
  8
View015
100
AcDbLine
 10
107
 20
65
 30
0
 11
107
 21
27
 31
0
  0
LINE
  5
399
330
112
100
AcDbEntity
  8
View015
100
AcDbLine
 10
107
 20
27
 30
0
 11
104
 21
27
 31
0
  0
LINE
  5
39A
330
112
100
AcDbEntity
  8
View015
100
AcDbLine
 10
104
 20
23
 30
0
 11
104
 21
27
 31
0
  0
LINE
  5
39B
330
112
100
AcDbEntity
  8
View015
100
AcDbLine
 10
96.0001
 20
23
 30
0
 11
95.9999
 21
23
 31
0
  0
LINE
  5
39C
330
112
100
AcDbEntity
  8
View015
100
AcDbLine
 10
104
 20
23
 30
0
 11
96.0001
 21
23
 31
0
  0
LINE
  5
39D
330
112
100
AcDbEntity
  8
View015
100
AcDbLine
 10
96.0001
 20
23
 30
0
 11
96.0001
 21
27
 31
0
  0
LINE
  5
39E
330
112
100
AcDbEntity
  8
View015
100
AcDbLine
 10
95.9999
 20
23
 30
0
 11
95.9999
 21
27
 31
0
  0
LINE
  5
39F
330
112
100
AcDbEntity
  8
View015
100
AcDbLine
 10
93.0001
 20
27
 30
0
 11
92.9999
 21
27
 31
0
  0
LINE
  5
3A0
330
112
100
AcDbEntity
  8
View015
100
AcDbLine
 10
93.0001
 20
27
 30
0
 11
96.0001
 21
27
 31
0
  0
LINE
  5
3A1
330
112
100
AcDbEntity
  8
View015
100
AcDbLine
 10
93.0001
 20
65
 30
0
 11
93.0001
 21
27
 31
0
  0
LINE
  5
3A2
330
112
100
AcDbEntity
  8
View015
100
AcDbLine
 10
92.9999
 20
27
 30
0
 11
92.9999
 21
65
 31
0
  0
ARC
  5
3A3
330
112
100
AcDbEntity
  8
View016
100
AcDbCircle
 10
248.832
 20
189.425
 30
0
 40
6
100
AcDbArc
 50
-55
 51
-28.5862
  0
ARC
  5
3A4
330
112
100
AcDbEntity
  8
View016
100
AcDbCircle
 10
261.126
 20
182.727
 30
0
 40
8
100
AcDbArc
 50
8.58616
 51
151.414
  0
ARC
  5
3A5
330
112
100
AcDbEntity
  8
View016
100
AcDbCircle
 10
274.969
 20
184.817
 30
0
 40
6
100
AcDbArc
 50
-171.414
 51
-145
  0
LINE
  5
3A6
330
112
100
AcDbEntity
  8
View016
100
AcDbLine
 10
277.51
 20
170.726
 30
0
 11
270.054
 21
181.375
 31
0
  0
LINE
  5
3A7
330
112
100
AcDbEntity
  8
View016
100
AcDbLine
 10
252.274
 20
184.51
 30
0
 11
241.625
 21
177.054
 31
0
  0
ARC
  5
3A8
330
112
100
AcDbEntity
  8
View016
100
AcDbCircle
 10
238.183
 20
181.969
 30
0
 40
6
100
AcDbArc
 50
-81.4138
 51
-55
  0
ARC
  5
3A9
330
112
100
AcDbEntity
  8
View016
100
AcDbCircle
 10
240.273
 20
168.126
 30
0
 40
8
100
AcDbArc
 50
98.5862
 51
-118.586
  0
ARC
  5
3AA
330
112
100
AcDbEntity
  8
View016
100
AcDbCircle
 10
233.575
 20
155.832
 30
0
 40
6
100
AcDbArc
 50
35
 51
61.4138
  0
LINE
  5
3AB
330
112
100
AcDbEntity
  8
View016
100
AcDbLine
 10
238.49
 20
159.274
 30
0
 11
245.946
 21
148.625
 31
0
  0
ARC
  5
3AC
330
112
100
AcDbEntity
  8
View016
100
AcDbCircle
 10
241.031
 20
145.183
 30
0
 40
6
100
AcDbArc
 50
8.58616
 51
35
  0
ARC
  5
3AD
330
112
100
AcDbEntity
  8
View016
100
AcDbCircle
 10
254.874
 20
147.273
 30
0
 40
8
100
AcDbArc
 50
-171.414
 51
-28.5862
  0
ARC
  5
3AE
330
112
100
AcDbEntity
  8
View016
100
AcDbCircle
 10
267.168
 20
140.575
 30
0
 40
6
100
AcDbArc
 50
125
 51
151.414
  0
LINE
  5
3AF
330
112
100
AcDbEntity
  8
View016
100
AcDbLine
 10
263.726
 20
145.49
 30
0
 11
274.375
 21
152.946
 31
0
  0
ARC
  5
3B0
330
112
100
AcDbEntity
  8
View016
100
AcDbCircle
 10
277.817
 20
148.031
 30
0
 40
6
100
AcDbArc
 50
98.5862
 51
125
  0
ARC
  5
3B1
330
112
100
AcDbEntity
  8
View016
100
AcDbCircle
 10
275.727
 20
161.874
 30
0
 40
8
100
AcDbArc
 50
-81.4138
 51
61.4138
  0
ARC
  5
3B2
330
112
100
AcDbEntity
  8
View016
100
AcDbCircle
 10
282.425
 20
174.168
 30
0
 40
6
100
AcDbArc
 50
-145
 51
-118.586
  0
LINE
  5
3B3
330
112
100
AcDbEntity
  8
View016
100
AcDbLine
 10
269
 20
154
 30
0
 11
247
 21
154
 31
0
  0
LINE
  5
3B4
330
112
100
AcDbEntity
  8
View016
100
AcDbLine
 10
247
 20
154
 30
0
 11
247
 21
176
 31
0
  0
LINE
  5
3B5
330
112
100
AcDbEntity
  8
View016
100
AcDbLine
 10
247
 20
176
 30
0
 11
269
 21
176
 31
0
  0
LINE
  5
3B6
330
112
100
AcDbEntity
  8
View016
100
AcDbLine
 10
269
 20
176
 30
0
 11
269
 21
154
 31
0
  0
LINE
  5
3B7
330
112
100
AcDbEntity
  8
View016
100
AcDbLine
 10
270.699
 20
152.455
 30
0
 11
263.182
 21
149.719
 31
0
  0
LINE
  5
3B8
330
112
100
AcDbEntity
  8
View016
100
AcDbLine
 10
263.182
 20
149.719
 30
0
 11
262.84
 21
150.658
 31
0
  0
LINE
  5
3B9
330
112
100
AcDbEntity
  8
View016
100
AcDbLine
 10
262.84
 20
150.658
 30
0
 11
270.357
 21
153.395
 31
0
  0
LINE
  5
3BA
330
112
100
AcDbEntity
  8
View016
100
AcDbLine
 10
270.357
 20
153.395
 30
0
 11
270.699
 21
152.455
 31
0
  0
LINE
  5
3BB
330
112
100
AcDbEntity
  8
View016
100
AcDbLine
 10
253.16
 20
179.342
 30
0
 11
245.643
 21
176.605
 31
0
  0
LINE
  5
3BC
330
112
100
AcDbEntity
  8
View016
100
AcDbLine
 10
245.643
 20
176.605
 30
0
 11
245.301
 21
177.545
 31
0
  0
LINE
  5
3BD
330
112
100
AcDbEntity
  8
View016
100
AcDbLine
 10
245.301
 20
177.545
 30
0
 11
252.818
 21
180.281
 31
0
  0
LINE
  5
3BE
330
112
100
AcDbEntity
  8
View016
100
AcDbLine
 10
252.818
 20
180.281
 30
0
 11
253.16
 21
179.342
 31
0
  0
LINE
  5
3BF
330
112
100
AcDbEntity
  8
View016
100
AcDbLine
 10
243.658
 20
160.16
 30
0
 11
246.395
 21
152.643
 31
0
  0
LINE
  5
3C0
330
112
100
AcDbEntity
  8
View016
100
AcDbLine
 10
246.395
 20
152.643
 30
0
 11
245.455
 21
152.301
 31
0
  0
LINE
  5
3C1
330
112
100
AcDbEntity
  8
View016
100
AcDbLine
 10
245.455
 20
152.301
 30
0
 11
242.719
 21
159.818
 31
0
  0
LINE
  5
3C2
330
112
100
AcDbEntity
  8
View016
100
AcDbLine
 10
242.719
 20
159.818
 30
0
 11
243.658
 21
160.16
 31
0
  0
LINE
  5
3C3
330
112
100
AcDbEntity
  8
View016
100
AcDbLine
 10
272.342
 20
169.84
 30
0
 11
269.605
 21
177.357
 31
0
  0
LINE
  5
3C4
330
112
100
AcDbEntity
  8
View016
100
AcDbLine
 10
269.605
 20
177.357
 30
0
 11
270.545
 21
177.699
 31
0
  0
LINE
  5
3C5
330
112
100
AcDbEntity
  8
View016
100
AcDbLine
 10
270.545
 20
177.699
 30
0
 11
273.281
 21
170.182
 31
0
  0
LINE
  5
3C6
330
112
100
AcDbEntity
  8
View016
100
AcDbLine
 10
273.281
 20
170.182
 30
0
 11
272.342
 21
169.84
 31
0
  0
CIRCLE
  5
3C7
330
112
100
AcDbEntity
  8
View016
100
AcDbCircle
 10
275.956
 20
163.744
 40
1.65
  0
CIRCLE
  5
3C8
330
112
100
AcDbEntity
  8
View016
100
AcDbCircle
 10
259.256
 20
182.956
 40
1.65
  0
CIRCLE
  5
3C9
330
112
100
AcDbEntity
  8
View016
100
AcDbCircle
 10
240.044
 20
166.256
 40
1.65
  0
CIRCLE
  5
3CA
330
112
100
AcDbEntity
  8
View016
100
AcDbCircle
 10
256.744
 20
147.044
 40
1.65
  0
CIRCLE
  5
3CB
330
112
100
AcDbEntity
  8
View018
100
AcDbCircle
 10
40
 20
165
 40
26
  0
SPLINE
  5
3CC
330
112
100
AcDbEntity
  8
View018
100
AcDbSpline
210
0
220
0
230
1
 70
8
 71
1
 72
4
 73
2
 74
0
 40
0
 40
0
 40
1
 40
1
 10
47.4321
 20
174.614
 30
0
 10
33.7088
 20
174.614
 30
0
  0
SPLINE
  5
3CD
330
112
100
AcDbEntity
  8
View018
100
AcDbSpline
210
0
220
0
230
1
 70
8
 71
1
 72
4
 73
2
 74
0
 40
0
 40
0
 40
1
 40
1
 10
33.7088
 20
174.614
 30
0
 10
29.0122
 20
165.781
 30
0
  0
SPLINE
  5
3CE
330
112
100
AcDbEntity
  8
View018
100
AcDbSpline
210
0
220
0
230
1
 70
8
 71
1
 72
4
 73
2
 74
0
 40
0
 40
0
 40
1
 40
1
 10
29.0122
 20
165.781
 30
0
 10
33.7349
 20
155.653
 30
0
  0
SPLINE
  5
3CF
330
112
100
AcDbEntity
  8
View018
100
AcDbSpline
210
0
220
0
230
1
 70
8
 71
1
 72
4
 73
2
 74
0
 40
0
 40
0
 40
1
 40
1
 10
33.7349
 20
155.653
 30
0
 10
45.4082
 20
155.449
 30
0
  0
SPLINE
  5
3D0
330
112
100
AcDbEntity
  8
View018
100
AcDbSpline
210
0
220
0
230
1
 70
8
 71
1
 72
4
 73
2
 74
0
 40
0
 40
0
 40
1
 40
1
 10
45.4082
 20
155.449
 30
0
 10
52.2707
 20
166.871
 30
0
  0
SPLINE
  5
3D1
330
112
100
AcDbEntity
  8
View018
100
AcDbSpline
210
0
220
0
230
1
 70
8
 71
1
 72
4
 73
2
 74
0
 40
0
 40
0
 40
1
 40
1
 10
52.2707
 20
166.871
 30
0
 10
47.4321
 20
174.614
 30
0
  0
ENDSEC
  0
SECTION
  2
OBJECTS
  0
DICTIONARY
  5
500
330
0
100
AcDbDictionary
  3
ACAD_GROUP
350
501
  0
DICTIONARY
  5
501
330
500
100
AcDbDictionary
  0
ENDSEC
  0
EOF