  0
SECTION
  2
HEADER
  9
$ACADVER
  1
AC1014
  9
$HANDSEED
  5
FFFF
  9
$MEASUREMENT
 70
     1
  0
ENDSEC
  0
SECTION
  2
TABLES
  0
TABLE
  2
VPORT
  5
8
330
0
100
AcDbSymbolTable
 70
     4
  0
VPORT
  5
2E
330
8
100
AcDbSymbolTableRecord
100
AcDbViewportTableRecord
  2
*ACTIVE
 70
     0
 10
0.0
 20
0.0
 11
1.0
 21
1.0
 12
210.0
 22
148.5
 13
0.0
 23
0.0
 14
10.0
 24
10.0
 15
10.0
 25
10.0
 16
0.0
 26
0.0
 36
1.0
 17
0.0
 27
0.0
 37
0.0
 40
341.0
 41
1.24
 42
50.0
 43
0.0
 44
0.0
 50
0.0
 51
0.0
 71
     0
 72
   100
 73
     1
 74
     3
 75
     0
 76
     0
 77
     0
 78
     0
  0
ENDTAB
  0
TABLE
  2
LTYPE
  5
5
330
0
100
AcDbSymbolTable
 70
     1
  0
LTYPE
  5
14
330
5
100
AcDbSymbolTableRecord
100
AcDbLinetypeTableRecord
  2
BYBLOCK
 70
     0
  3

 72
    65
 73
     0
 40
0.0
  0
LTYPE
  5
15
330
5
100
AcDbSymbolTableRecord
100
AcDbLinetypeTableRecord
  2
BYLAYER
 70
     0
  3

 72
    65
 73
     0
 40
0.0
  0
LTYPE
  5
16
330
5
100
AcDbSymbolTableRecord
100
AcDbLinetypeTableRecord
  2
CONTINUOUS
 70
     0
  3
Solid line
 72
    65
 73
     0
 40
0.0
  0
ENDTAB
  0
TABLE
  2
LAYER
  5
2
100
AcDbSymbolTable
 70
2
  0
LAYER
  5
50
100
AcDbSymbolTableRecord
100
AcDbLayerTableRecord
  2
0
 70
0
  6
CONTINUOUS
  0
LAYER
  5
51
100
AcDbSymbolTableRecord
100
AcDbLayerTableRecord
  2
View004
 70
0
  6
CONTINUOUS
  0
ENDTAB
  0
TABLE
  2
STYLE
  5
3
330
0
100
AcDbSymbolTable
 70
     1
  0
STYLE
  5
11
330
3
100
AcDbSymbolTableRecord
100
AcDbTextStyleTableRecord
  2
STANDARD
 70
     0
 40
0.0
 41
1.0
 50
0.0
 71
     0
 42
2.5
  3
txt
  4

  0
ENDTAB
  0
TABLE
  2
VIEW
  5
6
330
0
100
AcDbSymbolTable
 70
     0
  0
ENDTAB
  0
TABLE
  2
UCS
  5
7
330
0
100
AcDbSymbolTable
 70
     0
  0
ENDTAB
  0
TABLE
  2
APPID
  5
9
330
0
100
AcDbSymbolTable
 70
     2
  0
APPID
  5
12
330
9
100
AcDbSymbolTableRecord
100
AcDbRegAppTableRecord
  2
ACAD
 70
     0
  0
ENDTAB
  0
TABLE
  2
DIMSTYLE
  5
A
330
0
100
AcDbSymbolTable
 70
     1
  0
DIMSTYLE
105
27
330
A
100
AcDbSymbolTableRecord
100
AcDbDimStyleTableRecord
  2
ISO-25
 70
     0
  3

  4

  5

  6

  7

 40
1.0
 41
2.5
 42
0.625
 43
3.75
 44
1.25
 45
0.0
 46
0.0
 47
0.0
 48
0.0
140
2.5
141
2.5
142
0.0
143
0.03937007874016
144
1.0
145
0.0
146
1.0
147
0.625
 71
     0
 72
     0
 73
     0
 74
     0
 75
     0
 76
     0
 77
     1
 78
     8
170
     0
171
     3
172
     1
173
     0
174
     0
175
     0
176
     0
177
     0
178
     0
270
     2
271
     2
272
     2
273
     2
274
     3
340
11
275
     0
280
     0
281
     0
282
     0
283
     0
284
     8
285
     0
286
     0
287
     3
288
     0
  0
ENDTAB
  0
TABLE
  2
BLOCK_RECORD
  5
1
330
0
100
AcDbSymbolTable
 70
     1
  0
BLOCK_RECORD
  5
1F
330
1
100
AcDbSymbolTableRecord
100
AcDbBlockTableRecord
  2
*MODEL_SPACE
  0
BLOCK_RECORD
  5
1B
330
1
100
AcDbSymbolTableRecord
100
AcDbBlockTableRecord
  2
*PAPER_SPACE
  0
ENDTAB
  0
ENDSEC
  0
SECTION
  2
BLOCKS
  0
BLOCK
  5
20
330
1F
100
AcDbEntity
  8
0
100
AcDbBlockBegin
  2
*MODEL_SPACE
 70
     0
 10
0.0
 20
0.0
 30
0.0
  3
*MODEL_SPACE
  1

  0
ENDBLK
  5
21
330
1F
100
AcDbEntity
  8
0
100
AcDbBlockEnd
  0
BLOCK
  5
1C
330
1B
100
AcDbEntity
 67
     1
  8
0
100
AcDbBlockBegin
  2
*PAPER_SPACE
  1

  0
ENDBLK
  5
1D
330
1B
100
AcDbEntity
 67
     1
  8
0
100
AcDbBlockEnd
  0
ENDSEC
  0
SECTION
  2
ENTITIES
  0
SPLINE
  5
100
100
AcDbEntity
  8
View004
 62
7
100
AcDbSpline
 70
8
 71
3
 72
8
 73
4
 74
0
 40
0
 40
0
 40
0
 40
0
 40
1
 40
1
 40
1
 40
1
 10
142.773458
 20
124.510087
 30
0.0
 10
143.532091
 20
125.041288
 30
0.0
 10
144.157459
 20
125.740893
 30
0.0
 10
144.600589
 20
126.554118
 30
0.0
  0
SPLINE
  5
101
100
AcDbEntity
  8
View004
 62
7
100
AcDbSpline
 70
8
 71
3
 72
8
 73
4
 74
0
 40
0
 40
0
 40
0
 40
0
 40
1
 40
1
 40
1
 40
1
 10
159.536339
 20
123.921373
 30
0.0
 10
159.023404
 20
127.318546
 30
0.0
 10
156.398656
 20
130.008871
 30
0.0
 10
153.015173
 20
130.605465
 30
0.0
  0
SPLINE
  5
102
100
AcDbEntity
  8
View004
 62
7
100
AcDbSpline
 70
8
 71
3
 72
8
 73
4
 74
0
 40
0
 40
0
 40
0
 40
0
 40
1
 40
1
 40
1
 40
1
 10
153.015173
 20
130.605465
 30
0.0
 10
149.631690
 20
131.202059
 30
0.0
 10
146.245094
 20
129.571687
 30
0.0
 10
144.601200
 20
126.554819
 30
0.0
  0
SPLINE
  5
103
100
AcDbEntity
  8
View004
 62
7
100
AcDbSpline
 70
8
 71
3
 72
8
 73
4
 74
0
 40
0
 40
0
 40
0
 40
0
 40
1
 40
1
 40
1
 40
1
 10
159.536244
 20
123.921238
 30
0.0
 10
159.674508
 20
123.005491
 30
0.0
 10
160.022884
 20
122.134181
 30
0.0
 10
160.554088
 20
121.375542
 30
0.0
  0
LINE
  5
104
100
AcDbEntity
  8
View004
 62
7
100
AcDbLine
 10
168.009999
 20
110.725999
 30
0.0
 11
160.554001
 21
121.374999
 31
0.0
  0
LINE
  5
105
100
AcDbEntity
  8
View004
 62
7
100
AcDbLine
 10
142.774001
 20
124.510000
 30
0.0
 11
132.125000
 21
117.053999
 31
0.0
  0
SPLINE
  5
106
100
AcDbEntity
  8
View004
 62
7
100
AcDbSpline
 70
8
 71
3
 72
8
 73
4
 74
0
 40
0
 40
0
 40
0
 40
0
 40
1
 40
1
 40
1
 40
1
 10
129.578783
 20
116.036245
 30
0.0
 10
130.494523
 20
116.174512
 30
0.0
 10
131.365825
 20
116.522886
 30
0.0
 10
132.124458
 20
117.054086
 30
0.0
  0
SPLINE
  5
107
100
AcDbEntity
  8
View004
 62
7
100
AcDbSpline
 70
8
 71
3
 72
8
 73
4
 74
0
 40
0
 40
0
 40
0
 40
0
 40
1
 40
1
 40
1
 40
1
 10
129.578621
 20
116.036340
 30
0.0
 10
126.181450
 20
115.523404
 30
0.0
 10
123.491126
 20
112.898655
 30
0.0
 10
122.894533
 20
109.515172
 30
0.0
  0
SPLINE
  5
108
100
AcDbEntity
  8
View004
 62
7
100
AcDbSpline
 70
8
 71
3
 72
8
 73
4
 74
0
 40
0
 40
0
 40
0
 40
0
 40
1
 40
1
 40
1
 40
1
 10
122.894533
 20
109.515172
 30
0.0
 10
122.297940
 20
106.131689
 30
0.0
 10
123.928313
 20
102.745094
 30
0.0
 10
126.945181
 20
101.101201
 30
0.0
  0
SPLINE
  5
109
100
AcDbEntity
  8
View004
 62
7
100
AcDbSpline
 70
8
 71
3
 72
8
 73
4
 74
0
 40
0
 40
0
 40
0
 40
0
 40
1
 40
1
 40
1
 40
1
 10
128.989913
 20
99.273758
 30
0.0
 10
128.458712
 20
100.032391
 30
0.0
 10
127.759106
 20
100.657759
 30
0.0
 10
126.945882
 20
101.100889
 30
0.0
  0
LINE
  5
10a
100
AcDbEntity
  8
View004
 62
7
100
AcDbLine
 10
128.990000
 20
99.273700
 30
0.0
 11
136.446001
 21
88.624800
 31
0.0
  0
SPLINE
  5
10b
100
AcDbEntity
  8
View004
 62
7
100
AcDbSpline
 70
8
 71
3
 72
8
 73
4
 74
0
 40
0
 40
0
 40
0
 40
0
 40
1
 40
1
 40
1
 40
1
 10
137.463755
 20
86.079080
 30
0.0
 10
137.325488
 20
86.994821
 30
0.0
 10
136.977114
 20
87.866124
 30
0.0
 10
136.445913
 20
88.624758
 30
0.0
  0
SPLINE
  5
10c
100
AcDbEntity
  8
View004
 62
7
100
AcDbSpline
 70
8
 71
3
 72
8
 73
4
 74
0
 40
0
 40
0
 40
0
 40
0
 40
1
 40
1
 40
1
 40
1
 10
137.463657
 20
86.079151
 30
0.0
 10
137.976581
 20
82.681978
 30
0.0
 10
140.601320
 20
79.991646
 30
0.0
 10
143.984800
 20
79.395040
 30
0.0
  0
SPLINE
  5
10d
100
AcDbEntity
  8
View004
 62
7
100
AcDbSpline
 70
8
 71
3
 72
8
 73
4
 74
0
 40
0
 40
0
 40
0
 40
0
 40
1
 40
1
 40
1
 40
1
 10
143.984800
 20
79.395040
 30
0.0
 10
147.368280
 20
78.798435
 30
0.0
 10
150.754881
 20
80.428794
 30
0.0
 10
152.398786
 20
83.445656
 30
0.0
  0
SPLINE
  5
10e
100
AcDbEntity
  8
View004
 62
7
100
AcDbSpline
 70
8
 71
3
 72
8
 73
4
 74
0
 40
0
 40
0
 40
0
 40
0
 40
1
 40
1
 40
1
 40
1
 10
154.226540
 20
85.489612
 30
0.0
 10
153.467902
 20
84.958407
 30
0.0
 10
152.842530
 20
84.258795
 30
0.0
 10
152.399399
 20
83.445563
 30
0.0
  0
LINE
  5
10f
100
AcDbEntity
  8
View004
 62
7
100
AcDbLine
 10
154.226001
 20
85.489699
 30
0.0
 11
164.875001
 21
92.946200
 31
0.0
  0
SPLINE
  5
110
100
AcDbEntity
  8
View004
 62
7
100
AcDbSpline
 70
8
 71
3
 72
8
 73
4
 74
0
 40
0
 40
0
 40
0
 40
0
 40
1
 40
1
 40
1
 40
1
 10
167.421216
 20
93.963954
 30
0.0
 10
166.505476
 20
93.825687
 30
0.0
 10
165.634174
 20
93.477313
 30
0.0
 10
164.875541
 20
92.946113
 30
0.0
  0
SPLINE
  5
111
100
AcDbEntity
  8
View004
 62
7
100
AcDbSpline
 70
8
 71
3
 72
8
 73
4
 74
0
 40
0
 40
0
 40
0
 40
0
 40
1
 40
1
 40
1
 40
1
 10
167.421377
 20
93.963661
 30
0.0
 10
170.818544
 20
94.476596
 30
0.0
 10
173.508866
 20
97.101337
 30
0.0
 10
174.105464
 20
100.484814
 30
0.0
  0
SPLINE
  5
112
100
AcDbEntity
  8
View004
 62
7
100
AcDbSpline
 70
8
 71
3
 72
8
 73
4
 74
0
 40
0
 40
0
 40
0
 40
0
 40
1
 40
1
 40
1
 40
1
 10
174.105464
 20
100.484814
 30
0.0
 10
174.702063
 20
103.868291
 30
0.0
 10
173.071703
 20
107.254885
 30
0.0
 10
170.054844
 20
108.898787
 30
0.0
  0
SPLINE
  5
113
100
AcDbEntity
  8
View004
 62
7
100
AcDbSpline
 70
8
 71
3
 72
8
 73
4
 74
0
 40
0
 40
0
 40
0
 40
0
 40
1
 40
1
 40
1
 40
1
 10
168.010089
 20
110.726541
 30
0.0
 10
168.541293
 20
109.967903
 30
0.0
 10
169.240904
 20
109.342531
 30
0.0
 10
170.054135
 20
108.899400
 30
0.0
  0
LINE
  5
114
100
AcDbEntity
  8
View004
 62
7
100
AcDbLine
 10
156.499999
 20
97.000000
 30
0.0
 11
140.499999
 21
97.000000
 31
0.0
  0
LINE
  5
115
100
AcDbEntity
  8
View004
 62
7
100
AcDbLine
 10
140.499999
 20
97.000000
 30
0.0
 11
140.499999
 21
113.000000
 31
0.0
  0
LINE
  5
116
100
AcDbEntity
  8
View004
 62
7
100
AcDbLine
 10
140.499999
 20
113.000000
 30
0.0
 11
156.499999
 21
113.000000
 31
0.0
  0
LINE
  5
117
100
AcDbEntity
  8
View004
 62
7
100
AcDbLine
 10
156.499999
 20
113.000000
 30
0.0
 11
156.499999
 21
97.000000
 31
0.0
  0
LINE
  5
118
100
AcDbEntity
  8
View004
 62
7
100
AcDbLine
 10
161.198999
 20
92.454800
 30
0.0
 11
153.681999
 21
89.718699
 31
0.0
  0
LINE
  5
119
100
AcDbEntity
  8
View004
 62
7
100
AcDbLine
 10
153.681999
 20
89.718699
 30
0.0
 11
153.340001
 21
90.658401
 31
0.0
  0
LINE
  5
11a
100
AcDbEntity
  8
View004
 62
7
100
AcDbLine
 10
153.340001
 20
90.658401
 30
0.0
 11
160.857001
 21
93.394500
 31
0.0
  0
LINE
  5
11b
100
AcDbEntity
  8
View004
 62
7
100
AcDbLine
 10
160.857001
 20
93.394500
 30
0.0
 11
161.198999
 21
92.454800
 31
0.0
  0
LINE
  5
11c
100
AcDbEntity
  8
View004
 62
7
100
AcDbLine
 10
143.660000
 20
119.341999
 30
0.0
 11
136.143000
 21
116.605001
 31
0.0
  0
LINE
  5
11d
100
AcDbEntity
  8
View004
 62
7
100
AcDbLine
 10
136.143000
 20
116.605001
 30
0.0
 11
135.800999
 21
117.545000
 31
0.0
  0
LINE
  5
11e
100
AcDbEntity
  8
View004
 62
7
100
AcDbLine
 10
135.800999
 20
117.545000
 30
0.0
 11
143.318000
 21
120.281000
 31
0.0
  0
LINE
  5
11f
100
AcDbEntity
  8
View004
 62
7
100
AcDbLine
 10
143.318000
 20
120.281000
 30
0.0
 11
143.660000
 21
119.341999
 31
0.0
  0
LINE
  5
120
100
AcDbEntity
  8
View004
 62
7
100
AcDbLine
 10
134.158000
 20
100.159999
 30
0.0
 11
136.894999
 21
92.642601
 31
0.0
  0
LINE
  5
121
100
AcDbEntity
  8
View004
 62
7
100
AcDbLine
 10
136.894999
 20
92.642601
 30
0.0
 11
135.955000
 21
92.300601
 31
0.0
  0
LINE
  5
122
100
AcDbEntity
  8
View004
 62
7
100
AcDbLine
 10
135.955000
 20
92.300601
 30
0.0
 11
133.218999
 21
99.818101
 31
0.0
  0
LINE
  5
123
100
AcDbEntity
  8
View004
 62
7
100
AcDbLine
 10
133.218999
 20
99.818101
 30
0.0
 11
134.158000
 21
100.159999
 31
0.0
  0
LINE
  5
124
100
AcDbEntity
  8
View004
 62
7
100
AcDbLine
 10
162.842001
 20
109.839999
 30
0.0
 11
160.105000
 21
117.357000
 31
0.0
  0
LINE
  5
125
100
AcDbEntity
  8
View004
 62
7
100
AcDbLine
 10
160.105000
 20
117.357000
 30
0.0
 11
161.045001
 21
117.699000
 31
0.0
  0
LINE
  5
126
100
AcDbEntity
  8
View004
 62
7
100
AcDbLine
 10
161.045001
 20
117.699000
 30
0.0
 11
163.780999
 21
110.182000
 31
0.0
  0
LINE
  5
127
100
AcDbEntity
  8
View004
 62
7
100
AcDbLine
 10
163.780999
 20
110.182000
 30
0.0
 11
162.842001
 21
109.839999
 31
0.0
  0
SPLINE
  5
128
100
AcDbEntity
  8
View004
 62
7
100
AcDbSpline
 70
8
 71
3
 72
8
 73
4
 74
0
 40
0
 40
0
 40
0
 40
0
 40
1
 40
1
 40
1
 40
1
 10
168.106000
 20
103.743999
 30
0.0
 10
168.106236
 20
104.333645
 30
0.0
 10
167.791800
 20
104.878601
 30
0.0
 10
167.281191
 20
105.173492
 30
0.0
  0
SPLINE
  5
129
100
AcDbEntity
  8
View004
 62
7
100
AcDbSpline
 70
8
 71
3
 72
8
 73
4
 74
0
 40
0
 40
0
 40
0
 40
0
 40
1
 40
1
 40
1
 40
1
 10
167.281191
 20
105.173492
 30
0.0
 10
166.770582
 20
105.468383
 30
0.0
 10
166.141418
 20
105.468383
 30
0.0
 10
165.630809
 20
105.173492
 30
0.0
  0
SPLINE
  5
12a
100
AcDbEntity
  8
View004
 62
7
100
AcDbSpline
 70
8
 71
3
 72
8
 73
4
 74
0
 40
0
 40
0
 40
0
 40
0
 40
1
 40
1
 40
1
 40
1
 10
165.630809
 20
105.173492
 30
0.0
 10
165.120201
 20
104.878601
 30
0.0
 10
164.805764
 20
104.333645
 30
0.0
 10
164.806000
 20
103.743999
 30
0.0
  0
SPLINE
  5
12b
100
AcDbEntity
  8
View004
 62
7
100
AcDbSpline
 70
8
 71
3
 72
8
 73
4
 74
0
 40
0
 40
0
 40
0
 40
0
 40
1
 40
1
 40
1
 40
1
 10
164.806000
 20
103.743999
 30
0.0
 10
164.805764
 20
103.154354
 30
0.0
 10
165.120201
 20
102.609398
 30
0.0
 10
165.630809
 20
102.314507
 30
0.0
  0
SPLINE
  5
12c
100
AcDbEntity
  8
View004
 62
7
100
AcDbSpline
 70
8
 71
3
 72
8
 73
4
 74
0
 40
0
 40
0
 40
0
 40
0
 40
1
 40
1
 40
1
 40
1
 10
165.630809
 20
102.314507
 30
0.0
 10
166.141418
 20
102.019616
 30
0.0
 10
166.770582
 20
102.019616
 30
0.0
 10
167.281191
 20
102.314507
 30
0.0
  0
SPLINE
  5
12d
100
AcDbEntity
  8
View004
 62
7
100
AcDbSpline
 70
8
 71
3
 72
8
 73
4
 74
0
 40
0
 40
0
 40
0
 40
0
 40
1
 40
1
 40
1
 40
1
 10
167.281191
 20
102.314507
 30
0.0
 10
167.791800
 20
102.609398
 30
0.0
 10
168.106236
 20
103.154354
 30
0.0
 10
168.106000
 20
103.743999
 30
0.0
  0
LINE
  5
12e
100
AcDbEntity
  8
View004
 62
7
100
AcDbLine
 10
168.106000
 20
103.743999
 30
0.0
 11
168.106000
 21
103.743999
 31
0.0
  0
SPLINE
  5
12f
100
AcDbEntity
  8
View004
 62
7
100
AcDbSpline
 70
8
 71
3
 72
8
 73
4
 74
0
 40
0
 40
0
 40
0
 40
0
 40
1
 40
1
 40
1
 40
1
 10
151.406000
 20
122.956001
 30
0.0
 10
151.406236
 20
123.545647
 30
0.0
 10
151.091800
 20
124.090603
 30
0.0
 10
150.581191
 20
124.385494
 30
0.0
  0
SPLINE
  5
130
100
AcDbEntity
  8
View004
 62
7
100
AcDbSpline
 70
8
 71
3
 72
8
 73
4
 74
0
 40
0
 40
0
 40
0
 40
0
 40
1
 40
1
 40
1
 40
1
 10
150.581191
 20
124.385494
 30
0.0
 10
150.070582
 20
124.680385
 30
0.0
 10
149.441418
 20
124.680385
 30
0.0
 10
148.930809
 20
124.385494
 30
0.0
  0
SPLINE
  5
131
100
AcDbEntity
  8
View004
 62
7
100
AcDbSpline
 70
8
 71
3
 72
8
 73
4
 74
0
 40
0
 40
0
 40
0
 40
0
 40
1
 40
1
 40
1
 40
1
 10
148.930809
 20
124.385494
 30
0.0
 10
148.420201
 20
124.090603
 30
0.0
 10
148.105764
 20
123.545647
 30
0.0
 10
148.106000
 20
122.956001
 30
0.0
  0
SPLINE
  5
132
100
AcDbEntity
  8
View004
 62
7
100
AcDbSpline
 70
8
 71
3
 72
8
 73
4
 74
0
 40
0
 40
0
 40
0
 40
0
 40
1
 40
1
 40
1
 40
1
 10
148.106000
 20
122.956001
 30
0.0
 10
148.105764
 20
122.366356
 30
0.0
 10
148.420201
 20
121.821400
 30
0.0
 10
148.930809
 20
121.526509
 30
0.0
  0
SPLINE
  5
133
100
AcDbEntity
  8
View004
 62
7
100
AcDbSpline
 70
8
 71
3
 72
8
 73
4
 74
0
 40
0
 40
0
 40
0
 40
0
 40
1
 40
1
 40
1
 40
1
 10
148.930809
 20
121.526509
 30
0.0
 10
149.441418
 20
121.231618
 30
0.0
 10
150.070582
 20
121.231618
 30
0.0
 10
150.581191
 20
121.526509
 30
0.0
  0
SPLINE
  5
134
100
AcDbEntity
  8
View004
 62
7
100
AcDbSpline
 70
8
 71
3
 72
8
 73
4
 74
0
 40
0
 40
0
 40
0
 40
0
 40
1
 40
1
 40
1
 40
1
 10
150.581191
 20
121.526509
 30
0.0
 10
151.091800
 20
121.821400
 30
0.0
 10
151.406236
 20
122.366356
 30
0.0
 10
151.406000
 20
122.956001
 30
0.0
  0
LINE
  5
135
100
AcDbEntity
  8
View004
 62
7
100
AcDbLine
 10
151.406000
 20
122.956001
 30
0.0
 11
151.406000
 21
122.956001
 31
0.0
  0
SPLINE
  5
136
100
AcDbEntity
  8
View004
 62
7
100
AcDbSpline
 70
8
 71
3
 72
8
 73
4
 74
0
 40
0
 40
0
 40
0
 40
0
 40
1
 40
1
 40
1
 40
1
 10
132.194001
 20
106.256001
 30
0.0
 10
132.194237
 20
106.845647
 30
0.0
 10
131.879801
 20
107.390603
 30
0.0
 10
131.369192
 20
107.685494
 30
0.0
  0
SPLINE
  5
137
100
AcDbEntity
  8
View004
 62
7
100
AcDbSpline
 70
8
 71
3
 72
8
 73
4
 74
0
 40
0
 40
0
 40
0
 40
0
 40
1
 40
1
 40
1
 40
1
 10
131.369192
 20
107.685494
 30
0.0
 10
130.858583
 20
107.980385
 30
0.0
 10
130.229419
 20
107.980385
 30
0.0
 10
129.718810
 20
107.685494
 30
0.0
  0
SPLINE
  5
138
100
AcDbEntity
  8
View004
 62
7
100
AcDbSpline
 70
8
 71
3
 72
8
 73
4
 74
0
 40
0
 40
0
 40
0
 40
0
 40
1
 40
1
 40
1
 40
1
 10
129.718810
 20
107.685494
 30
0.0
 10
129.208202
 20
107.390603
 30
0.0
 10
128.893765
 20
106.845647
 30
0.0
 10
128.894001
 20
106.256001
 30
0.0
  0
SPLINE
  5
139
100
AcDbEntity
  8
View004
 62
7
100
AcDbSpline
 70
8
 71
3
 72
8
 73
4
 74
0
 40
0
 40
0
 40
0
 40
0
 40
1
 40
1
 40
1
 40
1
 10
128.894001
 20
106.256001
 30
0.0
 10
128.893765
 20
105.666356
 30
0.0
 10
129.208202
 20
105.121400
 30
0.0
 10
129.718810
 20
104.826509
 30
0.0
  0
SPLINE
  5
13a
100
AcDbEntity
  8
View004
 62
7
100
AcDbSpline
 70
8
 71
3
 72
8
 73
4
 74
0
 40
0
 40
0
 40
0
 40
0
 40
1
 40
1
 40
1
 40
1
 10
129.718810
 20
104.826509
 30
0.0
 10
130.229419
 20
104.531618
 30
0.0
 10
130.858583
 20
104.531618
 30
0.0
 10
131.369192
 20
104.826509
 30
0.0
  0
SPLINE
  5
13b
100
AcDbEntity
  8
View004
 62
7
100
AcDbSpline
 70
8
 71
3
 72
8
 73
4
 74
0
 40
0
 40
0
 40
0
 40
0
 40
1
 40
1
 40
1
 40
1
 10
131.369192
 20
104.826509
 30
0.0
 10
131.879801
 20
105.121400
 30
0.0
 10
132.194237
 20
105.666356
 30
0.0
 10
132.194001
 20
106.256001
 30
0.0
  0
LINE
  5
13c
100
AcDbEntity
  8
View004
 62
7
100
AcDbLine
 10
132.194001
 20
106.256001
 30
0.0
 11
132.194001
 21
106.256001
 31
0.0
  0
SPLINE
  5
13d
100
AcDbEntity
  8
View004
 62
7
100
AcDbSpline
 70
8
 71
3
 72
8
 73
4
 74
0
 40
0
 40
0
 40
0
 40
0
 40
1
 40
1
 40
1
 40
1
 10
148.894000
 20
87.043801
 30
0.0
 10
148.894000
 20
87.633289
 30
0.0
 10
148.579512
 20
88.177999
 30
0.0
 10
148.069000
 20
88.472743
 30
0.0
  0
SPLINE
  5
13e
100
AcDbEntity
  8
View004
 62
7
100
AcDbSpline
 70
8
 71
3
 72
8
 73
4
 74
0
 40
0
 40
0
 40
0
 40
0
 40
1
 40
1
 40
1
 40
1
 10
148.069000
 20
88.472743
 30
0.0
 10
147.558488
 20
88.767487
 30
0.0
 10
146.929512
 20
88.767487
 30
0.0
 10
146.419000
 20
88.472743
 30
0.0
  0
SPLINE
  5
13f
100
AcDbEntity
  8
View004
 62
7
100
AcDbSpline
 70
8
 71
3
 72
8
 73
4
 74
0
 40
0
 40
0
 40
0
 40
0
 40
1
 40
1
 40
1
 40
1
 10
146.419000
 20
88.472743
 30
0.0
 10
145.908488
 20
88.177999
 30
0.0
 10
145.594000
 20
87.633289
 30
0.0
 10
145.594000
 20
87.043801
 30
0.0
  0
SPLINE
  5
140
100
AcDbEntity
  8
View004
 62
7
100
AcDbSpline
 70
8
 71
3
 72
8
 73
4
 74
0
 40
0
 40
0
 40
0
 40
0
 40
1
 40
1
 40
1
 40
1
 10
145.594000
 20
87.043801
 30
0.0
 10
145.594000
 20
86.454313
 30
0.0
 10
145.908489
 20
85.909603
 30
0.0
 10
146.419000
 20
85.614859
 30
0.0
  0
SPLINE
  5
141
100
AcDbEntity
  8
View004
 62
7
100
AcDbSpline
 70
8
 71
3
 72
8
 73
4
 74
0
 40
0
 40
0
 40
0
 40
0
 40
1
 40
1
 40
1
 40
1
 10
146.419000
 20
85.614859
 30
0.0
 10
146.929512
 20
85.320115
 30
0.0
 10
147.558489
 20
85.320115
 30
0.0
 10
148.069000
 20
85.614859
 30
0.0
  0
SPLINE
  5
142
100
AcDbEntity
  8
View004
 62
7
100
AcDbSpline
 70
8
 71
3
 72
8
 73
4
 74
0
 40
0
 40
0
 40
0
 40
0
 40
1
 40
1
 40
1
 40
1
 10
148.069000
 20
85.614859
 30
0.0
 10
148.579512
 20
85.909603
 30
0.0
 10
148.894000
 20
86.454313
 30
0.0
 10
148.894000
 20
87.043801
 30
0.0
  0
LINE
  5
143
100
AcDbEntity
  8
View004
 62
7
100
AcDbLine
 10
148.894000
 20
87.043801
 30
0.0
 11
148.894001
 21
87.043801
 31
0.0
  0
ENDSEC
  0
SECTION
  2
OBJECTS
  0
DICTIONARY
  5
C
330
0
100
AcDbDictionary
  3
ACAD_GROUP
350
D
  3
ACAD_MLINESTYLE
350
17
  0
DICTIONARY
  5
D
330
C
100
AcDbDictionary
  0
DICTIONARY
  5
1A
330
C
100
AcDbDictionary
  0
DICTIONARY
  5
17
330
C
100
AcDbDictionary
  3
STANDARD
350
18
  0
DICTIONARY
  5
19
330
C
100
AcDbDictionary
  0
ENDSEC
  0
EOF
