999
FreeCAD v0.18 16093 (Git)
  0
SECTION
  2
HEADER
  9
$ACADVER
  1
AC1014
  9
$ACADMAINTVER
 70
     9
  9
$DWGCODEPAGE
  3
ANSI_1252
  9
$TEXTSTYLE
  7
STANDARD
  9
$DIMSTYLE
  2
STANDARD
  9
$DIMTXSTY
  7
STANDARD
  9
$CMLSTYLE
  2
STANDARD
  9
$HANDSEED
  5
FFF
  0
ENDSEC
  0
SECTION
  2
CLASSES
  0
CLASS
  1
ACDBDICTIONARYWDFLT
  2
AcDbDictionaryWithDefault
  3
ObjectDBX Classes
 90
        0
280
     0
281
     0
  0
CLASS
  1
XRECORD
  2
AcDbXrecord
  3
ObjectDBX Classes
 90
        0
280
     0
281
     0
  0
CLASS
  1
LWPOLYLINE
  2
AcDbPolyline
  3
ObjectDBX Classes
 90
        0
280
     0
281
     1
  0
ENDSEC
  0
SECTION
  2
TABLES
  0
TABLE
  2
VPORT
  5
20
330
0
100
AcDbSymbolTable
 70
     1
  0
VPORT
  5
21
330
20
100
AcDbSymbolTableRecord
100
AcDbViewportTableRecord
  2
*ACTIVE
 70
     0
  0
ENDTAB
  0
TABLE
  2
LTYPE
  5
22
330
0
100
AcDbSymbolTable
 70
     1
  0
LTYPE
  5
23
330
21
100
AcDbSymbolTableRecord
100
AcDbLinetypeTableRecord
  2
BYBLOCK
 70
     0
  3

 72
    65
 73
     0
 40
0.0
  0
LTYPE
  5
24
330
21
100
AcDbSymbolTableRecord
100
AcDbLinetypeTableRecord
  2
BYLAYER
 70
     0
  3

 72
    65
 73
     0
 40
0.0
  0
LTYPE
  5
25
330
21
100
AcDbSymbolTableRecord
100
AcDbLinetypeTableRecord
  2
CONTINUOUS
 70
     0
  3
Solid line
 72
    65
 73
     0
 40
0.0
  0
ENDTAB
  0
TABLE
  2
LAYER
  5
31
330
0
100
AcDbSymbolTable
 70
2
  0
LAYER
  5
32
330
31
100
AcDbSymbolTableRecord
100
AcDbLayerTableRecord
  2
0
 70
   0
 62
   7
  6
CONTINUOUS
  0
LAYER
  5
33
330
31
100
AcDbSymbolTableRecord
100
AcDbLayerTableRecord
  2
View
 70
    0
 62
    7
  6
CONTINUOUS
  0
ENDTAB
  0
TABLE
  2
STYLE
  5
60
330
0
100
AcDbSymbolTable
 70
     2
  0
STYLE
  5
61
330
60
100
AcDbSymbolTableRecord
100
AcDbTextStyleTableRecord
  2
STANDARD
 70
     0
 40
0.0
 41
1.0
 50
0.0
 71
     0
 42
2.5
  3
arial.ttf
  4

  0
STYLE
  5
62
330
60
100
AcDbSymbolTableRecord
100
AcDbTextStyleTableRecord
  2
ANNOTATIVE
 70
     0
 40
0.0
 41
1.0
 50
0.0
 71
     0
 42
2.5
  3
arial.ttf
  4

  0
ENDTAB
  0
TABLE
  2
VIEW
  5
63
330
0
100
AcDbSymbolTable
 70
     0
  0
ENDTAB
  0
TABLE
  2
UCS
  5
64
330
0
100
AcDbSymbolTable
 70
     0
  0
ENDTAB
  0
TABLE
  2
APPID
  5
65
330
0
100
AcDbSymbolTable
 70
     2
  0
APPID
  5
66
330
65
100
AcDbSymbolTableRecord
100
AcDbRegAppTableRecord
  2
ACAD
 70
     0
  0
APPID
  5
67
330
65
100
AcDbSymbolTableRecord
100
AcDbRegAppTableRecord
  2
ACADANNOTATIVE
 70
     0
  0
ENDTAB
  0
TABLE
  2
DIMSTYLE
  5
68
330
0
100
AcDbSymbolTable
 70
     2
  0
DIMSTYLE
105
69
330
68
100
AcDbSymbolTableRecord
100
AcDbDimStyleTableRecord
  2
STANDARD
 70
     0
  3

  4

  5

  6

  7

 40
0.0
 41
2.5
 42
0.625
 43
3.75
 44
1.25
 45
0.0
 46
0.0
 47
0.0
 48
0.0
140
2.5
141
2.5
142
0.0
143
0.03937007874016
144
1.0
145
0.0
146
1.0
147
0.625
 71
     0
 72
     0
 73
     0
 74
     0
 75
     0
 76
     0
 77
     1
 78
     8
170
     0
171
     3
172
     1
173
     0
174
     0
175
     0
176
     0
177
     0
178
     0
270
     2
271
     2
272
     2
273
     2
274
     3
340
61
275
     0
280
     0
281
     0
282
     0
283
     0
284
     8
285
     0
286
     0
287
     3
288
     0
  0
ENDTAB
  0
TABLE
  2
BLOCK_RECORD
  5
111
330
0
100
AcDbSymbolTable
  70
5
  0
BLOCK_RECORD
  5
112
330
111
100
AcDbSymbolTableRecord
100
AcDbBlockTableRecord
  2
*MODEL_SPACE
  0
BLOCK_RECORD
  5
113
330
111
100
AcDbSymbolTableRecord
100
AcDbBlockTableRecord
  2
*PAPER_SPACE
  0
ENDTAB
  0
ENDSEC
  0
SECTION
  2
BLOCKS
  0
BLOCK
  5
211
330
112
100
AcDbEntity
  8
0
100
AcDbBlockBegin
  2
*MODEL_SPACE
 70
   0
 10
0
 20
0
 30
0
  3
*MODEL_SPACE
  1
 
  0
ENDBLK
  5
212
330
112
100
AcDbEntity
  8
0
100
AcDbBlockEnd
  0
BLOCK
  5
213
330
113
100
AcDbEntity
 67
1
  8
0
100
AcDbBlockBegin
  2
*PAPER_SPACE
 70
   0
 10
0
 20
0
 30
0
  3
*PAPER_SPACE
  1
 
  0
ENDBLK
  5
214
330
113
100
AcDbEntity
 67
    1
  8
0
100
AcDbBlockEnd
  0
ENDSEC
  0
SECTION
  2
ENTITIES
  0
LINE
  5
301
330
112
100
AcDbEntity
  8
View
100
AcDbLine
 10
144
 20
100.5
 30
0
 11
144
 21
117.5
 31
0
  0
LINE
  5
302
330
112
100
AcDbEntity
  8
View
100
AcDbLine
 10
144
 20
117.5
 30
0
 11
152
 21
117.5
 31
0
  0
LINE
  5
303
330
112
100
AcDbEntity
  8
View
100
AcDbLine
 10
152
 20
110
 30
0
 11
152
 21
117.5
 31
0
  0
ARC
  5
304
330
112
100
AcDbEntity
  8
View
100
AcDbCircle
 10
152.5
 20
110
 30
0
 40
0.5
100
AcDbArc
 50
180
 51
-90
  0
LINE
  5
305
330
112
100
AcDbEntity
  8
View
100
AcDbLine
 10
152.5
 20
109.5
 30
0
 11
153
 21
109.5
 31
0
  0
LINE
  5
306
330
112
100
AcDbEntity
  8
View
100
AcDbLine
 10
153
 20
109.5
 30
0
 11
153
 21
107.5
 31
0
  0
LINE
  5
307
330
112
100
AcDbEntity
  8
View
100
AcDbLine
 10
153
 20
107.5
 30
0
 11
152.5
 21
107.5
 31
0
  0
ARC
  5
308
330
112
100
AcDbEntity
  8
View
100
AcDbCircle
 10
152.5
 20
109.6
 30
0
 40
2.1
100
AcDbArc
 50
180
 51
-90
  0
LINE
  5
309
330
112
100
AcDbEntity
  8
View
100
AcDbLine
 10
150.4
 20
109.6
 30
0
 11
150.4
 21
115.5
 31
0
  0
ARC
  5
30A
330
112
100
AcDbEntity
  8
View
100
AcDbCircle
 10
150.3
 20
115.5
 30
0
 40
0.1
100
AcDbArc
 50
0
 51
180
  0
LINE
  5
30B
330
112
100
AcDbEntity
  8
View
100
AcDbLine
 10
150.2
 20
106.8
 30
0
 11
150.2
 21
115.5
 31
0
  0
ARC
  5
30C
330
112
100
AcDbEntity
  8
View
100
AcDbCircle
 10
152.5
 20
106.8
 30
0
 40
2.3
100
AcDbArc
 50
180
 51
-90
  0
LINE
  5
30D
330
112
100
AcDbEntity
  8
View
100
AcDbLine
 10
152.5
 20
104.5
 30
0
 11
153
 21
104.5
 31
0
  0
LINE
  5
30E
330
112
100
AcDbEntity
  8
View
100
AcDbLine
 10
153
 20
104.5
 30
0
 11
153
 21
102.5
 31
0
  0
LINE
  5
30F
330
112
100
AcDbEntity
  8
View
100
AcDbLine
 10
153
 20
102.5
 30
0
 11
152.5
 21
102.5
 31
0
  0
ARC
  5
310
330
112
100
AcDbEntity
  8
View
100
AcDbCircle
 10
152.5
 20
106.9
 30
0
 40
4.4
100
AcDbArc
 50
180
 51
-90
  0
LINE
  5
311
330
112
100
AcDbEntity
  8
View
100
AcDbLine
 10
148.1
 20
106.9
 30
0
 11
148.1
 21
115.5
 31
0
  0
ARC
  5
312
330
112
100
AcDbEntity
  8
View
100
AcDbCircle
 10
148
 20
115.5
 30
0
 40
0.1
100
AcDbArc
 50
0
 51
180
  0
LINE
  5
313
330
112
100
AcDbEntity
  8
View
100
AcDbLine
 10
147.9
 20
103.6
 30
0
 11
147.9
 21
115.5
 31
0
  0
ARC
  5
314
330
112
100
AcDbEntity
  8
View
100
AcDbCircle
 10
152
 20
103.6
 30
0
 40
4.1
100
AcDbArc
 50
180
 51
-90
  0
LINE
  5
315
330
112
100
AcDbEntity
  8
View
100
AcDbLine
 10
152
 20
99.5
 30
0
 11
153
 21
99.5
 31
0
  0
LINE
  5
316
330
112
100
AcDbEntity
  8
View
100
AcDbLine
 10
153
 20
99.5
 30
0
 11
153
 21
97.5
 31
0
  0
LINE
  5
317
330
112
100
AcDbEntity
  8
View
100
AcDbLine
 10
153
 20
97.5
 30
0
 11
152
 21
97.5
 31
0
  0
ARC
  5
318
330
112
100
AcDbEntity
  8
View
100
AcDbCircle
 10
152
 20
103.7
 30
0
 40
6.2
100
AcDbArc
 50
180
 51
-90
  0
LINE
  5
319
330
112
100
AcDbEntity
  8
View
100
AcDbLine
 10
145.8
 20
103.7
 30
0
 11
145.8
 21
115.5
 31
0
  0
ARC
  5
31A
330
112
100
AcDbEntity
  8
View
100
AcDbCircle
 10
145.7
 20
115.5
 30
0
 40
0.1
100
AcDbArc
 50
0
 51
180
  0
LINE
  5
31B
330
112
100
AcDbEntity
  8
View
100
AcDbLine
 10
145.6
 20
100.9
 30
0
 11
145.6
 21
115.5
 31
0
  0
ARC
  5
31C
330
112
100
AcDbEntity
  8
View
100
AcDbCircle
 10
152
 20
100.9
 30
0
 40
6.4
100
AcDbArc
 50
180
 51
-90
  0
LINE
  5
31D
330
112
100
AcDbEntity
  8
View
100
AcDbLine
 10
152
 20
94.5
 30
0
 11
153
 21
94.5
 31
0
  0
LINE
  5
31E
330
112
100
AcDbEntity
  8
View
100
AcDbLine
 10
153
 20
94.5
 30
0
 11
153
 21
92.5
 31
0
  0
LINE
  5
31F
330
112
100
AcDbEntity
  8
View
100
AcDbLine
 10
153
 20
92.5
 30
0
 11
152
 21
92.5
 31
0
  0
ARC
  5
320
330
112
100
AcDbEntity
  8
View
100
AcDbCircle
 10
152
 20
100.5
 30
0
 40
8
100
AcDbArc
 50
180
 51
-90
  0
ENDSEC
  0
SECTION
  2
OBJECTS
  0
DICTIONARY
  5
500
330
0
100
AcDbDictionary
  3
ACAD_GROUP
350
501
  0
DICTIONARY
  5
501
330
500
100
AcDbDictionary
  0
ENDSEC
  0
EOF