<?xml version="1.0" encoding="UTF-8" standalone="no"?>
<svg
   xmlns:dc="http://purl.org/dc/elements/1.1/"
   xmlns:cc="http://creativecommons.org/ns#"
   xmlns:rdf="http://www.w3.org/1999/02/22-rdf-syntax-ns#"
   xmlns:svg="http://www.w3.org/2000/svg"
   xmlns="http://www.w3.org/2000/svg"
   xmlns:sodipodi="http://sodipodi.sourceforge.net/DTD/sodipodi-0.dtd"
   xmlns:inkscape="http://www.inkscape.org/namespaces/inkscape"
   viewBox="0 0 2970 2100"
   width="297mm"
   height="210mm"
   version="1.2"
   id="svg531"
   sodipodi:docname="lightguides_mounting.svg"
   inkscape:version="0.92.3 (2405546, 2018-03-11)">
  <metadata
     id="metadata535">
    <rdf:RDF>
      <cc:Work
         rdf:about="">
        <dc:format>image/svg+xml</dc:format>
        <dc:type
           rdf:resource="http://purl.org/dc/dcmitype/StillImage" />
      </cc:Work>
    </rdf:RDF>
  </metadata>
  <sodipodi:namedview
     pagecolor="#ffffff"
     bordercolor="#666666"
     borderopacity="1"
     objecttolerance="10"
     gridtolerance="10"
     guidetolerance="10"
     inkscape:pageopacity="0"
     inkscape:pageshadow="2"
     inkscape:window-width="1920"
     inkscape:window-height="1025"
     id="namedview533"
     showgrid="false"
     inkscape:zoom="3.3640324"
     inkscape:cx="570.52754"
     inkscape:cy="390.03097"
     inkscape:window-x="0"
     inkscape:window-y="0"
     inkscape:window-maximized="1"
     inkscape:current-layer="svg531" />
  <title
     id="title2">FreeCAD SVG Export</title>
  <desc
     id="desc4">Drawing page: Page004 exported from FreeCAD document: magic_crystal</desc>
  <defs
     id="defs6" />
  <g
     id="g1663">
    <path
       style="font-style:normal;font-weight:400;font-size:medium;font-family:'Noto Sans';vector-effect:non-scaling-stroke;fill:none;fill-opacity:1;fill-rule:evenodd;stroke:#000000;stroke-width:1;stroke-linecap:square;stroke-linejoin:bevel;stroke-opacity:1"
       inkscape:connector-curvature="0"
       id="path50"
       d="m 1680.103,992.7375 c 5.312,7.5863 12.309,13.84 20.441,18.2713 30.168,16.439 46.472,50.3049 40.506,84.1397 -5.966,33.8348 -32.869,60.0825 -66.841,65.2115 -9.157,1.383 -17.87,4.866 -25.457,10.178 l -106.4895,74.565 c -7.5863,5.312 -13.84,12.309 -18.2713,20.441 -16.439,30.168 -50.3049,46.472 -84.1397,40.506 -33.8348,-5.966 -60.0825,-32.869 -65.2115,-66.841 -1.383,-9.157 -4.866,-17.87 -10.178,-25.457 l -74.565,-106.4895 c -5.312,-7.5863 -12.309,-13.84 -20.441,-18.2713 -30.168,-16.439 -46.472,-50.3049 -40.506,-84.1397 5.966,-33.8348 32.869,-60.0825 66.841,-65.2115 9.157,-1.383 17.87,-4.866 25.457,-10.178 l 106.4895,-74.565 c 7.5863,-5.312 13.84,-12.309 18.2713,-20.441 16.439,-30.168 50.3049,-46.472 84.1397,-40.506 33.8348,5.966 60.0825,32.869 65.2115,66.841 1.383,9.157 4.866,17.87 10.178,25.457 l 74.565,106.4895" />
    <path
       style="font-style:normal;font-weight:400;font-size:medium;font-family:'Noto Sans';vector-effect:non-scaling-stroke;fill:none;fill-opacity:1;fill-rule:evenodd;stroke:#000000;stroke-width:1;stroke-linecap:square;stroke-linejoin:bevel;stroke-opacity:1"
       inkscape:connector-curvature="0"
       id="path66"
       d="m 1565,970 v 160 H 1405 V 970 h 160" />
    <path
       style="font-style:normal;font-weight:400;font-size:medium;font-family:'Noto Sans';vector-effect:non-scaling-stroke;fill:none;fill-opacity:1;fill-rule:evenodd;stroke:#000000;stroke-width:1;stroke-linecap:square;stroke-linejoin:bevel;stroke-opacity:1"
       inkscape:connector-curvature="0"
       id="path82"
       d="m 1321.938,1037.4438 c 0,9.1127 -7.387,16.5 -16.5,16.5 -9.112,0 -16.5,-7.3873 -16.5,-16.5 0,-9.1127 7.388,-16.5 16.5,-16.5 9.113,0 16.5,7.3873 16.5,16.5" />
    <path
       style="font-style:normal;font-weight:400;font-size:medium;font-family:'Noto Sans';vector-effect:non-scaling-stroke;fill:none;fill-opacity:1;fill-rule:evenodd;stroke:#000000;stroke-width:1;stroke-linecap:square;stroke-linejoin:bevel;stroke-opacity:1"
       inkscape:connector-curvature="0"
       id="path98"
       d="m 1681.062,1062.5562 c 0,9.1127 -7.388,16.5 -16.5,16.5 -9.113,0 -16.5,-7.3873 -16.5,-16.5 0,-9.1127 7.387,-16.5 16.5,-16.5 9.112,0 16.5,7.3873 16.5,16.5" />
    <path
       style="font-style:normal;font-weight:400;font-size:medium;font-family:'Noto Sans';vector-effect:non-scaling-stroke;fill:none;fill-opacity:1;fill-rule:evenodd;stroke:#000000;stroke-width:1;stroke-linecap:square;stroke-linejoin:bevel;stroke-opacity:1"
       inkscape:connector-curvature="0"
       id="path114"
       d="m 1488.9438,1229.562 c 0,9.112 -7.3873,16.5 -16.5,16.5 -9.1127,0 -16.5,-7.388 -16.5,-16.5 0,-9.113 7.3873,-16.5 16.5,-16.5 9.1127,0 16.5,7.387 16.5,16.5" />
    <path
       style="font-style:normal;font-weight:400;font-size:medium;font-family:'Noto Sans';vector-effect:non-scaling-stroke;fill:none;fill-opacity:1;fill-rule:evenodd;stroke:#000000;stroke-width:1;stroke-linecap:square;stroke-linejoin:bevel;stroke-opacity:1"
       inkscape:connector-curvature="0"
       id="path130"
       d="m 1514.0562,870.438 c 0,9.113 -7.3873,16.5 -16.5,16.5 -9.1127,0 -16.5,-7.387 -16.5,-16.5 0,-9.112 7.3873,-16.5 16.5,-16.5 9.1127,0 16.5,7.388 16.5,16.5" />
    <path
       style="font-style:normal;font-weight:400;font-size:medium;font-family:'Noto Sans';vector-effect:non-scaling-stroke;fill:none;fill-opacity:1;fill-rule:evenodd;stroke:#000000;stroke-width:1;stroke-linecap:square;stroke-linejoin:bevel;stroke-opacity:1"
       inkscape:connector-curvature="0"
       id="path146"
       d="m 1651.237,989.6534 -8.191,5.7357 -45.886,-65.5321 8.191,-5.736 45.886,65.5324" />
    <path
       style="font-style:normal;font-weight:400;font-size:medium;font-family:'Noto Sans';vector-effect:non-scaling-stroke;fill:none;fill-opacity:1;fill-rule:evenodd;stroke:#000000;stroke-width:1;stroke-linecap:square;stroke-linejoin:bevel;stroke-opacity:1"
       inkscape:connector-curvature="0"
       id="path162"
       d="m 1424.6534,883.763 5.7357,8.191 -65.5321,45.886 -5.736,-8.191 65.5324,-45.886" />
    <path
       style="font-style:normal;font-weight:400;font-size:medium;font-family:'Noto Sans';vector-effect:non-scaling-stroke;fill:none;fill-opacity:1;fill-rule:evenodd;stroke:#000000;stroke-width:1;stroke-linecap:square;stroke-linejoin:bevel;stroke-opacity:1"
       inkscape:connector-curvature="0"
       id="path178"
       d="m 1372.84,1170.143 -8.191,5.736 -45.886,-65.5324 8.191,-5.7357 45.886,65.5321" />
    <path
       style="font-style:normal;font-weight:400;font-size:medium;font-family:'Noto Sans';vector-effect:non-scaling-stroke;fill:none;fill-opacity:1;fill-rule:evenodd;stroke:#000000;stroke-width:1;stroke-linecap:square;stroke-linejoin:bevel;stroke-opacity:1"
       inkscape:connector-curvature="0"
       id="path194"
       d="m 1605.143,1162.16 5.736,8.191 -65.5324,45.886 -5.7357,-8.191 65.5321,-45.886" />
  </g>
</svg>
