<?xml version='1.0' encoding='UTF-8' standalone='no'?>
<svg viewBox="0 0 2970 2100" width="297mm" baseProfile="tiny" height="210mm" xmlns="http://www.w3.org/2000/svg" xmlns:xlink="http://www.w3.org/1999/xlink" version="1.2">
 <title>FreeCAD SVG Export</title>
 <desc>Drawing page: Page005 exported from FreeCAD document: magic_crystal</desc>
 <defs/>
 <g stroke-linecap="square" fill="none" stroke-linejoin="bevel" id="Page005" fill-rule="evenodd" stroke-width="1" stroke="black">
  <g stroke-linecap="square" transform="matrix(1,0,0,1,0,0)" fill="none" stroke-linejoin="bevel" font-family="Noto Sans" font-style="normal" stroke-opacity="1" font-weight="400" stroke-width="1" font-size="35.2778" stroke="#000000"/>
  <g stroke-linecap="square" transform="matrix(1,0,0,1,0,2100)" fill="none" stroke-linejoin="bevel" font-family="Noto Sans" font-style="normal" stroke-opacity="1" font-weight="400" stroke-width="1" font-size="35.2778" stroke="#000000"/>
  <g stroke-linecap="square" transform="matrix(1,0,0,1,0,2100)" fill="none" stroke-linejoin="bevel" font-family="Noto Sans" font-style="normal" stroke-opacity="1" font-weight="400" stroke-width="1" font-size="35.2778" stroke="#000000"/>
  <g stroke-linecap="square" transform="matrix(2.82319,0,0,2.82258,0,0)" fill="none" stroke-linejoin="bevel" font-family="Noto Sans" font-style="normal" stroke-opacity="1" font-weight="400" stroke-width="1" font-size="35.2778" stroke="#000000"/>
  <g stroke-linecap="square" transform="matrix(2.82319,0,0,2.82258,0,0)" fill="none" stroke-linejoin="bevel" font-family="Noto Sans" font-style="normal" stroke-opacity="1" font-weight="400" stroke-width="1" font-size="35.2778" stroke="#000000"/>
  <g stroke-linecap="square" transform="matrix(2.82319,0,0,2.82258,0,0)" fill="none" stroke-linejoin="bevel" font-family="Noto Sans" font-style="normal" stroke-opacity="1" font-weight="400" stroke-width="1" font-size="35.2778" stroke="#000000"/>
  <g stroke-linecap="square" transform="matrix(2.82319,0,0,2.82258,0,0)" fill="none" stroke-linejoin="bevel" font-family="Noto Sans" font-style="normal" stroke-opacity="1" font-weight="400" stroke-width="1" font-size="35.2778" stroke="#000000"/>
  <g stroke-linecap="square" transform="matrix(1,0,0,1,0,0)" fill="none" stroke-linejoin="bevel" font-family="Noto Sans" font-style="normal" stroke-opacity="1" font-weight="400" stroke-width="1" font-size="35.2778" stroke="#000000"/>
  <g stroke-linecap="square" transform="matrix(2.82319,0,0,2.82258,0,0)" fill="none" stroke-linejoin="bevel" font-family="Noto Sans" font-style="normal" stroke-opacity="1" font-weight="400" stroke-width="1" font-size="35.2778" stroke="#000000"/>
  <g stroke-linecap="square" transform="matrix(1,0,0,1,1485,1050)" fill="none" stroke-linejoin="bevel" font-family="Noto Sans" font-style="normal" stroke-opacity="1" font-weight="400" stroke-width="1" font-size="35.2778" stroke="#000000"/>
  <g stroke-linecap="square" transform="matrix(1,0,0,1,1485,1050)" fill="none" stroke-linejoin="bevel" font-family="Noto Sans" font-style="normal" stroke-opacity="1" font-weight="400" stroke-width="1" font-size="35.2778" stroke="#000000"/>
  <g stroke-linecap="square" transform="matrix(1,0,0,1,1481,1295)" fill="none" stroke-linejoin="bevel" font-family="Noto Sans" font-style="normal" stroke-opacity="1" font-weight="400" stroke-width="1" font-size="35.2778" stroke="#000000"/>
  <g stroke-linecap="square" transform="matrix(0.353,0,0,0.353,1473,1352.36)" fill="none" stroke-linejoin="bevel" font-family="Noto Sans" font-style="normal" stroke-opacity="1" font-weight="400" stroke-width="1" font-size="35.2778" stroke="#000000"/>
  <g stroke-linecap="square" transform="matrix(0.353,0,0,0.353,1473,1352.36)" fill="none" stroke-linejoin="bevel" font-family="Noto Sans" font-style="normal" stroke-opacity="1" font-weight="400" stroke-width="1" font-size="35.2778" stroke="#000000"/>
  <g stroke-linecap="square" transform="matrix(0.353,0,0,0.353,1473,1352.36)" fill="none" stroke-linejoin="bevel" font-family="Noto Sans" font-style="normal" stroke-opacity="1" font-weight="400" stroke-width="1" font-size="35.2778" stroke="#000000"/>
  <g stroke-linecap="square" transform="matrix(0.353,0,0,0.353,1473,1352.36)" fill="none" stroke-linejoin="bevel" font-family="Noto Sans" font-style="normal" stroke-opacity="1" font-weight="400" stroke-width="1" font-size="35.2778" stroke="#000000"/>
  <g stroke-linecap="square" transform="matrix(1,0,0,1,0,0)" fill="none" stroke-linejoin="bevel" font-family="Noto Sans" font-style="normal" stroke-opacity="1" font-weight="400" stroke-width="1" font-size="35.2778" stroke="#000000"/>
  <g stroke-linecap="square" transform="matrix(0.353,0,0,0.353,1473,1352.36)" fill="none" stroke-linejoin="bevel" font-family="Noto Sans" font-style="normal" stroke-opacity="1" font-weight="400" stroke-width="1" font-size="35.2778" stroke="#000000"/>
  <g stroke-linecap="square" transform="matrix(0.353,0,0,0.353,1473,1352.36)" fill="none" stroke-linejoin="bevel" font-family="Noto Sans" font-style="normal" stroke-opacity="1" font-weight="400" stroke-width="1" font-size="35.2778" stroke="#000000"/>
  <g stroke-linecap="square" transform="matrix(1,0,0,1,1481,1295)" fill="none" stroke-linejoin="bevel" font-family="Noto Sans" font-style="normal" stroke-opacity="1" font-weight="400" stroke-width="1" font-size="35.2778" stroke="#000000"/>
  <g stroke-linecap="square" transform="matrix(1,0,0,1,1485,1050)" fill="none" stroke-linejoin="bevel" font-family="Noto Sans" font-style="normal" stroke-opacity="1" font-weight="400" stroke-width="1" font-size="35.2778" stroke="#000000"/>
  <g transform="matrix(1,0,0,1,1485,1050)" fill="#ffffff" font-family="Noto Sans" font-style="normal" font-weight="400" font-size="35.2778" fill-opacity="1" stroke="none">
   <path fill-rule="evenodd" d="M-40,-230 L-40,-190 L40.0006,-230 L-40,-230 L40.0006,-230 L40.0006,-190 L70.0006,-190 L70.0006,190 L40.0006,190 L40.0006,230 L-40,230 L-40.0006,190 L-70,190 L-70,-190 L-40,-190" vector-effect="non-scaling-stroke"/>
  </g>
  <g stroke-linecap="square" transform="matrix(1,0,0,1,1485,1050)" fill="none" stroke-linejoin="bevel" font-family="Noto Sans" font-style="normal" stroke-opacity="1" font-weight="400" stroke-width="1" font-size="35.2778" stroke="#000000"/>
  <g stroke-linecap="square" transform="matrix(1,0,0,1,1485,1050)" fill="none" stroke-linejoin="bevel" font-family="Noto Sans" font-style="normal" stroke-opacity="1" font-weight="400" stroke-width="1" font-size="35.2778" stroke="#000000"/>
  <g stroke-linecap="square" transform="matrix(1,0,0,1,1485,1050)" fill="none" stroke-linejoin="bevel" font-family="Noto Sans" font-style="normal" stroke-opacity="1" font-weight="400" stroke-width="1" font-size="35.2778" stroke="#000000"/>
  <g stroke-linecap="square" transform="matrix(1,0,0,1,0,0)" fill="none" stroke-linejoin="bevel" font-family="Noto Sans" font-style="normal" stroke-opacity="1" font-weight="400" stroke-width="1" font-size="35.2778" stroke="#000000"/>
  <g stroke-linecap="square" transform="matrix(1,0,0,1,1485,1050)" fill="none" stroke-linejoin="bevel" font-family="Noto Sans" font-style="normal" stroke-opacity="1" font-weight="400" stroke-width="1" font-size="35.2778" stroke="#000000"/>
  <g stroke-linecap="square" transform="matrix(1,0,0,1,1485,1050)" fill="none" stroke-linejoin="bevel" font-family="Noto Sans" font-style="normal" stroke-opacity="1" font-weight="400" stroke-width="1" font-size="35.2778" stroke="#000000"/>
  <g transform="matrix(1,0,0,1,1485,1050)" fill="#ffffff" font-family="Noto Sans" font-style="normal" font-weight="400" font-size="35.2778" fill-opacity="1" stroke="none">
   <path fill-rule="evenodd" d="M70.0006,-190 L70.0006,190 L40.0006,190 L40.0006,230 L-39.9994,230 L-40,190 L-69.9994,190 L-69.9994,-190 L-40,-190 L-39.9994,-230 L40.0006,-230 L40.0006,-190 L70.0006,-190" vector-effect="non-scaling-stroke"/>
  </g>
  <g stroke-linecap="square" transform="matrix(1,0,0,1,1485,1050)" fill="none" stroke-linejoin="bevel" font-family="Noto Sans" font-style="normal" stroke-opacity="1" font-weight="400" stroke-width="1" font-size="35.2778" stroke="#000000"/>
  <g stroke-linecap="square" transform="matrix(1,0,0,1,1485,1050)" fill="none" stroke-linejoin="bevel" font-family="Noto Sans" font-style="normal" stroke-opacity="1" font-weight="400" stroke-width="1" font-size="35.2778" stroke="#000000"/>
  <g stroke-linecap="square" transform="matrix(1,0,0,1,1485,1050)" fill="none" stroke-linejoin="bevel" font-family="Noto Sans" font-style="normal" stroke-opacity="1" font-weight="400" stroke-width="1" font-size="35.2778" stroke="#000000"/>
  <g stroke-linecap="square" transform="matrix(1,0,0,1,0,0)" fill="none" stroke-linejoin="bevel" font-family="Noto Sans" font-style="normal" stroke-opacity="1" font-weight="400" stroke-width="1" font-size="35.2778" stroke="#000000"/>
  <g stroke-linecap="square" transform="matrix(1,0,0,1,1485,1050)" fill="none" stroke-linejoin="bevel" font-family="Noto Sans" font-style="normal" stroke-opacity="1" font-weight="400" stroke-width="1" font-size="35.2778" stroke="#000000"/>
  <g stroke-linecap="square" transform="matrix(1,0,0,1,1485,1050)" fill="none" stroke-linejoin="bevel" font-family="Noto Sans" font-style="normal" stroke-opacity="1" font-weight="400" stroke-width="1" font-size="35.2778" stroke="#000000"/>
  <g transform="matrix(1,0,0,1,1485,1050)" fill="#ffffff" font-family="Noto Sans" font-style="normal" font-weight="400" font-size="35.2778" fill-opacity="1" stroke="none">
   <path fill-rule="evenodd" d="M-70.0003,-190 L-70,190 L-70.0003,-190" vector-effect="non-scaling-stroke"/>
  </g>
  <g stroke-linecap="square" transform="matrix(1,0,0,1,1485,1050)" fill="none" stroke-linejoin="bevel" font-family="Noto Sans" font-style="normal" stroke-opacity="1" font-weight="400" stroke-width="1" font-size="35.2778" stroke="#000000"/>
  <g stroke-linecap="square" transform="matrix(1,0,0,1,1485,1050)" fill="none" stroke-linejoin="bevel" font-family="Noto Sans" font-style="normal" stroke-opacity="1" font-weight="400" stroke-width="1" font-size="35.2778" stroke="#000000"/>
  <g stroke-linecap="square" transform="matrix(1,0,0,1,1485,1050)" fill="none" stroke-linejoin="bevel" font-family="Noto Sans" font-style="normal" stroke-opacity="1" font-weight="400" stroke-width="1" font-size="35.2778" stroke="#000000"/>
  <g stroke-linecap="square" transform="matrix(1,0,0,1,0,0)" fill="none" stroke-linejoin="bevel" font-family="Noto Sans" font-style="normal" stroke-opacity="1" font-weight="400" stroke-width="1" font-size="35.2778" stroke="#000000"/>
  <g stroke-linecap="square" transform="matrix(1,0,0,1,1485,1050)" fill="none" stroke-linejoin="bevel" font-family="Noto Sans" font-style="normal" stroke-opacity="1" font-weight="400" stroke-width="1" font-size="35.2778" stroke="#000000"/>
  <g stroke-linecap="square" transform="matrix(1,0,0,1,1485,1050)" fill="none" stroke-linejoin="bevel" font-family="Noto Sans" font-style="normal" stroke-opacity="1" font-weight="400" stroke-width="1" font-size="35.2778" stroke="#000000"/>
  <g transform="matrix(1,0,0,1,1485,1050)" fill="#ffffff" font-family="Noto Sans" font-style="normal" font-weight="400" font-size="35.2778" fill-opacity="1" stroke="none">
   <path fill-rule="evenodd" d="M-40.0003,230 L-40,190 L-40.0003,230" vector-effect="non-scaling-stroke"/>
  </g>
  <g stroke-linecap="square" transform="matrix(1,0,0,1,1485,1050)" fill="none" stroke-linejoin="bevel" font-family="Noto Sans" font-style="normal" stroke-opacity="1" font-weight="400" stroke-width="1" font-size="35.2778" stroke="#000000"/>
  <g stroke-linecap="square" transform="matrix(1,0,0,1,1485,1050)" fill="none" stroke-linejoin="bevel" font-family="Noto Sans" font-style="normal" stroke-opacity="1" font-weight="400" stroke-width="1" font-size="35.2778" stroke="#000000"/>
  <g stroke-linecap="square" transform="matrix(1,0,0,1,1485,1050)" fill="none" stroke-linejoin="bevel" font-family="Noto Sans" font-style="normal" stroke-opacity="1" font-weight="400" stroke-width="1" font-size="35.2778" stroke="#000000"/>
  <g stroke-linecap="square" transform="matrix(1,0,0,1,0,0)" fill="none" stroke-linejoin="bevel" font-family="Noto Sans" font-style="normal" stroke-opacity="1" font-weight="400" stroke-width="1" font-size="35.2778" stroke="#000000"/>
  <g stroke-linecap="square" transform="matrix(1,0,0,1,1485,1050)" fill="none" stroke-linejoin="bevel" font-family="Noto Sans" font-style="normal" stroke-opacity="1" font-weight="400" stroke-width="1" font-size="35.2778" stroke="#000000"/>
  <g stroke-linecap="square" transform="matrix(1,0,0,1,1485,1050)" fill="none" stroke-linejoin="bevel" font-family="Noto Sans" font-style="normal" stroke-opacity="1" font-weight="400" stroke-width="1" font-size="35.2778" stroke="#000000"/>
  <g transform="matrix(1,0,0,1,1485,1050)" fill="#ffffff" font-family="Noto Sans" font-style="normal" font-weight="400" font-size="35.2778" fill-opacity="1" stroke="none">
   <path fill-rule="evenodd" d="M-40,-230 L-40,-190 L-40,-230" vector-effect="non-scaling-stroke"/>
  </g>
  <g stroke-linecap="square" transform="matrix(1,0,0,1,1485,1050)" fill="none" stroke-linejoin="bevel" font-family="Noto Sans" font-style="normal" stroke-opacity="1" font-weight="400" stroke-width="1" font-size="35.2778" stroke="#000000"/>
  <g stroke-linecap="square" transform="matrix(1,0,0,1,1485,1050)" fill="none" stroke-linejoin="bevel" font-family="Noto Sans" font-style="normal" stroke-opacity="1" font-weight="400" stroke-width="1" font-size="35.2778" stroke="#000000"/>
  <g stroke-linecap="square" transform="matrix(1,0,0,1,1485,1050)" fill="none" stroke-linejoin="bevel" font-family="Noto Sans" font-style="normal" stroke-opacity="1" font-weight="400" stroke-width="1" font-size="35.2778" stroke="#000000"/>
  <g stroke-linecap="square" transform="matrix(1,0,0,1,0,0)" fill="none" stroke-linejoin="bevel" font-family="Noto Sans" font-style="normal" stroke-opacity="1" font-weight="400" stroke-width="1" font-size="35.2778" stroke="#000000"/>
  <g stroke-linecap="square" transform="matrix(1,0,0,1,1485,1050)" fill="none" stroke-linejoin="bevel" font-family="Noto Sans" font-style="normal" stroke-opacity="1" font-weight="400" stroke-width="1" font-size="35.2778" stroke="#000000"/>
  <g stroke-linecap="square" transform="matrix(1,0,0,1,1485,1050)" fill="none" stroke-linejoin="bevel" font-family="Noto Sans" font-style="normal" stroke-opacity="1" font-weight="400" stroke-width="1" font-size="35.2778" stroke="#000000"/>
  <g stroke-linecap="round" transform="matrix(1,0,0,1,1485,1050)" fill="none" stroke-linejoin="bevel" font-family="Noto Sans" font-style="normal" stroke-opacity="1" font-weight="400" stroke-width="2" font-size="35.2778" stroke="#000000">
   <path fill-rule="evenodd" d="M70.0006,-190 L40.0006,-190" vector-effect="none"/>
  </g>
  <g stroke-linecap="square" transform="matrix(1,0,0,1,1485,1050)" fill="none" stroke-linejoin="bevel" font-family="Noto Sans" font-style="normal" stroke-opacity="1" font-weight="400" stroke-width="1" font-size="35.2778" stroke="#000000"/>
  <g stroke-linecap="square" transform="matrix(1,0,0,1,1485,1050)" fill="none" stroke-linejoin="bevel" font-family="Noto Sans" font-style="normal" stroke-opacity="1" font-weight="400" stroke-width="1" font-size="35.2778" stroke="#000000"/>
  <g stroke-linecap="round" transform="matrix(1,0,0,1,1485,1050)" fill="none" stroke-linejoin="bevel" font-family="Noto Sans" font-style="normal" stroke-opacity="1" font-weight="400" stroke-width="2" font-size="35.2778" stroke="#000000">
   <path fill-rule="evenodd" d="M40.0006,-230 L40.0006,-190" vector-effect="none"/>
  </g>
  <g stroke-linecap="square" transform="matrix(1,0,0,1,1485,1050)" fill="none" stroke-linejoin="bevel" font-family="Noto Sans" font-style="normal" stroke-opacity="1" font-weight="400" stroke-width="1" font-size="35.2778" stroke="#000000"/>
  <g stroke-linecap="square" transform="matrix(1,0,0,1,1485,1050)" fill="none" stroke-linejoin="bevel" font-family="Noto Sans" font-style="normal" stroke-opacity="1" font-weight="400" stroke-width="1" font-size="35.2778" stroke="#000000"/>
  <g stroke-linecap="round" transform="matrix(1,0,0,1,1485,1050)" fill="none" stroke-linejoin="bevel" font-family="Noto Sans" font-style="normal" stroke-opacity="1" font-weight="400" stroke-width="2" font-size="35.2778" stroke="#000000">
   <path fill-rule="evenodd" d="M-39.9994,-230 L-40.0006,-230" vector-effect="none"/>
  </g>
  <g stroke-linecap="square" transform="matrix(1,0,0,1,1485,1050)" fill="none" stroke-linejoin="bevel" font-family="Noto Sans" font-style="normal" stroke-opacity="1" font-weight="400" stroke-width="1" font-size="35.2778" stroke="#000000"/>
  <g stroke-linecap="square" transform="matrix(1,0,0,1,1485,1050)" fill="none" stroke-linejoin="bevel" font-family="Noto Sans" font-style="normal" stroke-opacity="1" font-weight="400" stroke-width="1" font-size="35.2778" stroke="#000000"/>
  <g stroke-linecap="round" transform="matrix(1,0,0,1,1485,1050)" fill="none" stroke-linejoin="bevel" font-family="Noto Sans" font-style="normal" stroke-opacity="1" font-weight="400" stroke-width="2" font-size="35.2778" stroke="#000000">
   <path fill-rule="evenodd" d="M40.0006,-230 L-39.9994,-230" vector-effect="none"/>
  </g>
  <g stroke-linecap="square" transform="matrix(1,0,0,1,1485,1050)" fill="none" stroke-linejoin="bevel" font-family="Noto Sans" font-style="normal" stroke-opacity="1" font-weight="400" stroke-width="1" font-size="35.2778" stroke="#000000"/>
  <g stroke-linecap="square" transform="matrix(1,0,0,1,1485,1050)" fill="none" stroke-linejoin="bevel" font-family="Noto Sans" font-style="normal" stroke-opacity="1" font-weight="400" stroke-width="1" font-size="35.2778" stroke="#000000"/>
  <g stroke-linecap="round" transform="matrix(1,0,0,1,1485,1050)" fill="none" stroke-linejoin="bevel" font-family="Noto Sans" font-style="normal" stroke-opacity="1" font-weight="400" stroke-width="2" font-size="35.2778" stroke="#000000">
   <path fill-rule="evenodd" d="M-39.9994,-230 L-39.9994,-190" vector-effect="none"/>
  </g>
  <g stroke-linecap="square" transform="matrix(1,0,0,1,1485,1050)" fill="none" stroke-linejoin="bevel" font-family="Noto Sans" font-style="normal" stroke-opacity="1" font-weight="400" stroke-width="1" font-size="35.2778" stroke="#000000"/>
  <g stroke-linecap="square" transform="matrix(1,0,0,1,1485,1050)" fill="none" stroke-linejoin="bevel" font-family="Noto Sans" font-style="normal" stroke-opacity="1" font-weight="400" stroke-width="1" font-size="35.2778" stroke="#000000"/>
  <g stroke-linecap="round" transform="matrix(1,0,0,1,1485,1050)" fill="none" stroke-linejoin="bevel" font-family="Noto Sans" font-style="normal" stroke-opacity="1" font-weight="400" stroke-width="2" font-size="35.2778" stroke="#000000">
   <path fill-rule="evenodd" d="M-40.0006,-230 L-40.0006,-190" vector-effect="none"/>
  </g>
  <g stroke-linecap="square" transform="matrix(1,0,0,1,1485,1050)" fill="none" stroke-linejoin="bevel" font-family="Noto Sans" font-style="normal" stroke-opacity="1" font-weight="400" stroke-width="1" font-size="35.2778" stroke="#000000"/>
  <g stroke-linecap="square" transform="matrix(1,0,0,1,1485,1050)" fill="none" stroke-linejoin="bevel" font-family="Noto Sans" font-style="normal" stroke-opacity="1" font-weight="400" stroke-width="1" font-size="35.2778" stroke="#000000"/>
  <g stroke-linecap="round" transform="matrix(1,0,0,1,1485,1050)" fill="none" stroke-linejoin="bevel" font-family="Noto Sans" font-style="normal" stroke-opacity="1" font-weight="400" stroke-width="2" font-size="35.2778" stroke="#000000">
   <path fill-rule="evenodd" d="M-69.9994,-190 L-70.0006,-190" vector-effect="none"/>
  </g>
  <g stroke-linecap="square" transform="matrix(1,0,0,1,1485,1050)" fill="none" stroke-linejoin="bevel" font-family="Noto Sans" font-style="normal" stroke-opacity="1" font-weight="400" stroke-width="1" font-size="35.2778" stroke="#000000"/>
  <g stroke-linecap="square" transform="matrix(1,0,0,1,1485,1050)" fill="none" stroke-linejoin="bevel" font-family="Noto Sans" font-style="normal" stroke-opacity="1" font-weight="400" stroke-width="1" font-size="35.2778" stroke="#000000"/>
  <g stroke-linecap="round" transform="matrix(1,0,0,1,1485,1050)" fill="none" stroke-linejoin="bevel" font-family="Noto Sans" font-style="normal" stroke-opacity="1" font-weight="400" stroke-width="2" font-size="35.2778" stroke="#000000">
   <path fill-rule="evenodd" d="M-69.9994,-190 L-39.9994,-190" vector-effect="none"/>
  </g>
  <g stroke-linecap="square" transform="matrix(1,0,0,1,1485,1050)" fill="none" stroke-linejoin="bevel" font-family="Noto Sans" font-style="normal" stroke-opacity="1" font-weight="400" stroke-width="1" font-size="35.2778" stroke="#000000"/>
  <g stroke-linecap="square" transform="matrix(1,0,0,1,1485,1050)" fill="none" stroke-linejoin="bevel" font-family="Noto Sans" font-style="normal" stroke-opacity="1" font-weight="400" stroke-width="1" font-size="35.2778" stroke="#000000"/>
  <g stroke-linecap="round" transform="matrix(1,0,0,1,1485,1050)" fill="none" stroke-linejoin="bevel" font-family="Noto Sans" font-style="normal" stroke-opacity="1" font-weight="400" stroke-width="2" font-size="35.2778" stroke="#000000">
   <path fill-rule="evenodd" d="M70.0006,-190 L70.0006,190" vector-effect="none"/>
  </g>
  <g stroke-linecap="square" transform="matrix(1,0,0,1,1485,1050)" fill="none" stroke-linejoin="bevel" font-family="Noto Sans" font-style="normal" stroke-opacity="1" font-weight="400" stroke-width="1" font-size="35.2778" stroke="#000000"/>
  <g stroke-linecap="square" transform="matrix(1,0,0,1,1485,1050)" fill="none" stroke-linejoin="bevel" font-family="Noto Sans" font-style="normal" stroke-opacity="1" font-weight="400" stroke-width="1" font-size="35.2778" stroke="#000000"/>
  <g stroke-linecap="round" transform="matrix(1,0,0,1,1485,1050)" fill="none" stroke-linejoin="bevel" font-family="Noto Sans" font-style="normal" stroke-opacity="1" font-weight="400" stroke-width="2" font-size="35.2778" stroke="#000000">
   <path fill-rule="evenodd" d="M70.0006,190 L40.0006,190" vector-effect="none"/>
  </g>
  <g stroke-linecap="square" transform="matrix(1,0,0,1,1485,1050)" fill="none" stroke-linejoin="bevel" font-family="Noto Sans" font-style="normal" stroke-opacity="1" font-weight="400" stroke-width="1" font-size="35.2778" stroke="#000000"/>
  <g stroke-linecap="square" transform="matrix(1,0,0,1,1485,1050)" fill="none" stroke-linejoin="bevel" font-family="Noto Sans" font-style="normal" stroke-opacity="1" font-weight="400" stroke-width="1" font-size="35.2778" stroke="#000000"/>
  <g stroke-linecap="round" transform="matrix(1,0,0,1,1485,1050)" fill="none" stroke-linejoin="bevel" font-family="Noto Sans" font-style="normal" stroke-opacity="1" font-weight="400" stroke-width="2" font-size="35.2778" stroke="#000000">
   <path fill-rule="evenodd" d="M40.0006,230 L40.0006,190" vector-effect="none"/>
  </g>
  <g stroke-linecap="square" transform="matrix(1,0,0,1,1485,1050)" fill="none" stroke-linejoin="bevel" font-family="Noto Sans" font-style="normal" stroke-opacity="1" font-weight="400" stroke-width="1" font-size="35.2778" stroke="#000000"/>
  <g stroke-linecap="square" transform="matrix(1,0,0,1,1485,1050)" fill="none" stroke-linejoin="bevel" font-family="Noto Sans" font-style="normal" stroke-opacity="1" font-weight="400" stroke-width="1" font-size="35.2778" stroke="#000000"/>
  <g stroke-linecap="round" transform="matrix(1,0,0,1,1485,1050)" fill="none" stroke-linejoin="bevel" font-family="Noto Sans" font-style="normal" stroke-opacity="1" font-weight="400" stroke-width="2" font-size="35.2778" stroke="#000000">
   <path fill-rule="evenodd" d="M-39.9994,230 L-40.0006,230" vector-effect="none"/>
  </g>
  <g stroke-linecap="square" transform="matrix(1,0,0,1,1485,1050)" fill="none" stroke-linejoin="bevel" font-family="Noto Sans" font-style="normal" stroke-opacity="1" font-weight="400" stroke-width="1" font-size="35.2778" stroke="#000000"/>
  <g stroke-linecap="square" transform="matrix(1,0,0,1,1485,1050)" fill="none" stroke-linejoin="bevel" font-family="Noto Sans" font-style="normal" stroke-opacity="1" font-weight="400" stroke-width="1" font-size="35.2778" stroke="#000000"/>
  <g stroke-linecap="round" transform="matrix(1,0,0,1,1485,1050)" fill="none" stroke-linejoin="bevel" font-family="Noto Sans" font-style="normal" stroke-opacity="1" font-weight="400" stroke-width="2" font-size="35.2778" stroke="#000000">
   <path fill-rule="evenodd" d="M40.0006,230 L-39.9994,230" vector-effect="none"/>
  </g>
  <g stroke-linecap="square" transform="matrix(1,0,0,1,1485,1050)" fill="none" stroke-linejoin="bevel" font-family="Noto Sans" font-style="normal" stroke-opacity="1" font-weight="400" stroke-width="1" font-size="35.2778" stroke="#000000"/>
  <g stroke-linecap="square" transform="matrix(1,0,0,1,1485,1050)" fill="none" stroke-linejoin="bevel" font-family="Noto Sans" font-style="normal" stroke-opacity="1" font-weight="400" stroke-width="1" font-size="35.2778" stroke="#000000"/>
  <g stroke-linecap="round" transform="matrix(1,0,0,1,1485,1050)" fill="none" stroke-linejoin="bevel" font-family="Noto Sans" font-style="normal" stroke-opacity="1" font-weight="400" stroke-width="2" font-size="35.2778" stroke="#000000">
   <path fill-rule="evenodd" d="M-39.9994,230 L-39.9994,190" vector-effect="none"/>
  </g>
  <g stroke-linecap="square" transform="matrix(1,0,0,1,1485,1050)" fill="none" stroke-linejoin="bevel" font-family="Noto Sans" font-style="normal" stroke-opacity="1" font-weight="400" stroke-width="1" font-size="35.2778" stroke="#000000"/>
  <g stroke-linecap="square" transform="matrix(1,0,0,1,1485,1050)" fill="none" stroke-linejoin="bevel" font-family="Noto Sans" font-style="normal" stroke-opacity="1" font-weight="400" stroke-width="1" font-size="35.2778" stroke="#000000"/>
  <g stroke-linecap="round" transform="matrix(1,0,0,1,1485,1050)" fill="none" stroke-linejoin="bevel" font-family="Noto Sans" font-style="normal" stroke-opacity="1" font-weight="400" stroke-width="2" font-size="35.2778" stroke="#000000">
   <path fill-rule="evenodd" d="M-40.0006,230 L-40.0006,190" vector-effect="none"/>
  </g>
  <g stroke-linecap="square" transform="matrix(1,0,0,1,1485,1050)" fill="none" stroke-linejoin="bevel" font-family="Noto Sans" font-style="normal" stroke-opacity="1" font-weight="400" stroke-width="1" font-size="35.2778" stroke="#000000"/>
  <g stroke-linecap="square" transform="matrix(1,0,0,1,1485,1050)" fill="none" stroke-linejoin="bevel" font-family="Noto Sans" font-style="normal" stroke-opacity="1" font-weight="400" stroke-width="1" font-size="35.2778" stroke="#000000"/>
  <g stroke-linecap="round" transform="matrix(1,0,0,1,1485,1050)" fill="none" stroke-linejoin="bevel" font-family="Noto Sans" font-style="normal" stroke-opacity="1" font-weight="400" stroke-width="2" font-size="35.2778" stroke="#000000">
   <path fill-rule="evenodd" d="M-69.9994,190 L-70.0006,190" vector-effect="none"/>
  </g>
  <g stroke-linecap="square" transform="matrix(1,0,0,1,1485,1050)" fill="none" stroke-linejoin="bevel" font-family="Noto Sans" font-style="normal" stroke-opacity="1" font-weight="400" stroke-width="1" font-size="35.2778" stroke="#000000"/>
  <g stroke-linecap="square" transform="matrix(1,0,0,1,1485,1050)" fill="none" stroke-linejoin="bevel" font-family="Noto Sans" font-style="normal" stroke-opacity="1" font-weight="400" stroke-width="1" font-size="35.2778" stroke="#000000"/>
  <g stroke-linecap="round" transform="matrix(1,0,0,1,1485,1050)" fill="none" stroke-linejoin="bevel" font-family="Noto Sans" font-style="normal" stroke-opacity="1" font-weight="400" stroke-width="2" font-size="35.2778" stroke="#000000">
   <path fill-rule="evenodd" d="M-69.9994,190 L-39.9994,190" vector-effect="none"/>
  </g>
  <g stroke-linecap="square" transform="matrix(1,0,0,1,1485,1050)" fill="none" stroke-linejoin="bevel" font-family="Noto Sans" font-style="normal" stroke-opacity="1" font-weight="400" stroke-width="1" font-size="35.2778" stroke="#000000"/>
  <g stroke-linecap="square" transform="matrix(1,0,0,1,1485,1050)" fill="none" stroke-linejoin="bevel" font-family="Noto Sans" font-style="normal" stroke-opacity="1" font-weight="400" stroke-width="1" font-size="35.2778" stroke="#000000"/>
  <g stroke-linecap="round" transform="matrix(1,0,0,1,1485,1050)" fill="none" stroke-linejoin="bevel" font-family="Noto Sans" font-style="normal" stroke-opacity="1" font-weight="400" stroke-width="2" font-size="35.2778" stroke="#000000">
   <path fill-rule="evenodd" d="M-69.9994,-190 L-69.9994,190" vector-effect="none"/>
  </g>
  <g stroke-linecap="square" transform="matrix(1,0,0,1,1485,1050)" fill="none" stroke-linejoin="bevel" font-family="Noto Sans" font-style="normal" stroke-opacity="1" font-weight="400" stroke-width="1" font-size="35.2778" stroke="#000000"/>
  <g stroke-linecap="square" transform="matrix(1,0,0,1,1485,1050)" fill="none" stroke-linejoin="bevel" font-family="Noto Sans" font-style="normal" stroke-opacity="1" font-weight="400" stroke-width="1" font-size="35.2778" stroke="#000000"/>
  <g stroke-linecap="round" transform="matrix(1,0,0,1,1485,1050)" fill="none" stroke-linejoin="bevel" font-family="Noto Sans" font-style="normal" stroke-opacity="1" font-weight="400" stroke-width="2" font-size="35.2778" stroke="#000000">
   <path fill-rule="evenodd" d="M-70.0006,190 L-70.0006,-190" vector-effect="none"/>
  </g>
  <g stroke-linecap="square" transform="matrix(1,0,0,1,1485,1050)" fill="none" stroke-linejoin="bevel" font-family="Noto Sans" font-style="normal" stroke-opacity="1" font-weight="400" stroke-width="1" font-size="35.2778" stroke="#000000"/>
  <g stroke-linecap="square" transform="matrix(1,0,0,1,0,0)" fill="none" stroke-linejoin="bevel" font-family="Noto Sans" font-style="normal" stroke-opacity="1" font-weight="400" stroke-width="1" font-size="35.2778" stroke="#000000"/>
 </g>
</svg>
