<?xml version="1.0" encoding="UTF-8" standalone="no"?>
<!-- Created with Inkscape (http://www.inkscape.org/) -->

<svg
   xmlns:dc="http://purl.org/dc/elements/1.1/"
   xmlns:cc="http://creativecommons.org/ns#"
   xmlns:rdf="http://www.w3.org/1999/02/22-rdf-syntax-ns#"
   xmlns:svg="http://www.w3.org/2000/svg"
   xmlns="http://www.w3.org/2000/svg"
   xmlns:sodipodi="http://sodipodi.sourceforge.net/DTD/sodipodi-0.dtd"
   xmlns:inkscape="http://www.inkscape.org/namespaces/inkscape"
   width="300mm"
   height="200mm"
   viewBox="0 0 300 200"
   version="1.1"
   id="svg950"
   inkscape:version="0.92.3 (2405546, 2018-03-11)"
   sodipodi:docname="wood_1mm.svg">
  <defs
     id="defs944">
    <marker
       style="overflow:visible"
       refY="0.0"
       refX="0.0"
       orient="auto"
       id="DistanceX">
      <path
         id="path2623"
         style="stroke:#000000; stroke-width:0.5"
         d="M 3,-3 L -3,3 M 0,-5 L  0,5" />
    </marker>
    <pattern
       y="0"
       x="0"
       width="8"
       patternUnits="userSpaceOnUse"
       id="Hatch"
       height="8">
      <path
         id="path2626"
         stroke-width="0.25"
         stroke="#000000"
         linecap="square"
         d="M8 4 l-4,4" />
      <path
         id="path2628"
         stroke-width="0.25"
         stroke="#000000"
         linecap="square"
         d="M6 2 l-4,4" />
      <path
         id="path2630"
         stroke-width="0.25"
         stroke="#000000"
         linecap="square"
         d="M4 0 l-4,4" />
    </pattern>
    <symbol
       id="*MODEL_SPACE" />
    <symbol
       id="*PAPER_SPACE" />
    <marker
       style="overflow:visible"
       refY="0.0"
       refX="0.0"
       orient="auto"
       id="DistanceX-3">
      <path
         id="path2727"
         style="stroke:#000000; stroke-width:0.5"
         d="M 3,-3 L -3,3 M 0,-5 L  0,5" />
    </marker>
    <pattern
       y="0"
       x="0"
       width="8"
       patternUnits="userSpaceOnUse"
       id="Hatch-6"
       height="8">
      <path
         id="path2730"
         stroke-width="0.25"
         stroke="#000000"
         linecap="square"
         d="M8 4 l-4,4" />
      <path
         id="path2732"
         stroke-width="0.25"
         stroke="#000000"
         linecap="square"
         d="M6 2 l-4,4" />
      <path
         id="path2734"
         stroke-width="0.25"
         stroke="#000000"
         linecap="square"
         d="M4 0 l-4,4" />
    </pattern>
    <symbol
       id="*MODEL_SPACE-7" />
    <symbol
       id="*PAPER_SPACE-5" />
    <marker
       style="overflow:visible"
       refY="0.0"
       refX="0.0"
       orient="auto"
       id="DistanceX-35">
      <path
         id="path2837"
         style="stroke:#000000; stroke-width:0.5"
         d="M 3,-3 L -3,3 M 0,-5 L  0,5" />
    </marker>
    <pattern
       y="0"
       x="0"
       width="8"
       patternUnits="userSpaceOnUse"
       id="Hatch-62"
       height="8">
      <path
         id="path2840"
         stroke-width="0.25"
         stroke="#000000"
         linecap="square"
         d="M8 4 l-4,4" />
      <path
         id="path2842"
         stroke-width="0.25"
         stroke="#000000"
         linecap="square"
         d="M6 2 l-4,4" />
      <path
         id="path2844"
         stroke-width="0.25"
         stroke="#000000"
         linecap="square"
         d="M4 0 l-4,4" />
    </pattern>
    <symbol
       id="*MODEL_SPACE-9" />
    <symbol
       id="*PAPER_SPACE-1" />
    <marker
       style="overflow:visible"
       refY="0.0"
       refX="0.0"
       orient="auto"
       id="DistanceX-9">
      <path
         id="path5253"
         style="stroke:#000000; stroke-width:0.5"
         d="M 3,-3 L -3,3 M 0,-5 L  0,5" />
    </marker>
    <pattern
       y="0"
       x="0"
       width="8"
       patternUnits="userSpaceOnUse"
       id="Hatch-2"
       height="8">
      <path
         id="path5256"
         stroke-width="0.25"
         stroke="#000000"
         linecap="square"
         d="M8 4 l-4,4" />
      <path
         id="path5258"
         stroke-width="0.25"
         stroke="#000000"
         linecap="square"
         d="M6 2 l-4,4" />
      <path
         id="path5260"
         stroke-width="0.25"
         stroke="#000000"
         linecap="square"
         d="M4 0 l-4,4" />
    </pattern>
    <symbol
       id="*MODEL_SPACE-0" />
    <symbol
       id="*PAPER_SPACE-2" />
    <marker
       style="overflow:visible"
       refY="0.0"
       refX="0.0"
       orient="auto"
       id="DistanceX-37">
      <path
         id="path5393"
         style="stroke:#000000; stroke-width:0.5"
         d="M 3,-3 L -3,3 M 0,-5 L  0,5" />
    </marker>
    <pattern
       y="0"
       x="0"
       width="8"
       patternUnits="userSpaceOnUse"
       id="Hatch-5"
       height="8">
      <path
         id="path5396"
         stroke-width="0.25"
         stroke="#000000"
         linecap="square"
         d="M8 4 l-4,4" />
      <path
         id="path5398"
         stroke-width="0.25"
         stroke="#000000"
         linecap="square"
         d="M6 2 l-4,4" />
      <path
         id="path5400"
         stroke-width="0.25"
         stroke="#000000"
         linecap="square"
         d="M4 0 l-4,4" />
    </pattern>
    <symbol
       id="*MODEL_SPACE-92" />
    <symbol
       id="*PAPER_SPACE-28" />
  </defs>
  <sodipodi:namedview
     id="base"
     pagecolor="#ffffff"
     bordercolor="#666666"
     borderopacity="1.0"
     inkscape:pageopacity="0.0"
     inkscape:pageshadow="2"
     inkscape:zoom="0.98994949"
     inkscape:cx="388.07709"
     inkscape:cy="449.31916"
     inkscape:document-units="mm"
     inkscape:current-layer="layer1"
     showgrid="false"
     inkscape:window-width="1920"
     inkscape:window-height="1025"
     inkscape:window-x="0"
     inkscape:window-y="0"
     inkscape:window-maximized="1"
     width="300mm"
     inkscape:measure-start="0,0"
     inkscape:measure-end="0,0" />
  <metadata
     id="metadata947">
    <rdf:RDF>
      <cc:Work
         rdf:about="">
        <dc:format>image/svg+xml</dc:format>
        <dc:type
           rdf:resource="http://purl.org/dc/dcmitype/StillImage" />
        <dc:title></dc:title>
      </cc:Work>
    </rdf:RDF>
  </metadata>
  <g
     inkscape:label="Layer 1"
     inkscape:groupmode="layer"
     id="layer1"
     transform="translate(0,-97)">
    <g
       transform="matrix(-0.1,0,0,0.1,180.52567,18.508923)"
       id="g1039"
       style="fill:none;fill-opacity:1;stroke:#ff0000;stroke-opacity:1">
      <path
         style="font-style:normal;font-weight:400;font-size:medium;font-family:'Noto Sans';vector-effect:non-scaling-stroke;fill:none;fill-opacity:1;fill-rule:evenodd;stroke:#ff0000;stroke-width:1;stroke-linecap:square;stroke-linejoin:bevel;stroke-opacity:1"
         inkscape:connector-curvature="0"
         id="path50-2"
         d="m 1745,1050 c 0,143.594 -116.406,260 -260,260 -143.594,0 -260,-116.406 -260,-260 0,-143.594 116.406,-260 260,-260 143.594,0 260,116.406 260,260" />
      <path
         style="font-style:normal;font-weight:400;font-size:medium;font-family:'Noto Sans';vector-effect:non-scaling-stroke;fill:none;fill-opacity:1;fill-rule:evenodd;stroke:#ff0000;stroke-width:1;stroke-linecap:square;stroke-linejoin:bevel;stroke-opacity:1"
         inkscape:connector-curvature="0"
         id="path66-7"
         d="m 1607.707,1031.2942 -48.3862,-77.4347 h -137.2333 l -46.9655,88.3298 47.2273,101.2799 116.7322,2.0375 68.6255,-114.2125" />
    </g>
    <text
       xml:space="preserve"
       style="font-style:normal;font-variant:normal;font-weight:normal;font-stretch:normal;font-size:14px;line-height:100%;font-family:Overlock;-inkscape-font-specification:Overlock;letter-spacing:0px;word-spacing:0px;fill:#000000;fill-opacity:1;stroke:none;stroke-width:0.26458332;"
       x="-128.13393"
       y="110.65774"
       id="text4235"><tspan
         sodipodi:role="line"
         id="tspan4233"
         x="-128.13393"
         y="112.24077"
         style="stroke-width:0.26458332;font-size:14px;" /></text>
    <text
       xml:space="preserve"
       style="font-style:normal;font-variant:normal;font-weight:normal;font-stretch:normal;font-size:16px;line-height:100%;font-family:Overlock;-inkscape-font-specification:Overlock;letter-spacing:0px;word-spacing:0px;fill:#00ff00;fill-opacity:1;stroke:none;stroke-width:0.26458332"
       x="1.0744675"
       y="81.91256"
       id="text4239"><tspan
         sodipodi:role="line"
         id="tspan4237"
         x="1.0744675"
         y="81.91256"
         style="font-size:16px;fill:#00ff00;fill-opacity:1;stroke-width:0.26458332">for laser x-flipped!!</tspan></text>
    <g
       inkscape:label="0"
       id="g5407"
       transform="matrix(0.26458333,0,0,0.26458333,-84.15486,-7.9213741)" />
    <g
       inkscape:label="View019"
       id="g5447"
       transform="matrix(0,0.26458333,-0.26458333,0,223.95411,68.946332)"
       style="fill:none;fill-opacity:1;stroke:#ff0000;stroke-opacity:1">
      <path
         d="M 501.66194,683.74399 H 365.59895 v 13.22752 h -15.11811 v 30.23705 h 15.11811 v 13.22835 h 136.06299 v -13.22835 h 15.11811 v -30.23664 h -15.11811 v -13.22793"
         id="path50-5"
         inkscape:connector-curvature="0"
         style="font-style:normal;font-weight:400;font-size:medium;font-family:'Noto Sans';vector-effect:non-scaling-stroke;fill:none;fill-opacity:1;fill-rule:evenodd;stroke:#000000;stroke-width:0.37795275;stroke-linecap:square;stroke-linejoin:bevel;stroke-opacity:1" />
    </g>
    <text
       xml:space="preserve"
       style="font-style:normal;font-variant:normal;font-weight:normal;font-stretch:normal;font-size:6px;line-height:100%;font-family:Overlock;-inkscape-font-specification:Overlock;letter-spacing:0px;word-spacing:0px;fill:#00ff00;fill-opacity:1;stroke:none;stroke-width:0.26458332"
       x="-64.45816"
       y="103.03217"
       id="text855"><tspan
         sodipodi:role="line"
         id="tspan853"
         x="-64.45816"
         y="103.03217"
         style="font-size:6px;fill:#00ff00;fill-opacity:1;stroke-width:0.26458332">material:</tspan><tspan
         sodipodi:role="line"
         x="-64.45816"
         y="109.03217"
         style="font-size:6px;fill:#00ff00;fill-opacity:1;stroke-width:0.26458332"
         id="tspan921">1mm Buchen Sperrholz</tspan><tspan
         sodipodi:role="line"
         x="-64.45816"
         y="115.03217"
         style="font-size:6px;fill:#00ff00;fill-opacity:1;stroke-width:0.26458332"
         id="tspan923">Vowinkel</tspan><tspan
         sodipodi:role="line"
         x="-64.45816"
         y="121.03217"
         style="font-size:6px;fill:#00ff00;fill-opacity:1;stroke-width:0.26458332"
         id="tspan925" /><tspan
         sodipodi:role="line"
         x="-64.45816"
         y="127.03217"
         style="font-size:6px;fill:#00ff00;fill-opacity:1;stroke-width:0.26458332"
         id="tspan919">Cut:</tspan><tspan
         sodipodi:role="line"
         x="-64.45816"
         y="133.03218"
         style="font-size:6px;fill:#00ff00;fill-opacity:1;stroke-width:0.26458332"
         id="tspan863">power 80</tspan><tspan
         sodipodi:role="line"
         x="-64.45816"
         y="139.03218"
         style="font-size:6px;fill:#00ff00;fill-opacity:1;stroke-width:0.26458332"
         id="tspan879">speed 30</tspan></text>
    <g
       style="fill:none;fill-opacity:1;stroke:#fd0000;stroke-opacity:1"
       transform="matrix(-0.0819152,0.05735764,0.05735764,0.0819152,210.0204,-44.705024)"
       id="g1715">
      <path
         style="font-style:normal;font-weight:400;font-size:medium;font-family:'Noto Sans';vector-effect:non-scaling-stroke;fill:none;fill-opacity:1;fill-rule:evenodd;stroke:#fd0000;stroke-width:1;stroke-linecap:square;stroke-linejoin:bevel;stroke-opacity:1"
         inkscape:connector-curvature="0"
         id="path50-4"
         d="m 1680.103,992.7375 c 5.312,7.5863 12.309,13.84 20.441,18.2713 30.168,16.439 46.472,50.3049 40.506,84.1397 -5.966,33.8348 -32.869,60.0825 -66.841,65.2115 -9.157,1.383 -17.87,4.866 -25.457,10.178 l -106.4895,74.565 c -7.5863,5.312 -13.84,12.309 -18.2713,20.441 -16.439,30.168 -50.3049,46.472 -84.1397,40.506 -33.8348,-5.966 -60.0825,-32.869 -65.2115,-66.841 -1.383,-9.157 -4.866,-17.87 -10.178,-25.457 l -74.565,-106.4895 c -5.312,-7.5863 -12.309,-13.84 -20.441,-18.2713 -30.168,-16.439 -46.472,-50.3049 -40.506,-84.1397 5.966,-33.8348 32.869,-60.0825 66.841,-65.2115 9.157,-1.383 17.87,-4.866 25.457,-10.178 l 106.4895,-74.565 c 7.5863,-5.312 13.84,-12.309 18.2713,-20.441 16.439,-30.168 50.3049,-46.472 84.1397,-40.506 33.8348,5.966 60.0825,32.869 65.2115,66.841 1.383,9.157 4.866,17.87 10.178,25.457 l 74.565,106.4895" />
      <path
         style="font-style:normal;font-weight:400;font-size:medium;font-family:'Noto Sans';vector-effect:non-scaling-stroke;fill:none;fill-opacity:1;fill-rule:evenodd;stroke:#fd0000;stroke-width:1;stroke-linecap:square;stroke-linejoin:bevel;stroke-opacity:1"
         inkscape:connector-curvature="0"
         id="path66-76"
         d="m 1585,970 v 160 c 0,11.0457 -8.9543,20 -20,20 h -160 c -11.0457,0 -20,-8.9543 -20,-20 V 970 c 0,-11.0457 8.9543,-20 20,-20 h 160 c 11.0457,0 20,8.9543 20,20" />
      <path
         style="font-style:normal;font-weight:400;font-size:medium;font-family:'Noto Sans';vector-effect:non-scaling-stroke;fill:none;fill-opacity:1;fill-rule:evenodd;stroke:#fd0000;stroke-width:1;stroke-linecap:square;stroke-linejoin:bevel;stroke-opacity:1"
         inkscape:connector-curvature="0"
         id="path82-5"
         d="m 1321.938,1037.4438 c 0,9.1127 -7.387,16.5 -16.5,16.5 -9.112,0 -16.5,-7.3873 -16.5,-16.5 0,-9.1127 7.388,-16.5 16.5,-16.5 9.113,0 16.5,7.3873 16.5,16.5" />
      <path
         style="font-style:normal;font-weight:400;font-size:medium;font-family:'Noto Sans';vector-effect:non-scaling-stroke;fill:none;fill-opacity:1;fill-rule:evenodd;stroke:#fd0000;stroke-width:1;stroke-linecap:square;stroke-linejoin:bevel;stroke-opacity:1"
         inkscape:connector-curvature="0"
         id="path98-6"
         d="m 1681.062,1062.5562 c 0,9.1127 -7.388,16.5 -16.5,16.5 -9.113,0 -16.5,-7.3873 -16.5,-16.5 0,-9.1127 7.387,-16.5 16.5,-16.5 9.112,0 16.5,7.3873 16.5,16.5" />
      <path
         style="font-style:normal;font-weight:400;font-size:medium;font-family:'Noto Sans';vector-effect:non-scaling-stroke;fill:none;fill-opacity:1;fill-rule:evenodd;stroke:#fd0000;stroke-width:1;stroke-linecap:square;stroke-linejoin:bevel;stroke-opacity:1"
         inkscape:connector-curvature="0"
         id="path114"
         d="m 1488.9438,1229.562 c 0,9.112 -7.3873,16.5 -16.5,16.5 -9.1127,0 -16.5,-7.388 -16.5,-16.5 0,-9.113 7.3873,-16.5 16.5,-16.5 9.1127,0 16.5,7.387 16.5,16.5" />
      <path
         style="font-style:normal;font-weight:400;font-size:medium;font-family:'Noto Sans';vector-effect:non-scaling-stroke;fill:none;fill-opacity:1;fill-rule:evenodd;stroke:#fd0000;stroke-width:1;stroke-linecap:square;stroke-linejoin:bevel;stroke-opacity:1"
         inkscape:connector-curvature="0"
         id="path130"
         d="m 1514.0562,870.438 c 0,9.113 -7.3873,16.5 -16.5,16.5 -9.1127,0 -16.5,-7.387 -16.5,-16.5 0,-9.112 7.3873,-16.5 16.5,-16.5 9.1127,0 16.5,7.388 16.5,16.5" />
      <path
         style="font-style:normal;font-weight:400;font-size:medium;font-family:'Noto Sans';vector-effect:non-scaling-stroke;fill:none;fill-opacity:1;fill-rule:evenodd;stroke:#fd0000;stroke-width:1;stroke-linecap:square;stroke-linejoin:bevel;stroke-opacity:1"
         inkscape:connector-curvature="0"
         id="path146"
         d="m 1651.237,989.6534 -8.191,5.7357 -45.886,-65.5321 8.191,-5.736 45.886,65.5324" />
      <path
         style="font-style:normal;font-weight:400;font-size:medium;font-family:'Noto Sans';vector-effect:non-scaling-stroke;fill:none;fill-opacity:1;fill-rule:evenodd;stroke:#fd0000;stroke-width:1;stroke-linecap:square;stroke-linejoin:bevel;stroke-opacity:1"
         inkscape:connector-curvature="0"
         id="path162"
         d="m 1424.6534,883.763 5.7357,8.191 -65.5321,45.886 -5.736,-8.191 65.5324,-45.886" />
      <path
         style="font-style:normal;font-weight:400;font-size:medium;font-family:'Noto Sans';vector-effect:non-scaling-stroke;fill:none;fill-opacity:1;fill-rule:evenodd;stroke:#fd0000;stroke-width:1;stroke-linecap:square;stroke-linejoin:bevel;stroke-opacity:1"
         inkscape:connector-curvature="0"
         id="path178"
         d="m 1372.84,1170.143 -8.191,5.736 -45.886,-65.5324 8.191,-5.7357 45.886,65.5321" />
      <path
         style="font-style:normal;font-weight:400;font-size:medium;font-family:'Noto Sans';vector-effect:non-scaling-stroke;fill:none;fill-opacity:1;fill-rule:evenodd;stroke:#fd0000;stroke-width:1;stroke-linecap:square;stroke-linejoin:bevel;stroke-opacity:1"
         inkscape:connector-curvature="0"
         id="path194"
         d="m 1605.143,1162.16 5.736,8.191 -65.5324,45.886 -5.7357,-8.191 65.5321,-45.886" />
    </g>
    <g
       transform="matrix(-0.0819152,0.05735764,0.05735764,0.0819152,156.29923,-45.774102)"
       id="g1663"
       style="stroke:#ff0000;stroke-opacity:1">
      <path
         style="font-style:normal;font-weight:400;font-size:medium;font-family:'Noto Sans';vector-effect:non-scaling-stroke;fill:none;fill-opacity:1;fill-rule:evenodd;stroke:#ff0000;stroke-width:1;stroke-linecap:square;stroke-linejoin:bevel;stroke-opacity:1"
         inkscape:connector-curvature="0"
         id="path50"
         d="m 1680.103,992.7375 c 5.312,7.5863 12.309,13.84 20.441,18.2713 30.168,16.439 46.472,50.3049 40.506,84.1397 -5.966,33.8348 -32.869,60.0825 -66.841,65.2115 -9.157,1.383 -17.87,4.866 -25.457,10.178 l -106.4895,74.565 c -7.5863,5.312 -13.84,12.309 -18.2713,20.441 -16.439,30.168 -50.3049,46.472 -84.1397,40.506 -33.8348,-5.966 -60.0825,-32.869 -65.2115,-66.841 -1.383,-9.157 -4.866,-17.87 -10.178,-25.457 l -74.565,-106.4895 c -5.312,-7.5863 -12.309,-13.84 -20.441,-18.2713 -30.168,-16.439 -46.472,-50.3049 -40.506,-84.1397 5.966,-33.8348 32.869,-60.0825 66.841,-65.2115 9.157,-1.383 17.87,-4.866 25.457,-10.178 l 106.4895,-74.565 c 7.5863,-5.312 13.84,-12.309 18.2713,-20.441 16.439,-30.168 50.3049,-46.472 84.1397,-40.506 33.8348,5.966 60.0825,32.869 65.2115,66.841 1.383,9.157 4.866,17.87 10.178,25.457 l 74.565,106.4895" />
      <path
         style="font-style:normal;font-weight:400;font-size:medium;font-family:'Noto Sans';vector-effect:non-scaling-stroke;fill:none;fill-opacity:1;fill-rule:evenodd;stroke:#ff0000;stroke-width:1;stroke-linecap:square;stroke-linejoin:bevel;stroke-opacity:1"
         inkscape:connector-curvature="0"
         id="path66"
         d="m 1565,970 v 160 H 1405 V 970 h 160" />
      <path
         style="font-style:normal;font-weight:400;font-size:medium;font-family:'Noto Sans';vector-effect:non-scaling-stroke;fill:none;fill-opacity:1;fill-rule:evenodd;stroke:#ff0000;stroke-width:1;stroke-linecap:square;stroke-linejoin:bevel;stroke-opacity:1"
         inkscape:connector-curvature="0"
         id="path82"
         d="m 1321.938,1037.4438 c 0,9.1127 -7.387,16.5 -16.5,16.5 -9.112,0 -16.5,-7.3873 -16.5,-16.5 0,-9.1127 7.388,-16.5 16.5,-16.5 9.113,0 16.5,7.3873 16.5,16.5" />
      <path
         style="font-style:normal;font-weight:400;font-size:medium;font-family:'Noto Sans';vector-effect:non-scaling-stroke;fill:none;fill-opacity:1;fill-rule:evenodd;stroke:#ff0000;stroke-width:1;stroke-linecap:square;stroke-linejoin:bevel;stroke-opacity:1"
         inkscape:connector-curvature="0"
         id="path98"
         d="m 1681.062,1062.5562 c 0,9.1127 -7.388,16.5 -16.5,16.5 -9.113,0 -16.5,-7.3873 -16.5,-16.5 0,-9.1127 7.387,-16.5 16.5,-16.5 9.112,0 16.5,7.3873 16.5,16.5" />
      <path
         style="font-style:normal;font-weight:400;font-size:medium;font-family:'Noto Sans';vector-effect:non-scaling-stroke;fill:none;fill-opacity:1;fill-rule:evenodd;stroke:#ff0000;stroke-width:1;stroke-linecap:square;stroke-linejoin:bevel;stroke-opacity:1"
         inkscape:connector-curvature="0"
         id="path114-9"
         d="m 1488.9438,1229.562 c 0,9.112 -7.3873,16.5 -16.5,16.5 -9.1127,0 -16.5,-7.388 -16.5,-16.5 0,-9.113 7.3873,-16.5 16.5,-16.5 9.1127,0 16.5,7.387 16.5,16.5" />
      <path
         style="font-style:normal;font-weight:400;font-size:medium;font-family:'Noto Sans';vector-effect:non-scaling-stroke;fill:none;fill-opacity:1;fill-rule:evenodd;stroke:#ff0000;stroke-width:1;stroke-linecap:square;stroke-linejoin:bevel;stroke-opacity:1"
         inkscape:connector-curvature="0"
         id="path130-3"
         d="m 1514.0562,870.438 c 0,9.113 -7.3873,16.5 -16.5,16.5 -9.1127,0 -16.5,-7.387 -16.5,-16.5 0,-9.112 7.3873,-16.5 16.5,-16.5 9.1127,0 16.5,7.388 16.5,16.5" />
      <path
         style="font-style:normal;font-weight:400;font-size:medium;font-family:'Noto Sans';vector-effect:non-scaling-stroke;fill:none;fill-opacity:1;fill-rule:evenodd;stroke:#ff0000;stroke-width:1;stroke-linecap:square;stroke-linejoin:bevel;stroke-opacity:1"
         inkscape:connector-curvature="0"
         id="path146-7"
         d="m 1651.237,989.6534 -8.191,5.7357 -45.886,-65.5321 8.191,-5.736 45.886,65.5324" />
      <path
         style="font-style:normal;font-weight:400;font-size:medium;font-family:'Noto Sans';vector-effect:non-scaling-stroke;fill:none;fill-opacity:1;fill-rule:evenodd;stroke:#ff0000;stroke-width:1;stroke-linecap:square;stroke-linejoin:bevel;stroke-opacity:1"
         inkscape:connector-curvature="0"
         id="path162-4"
         d="m 1424.6534,883.763 5.7357,8.191 -65.5321,45.886 -5.736,-8.191 65.5324,-45.886" />
      <path
         style="font-style:normal;font-weight:400;font-size:medium;font-family:'Noto Sans';vector-effect:non-scaling-stroke;fill:none;fill-opacity:1;fill-rule:evenodd;stroke:#ff0000;stroke-width:1;stroke-linecap:square;stroke-linejoin:bevel;stroke-opacity:1"
         inkscape:connector-curvature="0"
         id="path178-5"
         d="m 1372.84,1170.143 -8.191,5.736 -45.886,-65.5324 8.191,-5.7357 45.886,65.5321" />
      <path
         style="font-style:normal;font-weight:400;font-size:medium;font-family:'Noto Sans';vector-effect:non-scaling-stroke;fill:none;fill-opacity:1;fill-rule:evenodd;stroke:#ff0000;stroke-width:1;stroke-linecap:square;stroke-linejoin:bevel;stroke-opacity:1"
         inkscape:connector-curvature="0"
         id="path194-2"
         d="m 1605.143,1162.16 5.736,8.191 -65.5324,45.886 -5.7357,-8.191 65.5321,-45.886" />
    </g>
  </g>
</svg>
